M48
;DRILL file {KiCad (5.0.0-3-g5ebb6b6)} date Wednesday, 26 September 2018 at 10:37:05
;FORMAT={-:-/ absolute / inch / decimal}
FMAT,2
INCH,TZ
T1C0.0157
T2C0.0315
T3C0.0394
T4C0.0440
T5C0.0520
%
G90
G05
M72
T1
X4.5526Y-2.6429
X4.6651Y-3.8254
X4.9776Y-3.1429
X5.1276Y-2.7179
X5.4867Y-2.7389
X5.5502Y-2.7361
X5.5874Y-2.7128
X5.6026Y-2.3833
X6.1776Y-2.9179
X6.3276Y-2.3679
X6.4211Y-2.8709
X6.4883Y-3.3934
X6.6213Y-3.5503
T2
X6.7791Y-4.5429
X6.8776Y-4.5429
X5.3276Y-4.6929
X5.6276Y-4.6929
X4.5291Y-3.6929
X4.6276Y-3.6929
X3.8276Y-4.2429
X4.1276Y-4.2429
X6.2276Y-4.6929
X6.5276Y-4.6929
X6.7526Y-3.1679
X6.7526Y-3.2663
X3.8276Y-4.7429
X4.1276Y-4.7429
X5.4291Y-4.5429
X5.5276Y-4.5429
X4.9276Y-2.4929
X4.9276Y-2.5913
X7.1276Y-4.6929
X7.4276Y-4.6929
X3.8276Y-4.0929
X4.1276Y-4.0929
X6.3291Y-4.5429
X6.4276Y-4.5429
X4.2526Y-4.7429
X4.5526Y-4.7429
X4.5291Y-2.1929
X4.6276Y-2.1929
X4.1276Y-4.5929
X4.226Y-4.5929
X7.2291Y-4.5429
X7.3276Y-4.5429
X4.8776Y-4.6929
X5.1776Y-4.6929
X5.7776Y-4.6929
X6.0776Y-4.6929
X4.9791Y-4.5679
X5.0776Y-4.5679
X4.5291Y-2.9429
X4.6276Y-2.9429
X4.4276Y-3.8929
X4.4276Y-3.9929
X4.4276Y-4.0929
X4.4276Y-4.1929
X4.4276Y-4.2929
X4.4276Y-4.3929
X4.4276Y-4.4929
X4.4276Y-4.5929
X4.7276Y-3.8929
X4.7276Y-3.9929
X4.7276Y-4.0929
X4.7276Y-4.1929
X4.7276Y-4.2929
X4.7276Y-4.3929
X4.7276Y-4.4929
X4.7276Y-4.5929
X3.8276Y-4.3929
X4.1276Y-4.3929
X6.6776Y-4.6929
X6.9776Y-4.6929
X3.8276Y-2.7929
X4.1276Y-2.7929
X5.8791Y-4.5429
X5.9776Y-4.5429
X5.4276Y-3.6429
X5.526Y-3.6429
X3.8276Y-4.5929
X3.926Y-4.5929
T3
X5.1276Y-2.8929
X5.1276Y-2.9929
X5.1276Y-3.0929
X5.1276Y-3.1929
X5.1276Y-3.2929
X5.1276Y-3.3929
X5.5276Y-2.8929
X5.5276Y-2.9929
X5.5276Y-3.0929
X5.5276Y-3.1929
X5.5276Y-3.2929
X5.5276Y-3.3929
X5.9276Y-3.8429
X5.9276Y-3.9429
X5.9276Y-4.0429
X5.9276Y-4.1429
X5.9276Y-4.2429
X5.9276Y-4.3429
X7.0776Y-2.8929
X7.1776Y-2.8929
X7.2776Y-2.8929
X7.3776Y-2.8929
X7.4276Y-3.8429
X7.4276Y-3.9429
X7.4276Y-4.0429
X7.4276Y-4.1429
X7.4276Y-4.2429
X7.4276Y-4.3429
X4.1276Y-2.1929
X5.3026Y-2.5179
X5.3026Y-2.6179
X5.4026Y-2.5179
X5.4026Y-2.6179
X5.5026Y-2.5179
X5.5026Y-2.6179
X5.6026Y-2.5179
X5.6026Y-2.6179
X5.7026Y-2.5179
X5.7026Y-2.6179
X5.8026Y-2.5179
X5.8026Y-2.6179
X5.9026Y-2.5179
X5.9026Y-2.6179
X6.0026Y-2.5179
X6.0026Y-2.6179
X6.1026Y-2.5179
X6.1026Y-2.6179
X6.2026Y-2.5179
X6.2026Y-2.6179
X6.3026Y-2.5179
X6.3026Y-2.6179
X6.4026Y-2.5179
X6.4026Y-2.6179
X6.5026Y-2.5179
X6.5026Y-2.6179
X6.6026Y-2.5179
X6.6026Y-2.6179
X6.7026Y-2.5179
X6.7026Y-2.6179
X6.8026Y-2.5179
X6.8026Y-2.6179
X6.9026Y-2.5179
X6.9026Y-2.6179
X7.0026Y-2.5179
X7.0026Y-2.6179
X7.1026Y-2.5179
X7.1026Y-2.6179
X7.2026Y-2.5179
X7.2026Y-2.6179
X7.1276Y-3.8429
X7.1276Y-3.9429
X7.1276Y-4.0429
X7.1276Y-4.1429
X7.1276Y-4.2429
X7.1276Y-4.3429
X5.0276Y-3.8429
X5.0276Y-3.9429
X5.0276Y-4.0429
X5.0276Y-4.1429
X5.0276Y-4.2429
X5.0276Y-4.3429
X6.2276Y-3.8429
X6.2276Y-3.9429
X6.2276Y-4.0429
X6.2276Y-4.1429
X6.2276Y-4.2429
X6.2276Y-4.3429
X4.1276Y-2.3929
X3.9276Y-2.2929
X3.9276Y-2.3929
X3.9276Y-2.4929
X3.9276Y-2.6429
X6.5776Y-2.7929
X6.5776Y-2.8929
X6.5776Y-2.9929
X6.5776Y-3.0929
X6.5776Y-3.1929
X6.5776Y-3.2929
X6.5776Y-3.3929
X6.5776Y-3.4929
X6.5776Y-3.5929
X6.5776Y-3.6929
T4
X4.4276Y-3.0929
X4.4276Y-3.1929
X4.4276Y-3.2929
X4.4276Y-3.3929
X4.7276Y-3.0929
X4.7276Y-3.1929
X4.7276Y-3.2929
X4.7276Y-3.3929
X4.4276Y-2.3429
X4.4276Y-2.4429
X4.4276Y-2.5429
X4.4276Y-2.6429
X4.7276Y-2.3429
X4.7276Y-2.4429
X4.7276Y-2.5429
X4.7276Y-2.6429
T5
X4.0213Y-3.6228
X4.0213Y-3.8197
X4.0213Y-3.0323
X4.0213Y-3.2291
X4.0213Y-3.426
X6.385Y-5.0992
X6.5819Y-5.0992
X4.3884Y-5.0992
X4.5852Y-5.0992
X4.7821Y-5.0992
X5.8913Y-5.0992
X6.0882Y-5.0992
X7.1776Y-3.1461
X7.1776Y-3.3429
X6.7787Y-5.0992
X6.9756Y-5.0992
X3.7978Y-5.0992
X3.9947Y-5.0992
X4.1915Y-5.0992
X7.1724Y-5.0992
X7.3693Y-5.0992
X5.1039Y-5.0992
X5.3008Y-5.0992
X5.4976Y-5.0992
X5.6945Y-5.0992
T0
M30
