G04 #@! TF.GenerationSoftware,KiCad,Pcbnew,(5.0.0-3-g5ebb6b6)*
G04 #@! TF.CreationDate,2018-09-26T10:49:06+01:00*
G04 #@! TF.ProjectId,rPIHeatingController,72504948656174696E67436F6E74726F,rev?*
G04 #@! TF.SameCoordinates,Original*
G04 #@! TF.FileFunction,Soldermask,Top*
G04 #@! TF.FilePolarity,Negative*
%FSLAX46Y46*%
G04 Gerber Fmt 4.6, Leading zero omitted, Abs format (unit mm)*
G04 Created by KiCad (PCBNEW (5.0.0-3-g5ebb6b6)) date Wednesday, 26 September 2018 at 10:49:06*
%MOMM*%
%LPD*%
G01*
G04 APERTURE LIST*
%ADD10C,3.600000*%
%ADD11R,2.100000X2.100000*%
%ADD12R,2.000000X2.000000*%
%ADD13C,2.000000*%
%ADD14O,2.100000X2.100000*%
%ADD15R,2.380000X4.360000*%
%ADD16O,2.380000X4.360000*%
%ADD17O,4.360000X2.380000*%
%ADD18R,4.360000X2.380000*%
%ADD19O,2.000000X2.000000*%
%ADD20R,2.076400X2.076400*%
%ADD21C,2.076400*%
G04 APERTURE END LIST*
D10*
G04 #@! TO.C,REF\002A\002A*
X188140000Y-55520000D03*
G04 #@! TD*
D11*
G04 #@! TO.C,TP1*
X104840000Y-60780000D03*
G04 #@! TD*
G04 #@! TO.C,TP3*
X104840000Y-55700000D03*
G04 #@! TD*
G04 #@! TO.C,TP2*
X99760000Y-67130000D03*
G04 #@! TD*
D12*
G04 #@! TO.C,C13*
X171515000Y-82965000D03*
D13*
X171515000Y-80465000D03*
G04 #@! TD*
D11*
G04 #@! TO.C,J10*
X182945000Y-66495000D03*
D14*
X182945000Y-63955000D03*
X180405000Y-66495000D03*
X180405000Y-63955000D03*
X177865000Y-66495000D03*
X177865000Y-63955000D03*
X175325000Y-66495000D03*
X175325000Y-63955000D03*
X172785000Y-66495000D03*
X172785000Y-63955000D03*
X170245000Y-66495000D03*
X170245000Y-63955000D03*
X167705000Y-66495000D03*
X167705000Y-63955000D03*
X165165000Y-66495000D03*
X165165000Y-63955000D03*
X162625000Y-66495000D03*
X162625000Y-63955000D03*
X160085000Y-66495000D03*
X160085000Y-63955000D03*
X157545000Y-66495000D03*
X157545000Y-63955000D03*
X155005000Y-66495000D03*
X155005000Y-63955000D03*
X152465000Y-66495000D03*
X152465000Y-63955000D03*
X149925000Y-66495000D03*
X149925000Y-63955000D03*
X147385000Y-66495000D03*
X147385000Y-63955000D03*
X144845000Y-66495000D03*
X144845000Y-63955000D03*
X142305000Y-66495000D03*
X142305000Y-63955000D03*
X139765000Y-66495000D03*
X139765000Y-63955000D03*
X137225000Y-66495000D03*
X137225000Y-63955000D03*
X134685000Y-66495000D03*
X134685000Y-63955000D03*
G04 #@! TD*
D13*
G04 #@! TO.C,C1*
X99720000Y-116660000D03*
X97220000Y-116660000D03*
G04 #@! TD*
G04 #@! TO.C,C2*
X104840000Y-116660000D03*
X107340000Y-116660000D03*
G04 #@! TD*
G04 #@! TO.C,C3*
X126470000Y-116025000D03*
X128970000Y-116025000D03*
G04 #@! TD*
G04 #@! TO.C,C4*
X140400000Y-115390000D03*
X137900000Y-115390000D03*
G04 #@! TD*
G04 #@! TO.C,C5*
X149330000Y-115390000D03*
X151830000Y-115390000D03*
G04 #@! TD*
G04 #@! TO.C,C6*
X163260000Y-115390000D03*
X160760000Y-115390000D03*
G04 #@! TD*
G04 #@! TO.C,C7*
X174690000Y-115390000D03*
X172190000Y-115390000D03*
G04 #@! TD*
G04 #@! TO.C,C8*
X183620000Y-115390000D03*
X186120000Y-115390000D03*
G04 #@! TD*
G04 #@! TO.C,C9*
X117540000Y-93800000D03*
X115040000Y-93800000D03*
G04 #@! TD*
G04 #@! TO.C,C10*
X115040000Y-74750000D03*
X117540000Y-74750000D03*
G04 #@! TD*
G04 #@! TO.C,C11*
X125160000Y-63320000D03*
X125160000Y-65820000D03*
G04 #@! TD*
G04 #@! TO.C,C12*
X140360000Y-92530000D03*
X137860000Y-92530000D03*
G04 #@! TD*
G04 #@! TO.C,C14*
X115040000Y-55700000D03*
X117540000Y-55700000D03*
G04 #@! TD*
D15*
G04 #@! TO.C,J1*
X96465000Y-129520000D03*
D16*
X101465000Y-129520000D03*
X106465000Y-129520000D03*
G04 #@! TD*
G04 #@! TO.C,J2*
X121465000Y-129520000D03*
X116465000Y-129520000D03*
D15*
X111465000Y-129520000D03*
G04 #@! TD*
D16*
G04 #@! TO.C,J3*
X134640000Y-129520000D03*
D15*
X129640000Y-129520000D03*
G04 #@! TD*
G04 #@! TO.C,J4*
X139640000Y-129520000D03*
D16*
X144640000Y-129520000D03*
G04 #@! TD*
G04 #@! TO.C,J5*
X154640000Y-129520000D03*
D15*
X149640000Y-129520000D03*
G04 #@! TD*
D11*
G04 #@! TO.C,J6*
X140400000Y-73480000D03*
D14*
X140400000Y-76020000D03*
X140400000Y-78560000D03*
X140400000Y-81100000D03*
X140400000Y-83640000D03*
X140400000Y-86180000D03*
G04 #@! TD*
D11*
G04 #@! TO.C,J7*
X150560000Y-97610000D03*
D14*
X150560000Y-100150000D03*
X150560000Y-102690000D03*
X150560000Y-105230000D03*
X150560000Y-107770000D03*
X150560000Y-110310000D03*
G04 #@! TD*
G04 #@! TO.C,J8*
X130240000Y-86180000D03*
X130240000Y-83640000D03*
X130240000Y-81100000D03*
X130240000Y-78560000D03*
X130240000Y-76020000D03*
D11*
X130240000Y-73480000D03*
G04 #@! TD*
D14*
G04 #@! TO.C,J9*
X127700000Y-110310000D03*
X127700000Y-107770000D03*
X127700000Y-105230000D03*
X127700000Y-102690000D03*
X127700000Y-100150000D03*
D11*
X127700000Y-97610000D03*
G04 #@! TD*
D15*
G04 #@! TO.C,J11*
X162180000Y-129520000D03*
D16*
X167180000Y-129520000D03*
G04 #@! TD*
G04 #@! TO.C,J12*
X177180000Y-129520000D03*
D15*
X172180000Y-129520000D03*
G04 #@! TD*
G04 #@! TO.C,J13*
X182180000Y-129520000D03*
D16*
X187180000Y-129520000D03*
G04 #@! TD*
D14*
G04 #@! TO.C,J14*
X181040000Y-110310000D03*
X181040000Y-107770000D03*
X181040000Y-105230000D03*
X181040000Y-102690000D03*
X181040000Y-100150000D03*
D11*
X181040000Y-97610000D03*
G04 #@! TD*
D17*
G04 #@! TO.C,J15*
X102140000Y-87020000D03*
X102140000Y-82020000D03*
D18*
X102140000Y-77020000D03*
G04 #@! TD*
D11*
G04 #@! TO.C,J16*
X158180000Y-97610000D03*
D14*
X158180000Y-100150000D03*
X158180000Y-102690000D03*
X158180000Y-105230000D03*
X158180000Y-107770000D03*
X158180000Y-110310000D03*
G04 #@! TD*
D18*
G04 #@! TO.C,J17*
X182310000Y-84910000D03*
D17*
X182310000Y-79910000D03*
G04 #@! TD*
D14*
G04 #@! TO.C,J18*
X188660000Y-110310000D03*
X188660000Y-107770000D03*
X188660000Y-105230000D03*
X188660000Y-102690000D03*
X188660000Y-100150000D03*
D11*
X188660000Y-97610000D03*
G04 #@! TD*
D17*
G04 #@! TO.C,J19*
X102140000Y-97020000D03*
D18*
X102140000Y-92020000D03*
G04 #@! TD*
D19*
G04 #@! TO.C,R1*
X131510000Y-119200000D03*
D13*
X123890000Y-119200000D03*
G04 #@! TD*
D19*
G04 #@! TO.C,R2*
X142940000Y-119200000D03*
D13*
X135320000Y-119200000D03*
G04 #@! TD*
D19*
G04 #@! TO.C,R3*
X154370000Y-119200000D03*
D13*
X146750000Y-119200000D03*
G04 #@! TD*
G04 #@! TO.C,R4*
X158180000Y-119200000D03*
D19*
X165800000Y-119200000D03*
G04 #@! TD*
G04 #@! TO.C,R5*
X177230000Y-119200000D03*
D13*
X169610000Y-119200000D03*
G04 #@! TD*
G04 #@! TO.C,R6*
X181040000Y-119200000D03*
D19*
X188660000Y-119200000D03*
G04 #@! TD*
D13*
G04 #@! TO.C,R7*
X104840000Y-70940000D03*
D19*
X97220000Y-70940000D03*
G04 #@! TD*
D13*
G04 #@! TO.C,R8*
X104840000Y-103960000D03*
D19*
X97220000Y-103960000D03*
G04 #@! TD*
D20*
G04 #@! TO.C,U1*
X112460000Y-59510000D03*
D21*
X112460000Y-62050000D03*
X112460000Y-64590000D03*
X112460000Y-67130000D03*
X120080000Y-67130000D03*
X120080000Y-64590000D03*
X120080000Y-62050000D03*
X120080000Y-59510000D03*
G04 #@! TD*
G04 #@! TO.C,U2*
X120080000Y-78560000D03*
X120080000Y-81100000D03*
X120080000Y-83640000D03*
X120080000Y-86180000D03*
X112460000Y-86180000D03*
X112460000Y-83640000D03*
X112460000Y-81100000D03*
D20*
X112460000Y-78560000D03*
G04 #@! TD*
D19*
G04 #@! TO.C,U3*
X120080000Y-98880000D03*
X112460000Y-116660000D03*
X120080000Y-101420000D03*
X112460000Y-114120000D03*
X120080000Y-103960000D03*
X112460000Y-111580000D03*
X120080000Y-106500000D03*
X112460000Y-109040000D03*
X120080000Y-109040000D03*
X112460000Y-106500000D03*
X120080000Y-111580000D03*
X112460000Y-103960000D03*
X120080000Y-114120000D03*
X112460000Y-101420000D03*
X120080000Y-116660000D03*
D12*
X112460000Y-98880000D03*
G04 #@! TD*
D14*
G04 #@! TO.C,J21*
X187390000Y-73480000D03*
X184850000Y-73480000D03*
X182310000Y-73480000D03*
D11*
X179770000Y-73480000D03*
G04 #@! TD*
D14*
G04 #@! TO.C,J20*
X167070000Y-93800000D03*
X167070000Y-91260000D03*
X167070000Y-88720000D03*
X167070000Y-86180000D03*
X167070000Y-83640000D03*
X167070000Y-81100000D03*
X167070000Y-78560000D03*
X167070000Y-76020000D03*
X167070000Y-73480000D03*
D11*
X167070000Y-70940000D03*
G04 #@! TD*
D14*
G04 #@! TO.C,J22*
X99760000Y-63320000D03*
X99760000Y-60780000D03*
D11*
X99760000Y-58240000D03*
G04 #@! TD*
D19*
G04 #@! TO.C,R9*
X104840000Y-107770000D03*
D13*
X97220000Y-107770000D03*
G04 #@! TD*
G04 #@! TO.C,R10*
X97220000Y-111580000D03*
D19*
X104840000Y-111580000D03*
G04 #@! TD*
D13*
G04 #@! TO.C,R11*
X104840000Y-120470000D03*
D19*
X97220000Y-120470000D03*
G04 #@! TD*
G04 #@! TO.C,R12*
X115635000Y-120470000D03*
D13*
X108015000Y-120470000D03*
G04 #@! TD*
D10*
G04 #@! TO.C,REF\002A\002A*
X96140000Y-141520000D03*
G04 #@! TD*
G04 #@! TO.C,REF\002A\002A*
X124140000Y-55520000D03*
G04 #@! TD*
G04 #@! TO.C,REF\002A\002A*
X188140000Y-141520000D03*
G04 #@! TD*
M02*
