G04 #@! TF.GenerationSoftware,KiCad,Pcbnew,(5.0.0-3-g5ebb6b6)*
G04 #@! TF.CreationDate,2018-09-26T10:49:06+01:00*
G04 #@! TF.ProjectId,rPIHeatingController,72504948656174696E67436F6E74726F,rev?*
G04 #@! TF.SameCoordinates,Original*
G04 #@! TF.FileFunction,Legend,Bot*
G04 #@! TF.FilePolarity,Positive*
%FSLAX46Y46*%
G04 Gerber Fmt 4.6, Leading zero omitted, Abs format (unit mm)*
G04 Created by KiCad (PCBNEW (5.0.0-3-g5ebb6b6)) date Wednesday, 26 September 2018 at 10:49:06*
%MOMM*%
%LPD*%
G01*
G04 APERTURE LIST*
%ADD10C,0.300000*%
G04 APERTURE END LIST*
D10*
X135223142Y-56627571D02*
X134723142Y-55913285D01*
X134366000Y-56627571D02*
X134366000Y-55127571D01*
X134937428Y-55127571D01*
X135080285Y-55199000D01*
X135151714Y-55270428D01*
X135223142Y-55413285D01*
X135223142Y-55627571D01*
X135151714Y-55770428D01*
X135080285Y-55841857D01*
X134937428Y-55913285D01*
X134366000Y-55913285D01*
X136508857Y-56627571D02*
X136508857Y-55841857D01*
X136437428Y-55699000D01*
X136294571Y-55627571D01*
X136008857Y-55627571D01*
X135866000Y-55699000D01*
X136508857Y-56556142D02*
X136366000Y-56627571D01*
X136008857Y-56627571D01*
X135866000Y-56556142D01*
X135794571Y-56413285D01*
X135794571Y-56270428D01*
X135866000Y-56127571D01*
X136008857Y-56056142D01*
X136366000Y-56056142D01*
X136508857Y-55984714D01*
X137151714Y-56556142D02*
X137294571Y-56627571D01*
X137580285Y-56627571D01*
X137723142Y-56556142D01*
X137794571Y-56413285D01*
X137794571Y-56341857D01*
X137723142Y-56199000D01*
X137580285Y-56127571D01*
X137366000Y-56127571D01*
X137223142Y-56056142D01*
X137151714Y-55913285D01*
X137151714Y-55841857D01*
X137223142Y-55699000D01*
X137366000Y-55627571D01*
X137580285Y-55627571D01*
X137723142Y-55699000D01*
X138437428Y-55627571D02*
X138437428Y-57127571D01*
X138437428Y-55699000D02*
X138580285Y-55627571D01*
X138866000Y-55627571D01*
X139008857Y-55699000D01*
X139080285Y-55770428D01*
X139151714Y-55913285D01*
X139151714Y-56341857D01*
X139080285Y-56484714D01*
X139008857Y-56556142D01*
X138866000Y-56627571D01*
X138580285Y-56627571D01*
X138437428Y-56556142D01*
X139794571Y-56627571D02*
X139794571Y-55127571D01*
X139794571Y-55699000D02*
X139937428Y-55627571D01*
X140223142Y-55627571D01*
X140366000Y-55699000D01*
X140437428Y-55770428D01*
X140508857Y-55913285D01*
X140508857Y-56341857D01*
X140437428Y-56484714D01*
X140366000Y-56556142D01*
X140223142Y-56627571D01*
X139937428Y-56627571D01*
X139794571Y-56556142D01*
X141723142Y-56556142D02*
X141580285Y-56627571D01*
X141294571Y-56627571D01*
X141151714Y-56556142D01*
X141080285Y-56413285D01*
X141080285Y-55841857D01*
X141151714Y-55699000D01*
X141294571Y-55627571D01*
X141580285Y-55627571D01*
X141723142Y-55699000D01*
X141794571Y-55841857D01*
X141794571Y-55984714D01*
X141080285Y-56127571D01*
X142437428Y-56627571D02*
X142437428Y-55627571D01*
X142437428Y-55913285D02*
X142508857Y-55770428D01*
X142580285Y-55699000D01*
X142723142Y-55627571D01*
X142866000Y-55627571D01*
X143366000Y-56627571D02*
X143366000Y-55627571D01*
X143366000Y-55913285D02*
X143437428Y-55770428D01*
X143508857Y-55699000D01*
X143651714Y-55627571D01*
X143794571Y-55627571D01*
X144151714Y-55627571D02*
X144508857Y-56627571D01*
X144866000Y-55627571D02*
X144508857Y-56627571D01*
X144366000Y-56984714D01*
X144294571Y-57056142D01*
X144151714Y-57127571D01*
X146580285Y-56627571D02*
X146580285Y-55127571D01*
X147151714Y-55127571D01*
X147294571Y-55199000D01*
X147366000Y-55270428D01*
X147437428Y-55413285D01*
X147437428Y-55627571D01*
X147366000Y-55770428D01*
X147294571Y-55841857D01*
X147151714Y-55913285D01*
X146580285Y-55913285D01*
X148080285Y-56627571D02*
X148080285Y-55627571D01*
X148080285Y-55127571D02*
X148008857Y-55199000D01*
X148080285Y-55270428D01*
X148151714Y-55199000D01*
X148080285Y-55127571D01*
X148080285Y-55270428D01*
X149937428Y-56627571D02*
X149937428Y-55127571D01*
X149937428Y-55841857D02*
X150794571Y-55841857D01*
X150794571Y-56627571D02*
X150794571Y-55127571D01*
X152080285Y-56556142D02*
X151937428Y-56627571D01*
X151651714Y-56627571D01*
X151508857Y-56556142D01*
X151437428Y-56413285D01*
X151437428Y-55841857D01*
X151508857Y-55699000D01*
X151651714Y-55627571D01*
X151937428Y-55627571D01*
X152080285Y-55699000D01*
X152151714Y-55841857D01*
X152151714Y-55984714D01*
X151437428Y-56127571D01*
X153437428Y-56627571D02*
X153437428Y-55841857D01*
X153366000Y-55699000D01*
X153223142Y-55627571D01*
X152937428Y-55627571D01*
X152794571Y-55699000D01*
X153437428Y-56556142D02*
X153294571Y-56627571D01*
X152937428Y-56627571D01*
X152794571Y-56556142D01*
X152723142Y-56413285D01*
X152723142Y-56270428D01*
X152794571Y-56127571D01*
X152937428Y-56056142D01*
X153294571Y-56056142D01*
X153437428Y-55984714D01*
X153937428Y-55627571D02*
X154508857Y-55627571D01*
X154151714Y-55127571D02*
X154151714Y-56413285D01*
X154223142Y-56556142D01*
X154366000Y-56627571D01*
X154508857Y-56627571D01*
X155008857Y-56627571D02*
X155008857Y-55627571D01*
X155008857Y-55127571D02*
X154937428Y-55199000D01*
X155008857Y-55270428D01*
X155080285Y-55199000D01*
X155008857Y-55127571D01*
X155008857Y-55270428D01*
X155723142Y-55627571D02*
X155723142Y-56627571D01*
X155723142Y-55770428D02*
X155794571Y-55699000D01*
X155937428Y-55627571D01*
X156151714Y-55627571D01*
X156294571Y-55699000D01*
X156366000Y-55841857D01*
X156366000Y-56627571D01*
X157723142Y-55627571D02*
X157723142Y-56841857D01*
X157651714Y-56984714D01*
X157580285Y-57056142D01*
X157437428Y-57127571D01*
X157223142Y-57127571D01*
X157080285Y-57056142D01*
X157723142Y-56556142D02*
X157580285Y-56627571D01*
X157294571Y-56627571D01*
X157151714Y-56556142D01*
X157080285Y-56484714D01*
X157008857Y-56341857D01*
X157008857Y-55913285D01*
X157080285Y-55770428D01*
X157151714Y-55699000D01*
X157294571Y-55627571D01*
X157580285Y-55627571D01*
X157723142Y-55699000D01*
X160437428Y-56484714D02*
X160366000Y-56556142D01*
X160151714Y-56627571D01*
X160008857Y-56627571D01*
X159794571Y-56556142D01*
X159651714Y-56413285D01*
X159580285Y-56270428D01*
X159508857Y-55984714D01*
X159508857Y-55770428D01*
X159580285Y-55484714D01*
X159651714Y-55341857D01*
X159794571Y-55199000D01*
X160008857Y-55127571D01*
X160151714Y-55127571D01*
X160366000Y-55199000D01*
X160437428Y-55270428D01*
X161294571Y-56627571D02*
X161151714Y-56556142D01*
X161080285Y-56484714D01*
X161008857Y-56341857D01*
X161008857Y-55913285D01*
X161080285Y-55770428D01*
X161151714Y-55699000D01*
X161294571Y-55627571D01*
X161508857Y-55627571D01*
X161651714Y-55699000D01*
X161723142Y-55770428D01*
X161794571Y-55913285D01*
X161794571Y-56341857D01*
X161723142Y-56484714D01*
X161651714Y-56556142D01*
X161508857Y-56627571D01*
X161294571Y-56627571D01*
X162437428Y-55627571D02*
X162437428Y-56627571D01*
X162437428Y-55770428D02*
X162508857Y-55699000D01*
X162651714Y-55627571D01*
X162866000Y-55627571D01*
X163008857Y-55699000D01*
X163080285Y-55841857D01*
X163080285Y-56627571D01*
X163580285Y-55627571D02*
X164151714Y-55627571D01*
X163794571Y-55127571D02*
X163794571Y-56413285D01*
X163866000Y-56556142D01*
X164008857Y-56627571D01*
X164151714Y-56627571D01*
X164651714Y-56627571D02*
X164651714Y-55627571D01*
X164651714Y-55913285D02*
X164723142Y-55770428D01*
X164794571Y-55699000D01*
X164937428Y-55627571D01*
X165080285Y-55627571D01*
X165794571Y-56627571D02*
X165651714Y-56556142D01*
X165580285Y-56484714D01*
X165508857Y-56341857D01*
X165508857Y-55913285D01*
X165580285Y-55770428D01*
X165651714Y-55699000D01*
X165794571Y-55627571D01*
X166008857Y-55627571D01*
X166151714Y-55699000D01*
X166223142Y-55770428D01*
X166294571Y-55913285D01*
X166294571Y-56341857D01*
X166223142Y-56484714D01*
X166151714Y-56556142D01*
X166008857Y-56627571D01*
X165794571Y-56627571D01*
X167151714Y-56627571D02*
X167008857Y-56556142D01*
X166937428Y-56413285D01*
X166937428Y-55127571D01*
X167937428Y-56627571D02*
X167794571Y-56556142D01*
X167723142Y-56413285D01*
X167723142Y-55127571D01*
X169080285Y-56556142D02*
X168937428Y-56627571D01*
X168651714Y-56627571D01*
X168508857Y-56556142D01*
X168437428Y-56413285D01*
X168437428Y-55841857D01*
X168508857Y-55699000D01*
X168651714Y-55627571D01*
X168937428Y-55627571D01*
X169080285Y-55699000D01*
X169151714Y-55841857D01*
X169151714Y-55984714D01*
X168437428Y-56127571D01*
X169794571Y-56627571D02*
X169794571Y-55627571D01*
X169794571Y-55913285D02*
X169866000Y-55770428D01*
X169937428Y-55699000D01*
X170080285Y-55627571D01*
X170223142Y-55627571D01*
X171651714Y-55127571D02*
X172151714Y-56627571D01*
X172651714Y-55127571D01*
X173937428Y-56627571D02*
X173080285Y-56627571D01*
X173508857Y-56627571D02*
X173508857Y-55127571D01*
X173366000Y-55341857D01*
X173223142Y-55484714D01*
X173080285Y-55556142D01*
X138366000Y-57677571D02*
X138366000Y-58749000D01*
X138294571Y-58963285D01*
X138151714Y-59106142D01*
X137937428Y-59177571D01*
X137794571Y-59177571D01*
X139294571Y-59177571D02*
X139151714Y-59106142D01*
X139080285Y-59034714D01*
X139008857Y-58891857D01*
X139008857Y-58463285D01*
X139080285Y-58320428D01*
X139151714Y-58249000D01*
X139294571Y-58177571D01*
X139508857Y-58177571D01*
X139651714Y-58249000D01*
X139723142Y-58320428D01*
X139794571Y-58463285D01*
X139794571Y-58891857D01*
X139723142Y-59034714D01*
X139651714Y-59106142D01*
X139508857Y-59177571D01*
X139294571Y-59177571D01*
X140437428Y-58177571D02*
X140437428Y-59177571D01*
X140437428Y-58320428D02*
X140508857Y-58249000D01*
X140651714Y-58177571D01*
X140866000Y-58177571D01*
X141008857Y-58249000D01*
X141080285Y-58391857D01*
X141080285Y-59177571D01*
X141794571Y-58177571D02*
X141794571Y-59177571D01*
X141794571Y-58320428D02*
X141866000Y-58249000D01*
X142008857Y-58177571D01*
X142223142Y-58177571D01*
X142366000Y-58249000D01*
X142437428Y-58391857D01*
X142437428Y-59177571D01*
X143008857Y-58177571D02*
X143366000Y-59177571D01*
X143723142Y-58177571D02*
X143366000Y-59177571D01*
X143223142Y-59534714D01*
X143151714Y-59606142D01*
X143008857Y-59677571D01*
X145937428Y-58391857D02*
X146151714Y-58463285D01*
X146223142Y-58534714D01*
X146294571Y-58677571D01*
X146294571Y-58891857D01*
X146223142Y-59034714D01*
X146151714Y-59106142D01*
X146008857Y-59177571D01*
X145437428Y-59177571D01*
X145437428Y-57677571D01*
X145937428Y-57677571D01*
X146080285Y-57749000D01*
X146151714Y-57820428D01*
X146223142Y-57963285D01*
X146223142Y-58106142D01*
X146151714Y-58249000D01*
X146080285Y-58320428D01*
X145937428Y-58391857D01*
X145437428Y-58391857D01*
X147151714Y-59177571D02*
X147008857Y-59106142D01*
X146937428Y-59034714D01*
X146866000Y-58891857D01*
X146866000Y-58463285D01*
X146937428Y-58320428D01*
X147008857Y-58249000D01*
X147151714Y-58177571D01*
X147366000Y-58177571D01*
X147508857Y-58249000D01*
X147580285Y-58320428D01*
X147651714Y-58463285D01*
X147651714Y-58891857D01*
X147580285Y-59034714D01*
X147508857Y-59106142D01*
X147366000Y-59177571D01*
X147151714Y-59177571D01*
X148937428Y-59177571D02*
X148937428Y-57677571D01*
X148937428Y-59106142D02*
X148794571Y-59177571D01*
X148508857Y-59177571D01*
X148366000Y-59106142D01*
X148294571Y-59034714D01*
X148223142Y-58891857D01*
X148223142Y-58463285D01*
X148294571Y-58320428D01*
X148366000Y-58249000D01*
X148508857Y-58177571D01*
X148794571Y-58177571D01*
X148937428Y-58249000D01*
X150294571Y-58177571D02*
X150294571Y-59391857D01*
X150223142Y-59534714D01*
X150151714Y-59606142D01*
X150008857Y-59677571D01*
X149794571Y-59677571D01*
X149651714Y-59606142D01*
X150294571Y-59106142D02*
X150151714Y-59177571D01*
X149866000Y-59177571D01*
X149723142Y-59106142D01*
X149651714Y-59034714D01*
X149580285Y-58891857D01*
X149580285Y-58463285D01*
X149651714Y-58320428D01*
X149723142Y-58249000D01*
X149866000Y-58177571D01*
X150151714Y-58177571D01*
X150294571Y-58249000D01*
X151580285Y-59106142D02*
X151437428Y-59177571D01*
X151151714Y-59177571D01*
X151008857Y-59106142D01*
X150937428Y-58963285D01*
X150937428Y-58391857D01*
X151008857Y-58249000D01*
X151151714Y-58177571D01*
X151437428Y-58177571D01*
X151580285Y-58249000D01*
X151651714Y-58391857D01*
X151651714Y-58534714D01*
X150937428Y-58677571D01*
X152294571Y-59177571D02*
X152294571Y-58177571D01*
X152294571Y-58463285D02*
X152366000Y-58320428D01*
X152437428Y-58249000D01*
X152580285Y-58177571D01*
X152723142Y-58177571D01*
X154366000Y-59177571D02*
X154366000Y-57677571D01*
X154723142Y-57677571D01*
X154937428Y-57749000D01*
X155080285Y-57891857D01*
X155151714Y-58034714D01*
X155223142Y-58320428D01*
X155223142Y-58534714D01*
X155151714Y-58820428D01*
X155080285Y-58963285D01*
X154937428Y-59106142D01*
X154723142Y-59177571D01*
X154366000Y-59177571D01*
X156437428Y-59106142D02*
X156294571Y-59177571D01*
X156008857Y-59177571D01*
X155866000Y-59106142D01*
X155794571Y-58963285D01*
X155794571Y-58391857D01*
X155866000Y-58249000D01*
X156008857Y-58177571D01*
X156294571Y-58177571D01*
X156437428Y-58249000D01*
X156508857Y-58391857D01*
X156508857Y-58534714D01*
X155794571Y-58677571D01*
X157080285Y-59106142D02*
X157223142Y-59177571D01*
X157508857Y-59177571D01*
X157651714Y-59106142D01*
X157723142Y-58963285D01*
X157723142Y-58891857D01*
X157651714Y-58749000D01*
X157508857Y-58677571D01*
X157294571Y-58677571D01*
X157151714Y-58606142D01*
X157080285Y-58463285D01*
X157080285Y-58391857D01*
X157151714Y-58249000D01*
X157294571Y-58177571D01*
X157508857Y-58177571D01*
X157651714Y-58249000D01*
X158366000Y-59177571D02*
X158366000Y-58177571D01*
X158366000Y-57677571D02*
X158294571Y-57749000D01*
X158366000Y-57820428D01*
X158437428Y-57749000D01*
X158366000Y-57677571D01*
X158366000Y-57820428D01*
X159723142Y-58177571D02*
X159723142Y-59391857D01*
X159651714Y-59534714D01*
X159580285Y-59606142D01*
X159437428Y-59677571D01*
X159223142Y-59677571D01*
X159080285Y-59606142D01*
X159723142Y-59106142D02*
X159580285Y-59177571D01*
X159294571Y-59177571D01*
X159151714Y-59106142D01*
X159080285Y-59034714D01*
X159008857Y-58891857D01*
X159008857Y-58463285D01*
X159080285Y-58320428D01*
X159151714Y-58249000D01*
X159294571Y-58177571D01*
X159580285Y-58177571D01*
X159723142Y-58249000D01*
X160437428Y-58177571D02*
X160437428Y-59177571D01*
X160437428Y-58320428D02*
X160508857Y-58249000D01*
X160651714Y-58177571D01*
X160866000Y-58177571D01*
X161008857Y-58249000D01*
X161080285Y-58391857D01*
X161080285Y-59177571D01*
X161723142Y-59106142D02*
X161866000Y-59177571D01*
X162151714Y-59177571D01*
X162294571Y-59106142D01*
X162366000Y-58963285D01*
X162366000Y-58891857D01*
X162294571Y-58749000D01*
X162151714Y-58677571D01*
X161937428Y-58677571D01*
X161794571Y-58606142D01*
X161723142Y-58463285D01*
X161723142Y-58391857D01*
X161794571Y-58249000D01*
X161937428Y-58177571D01*
X162151714Y-58177571D01*
X162294571Y-58249000D01*
X164080285Y-57820428D02*
X164151714Y-57749000D01*
X164294571Y-57677571D01*
X164651714Y-57677571D01*
X164794571Y-57749000D01*
X164865999Y-57820428D01*
X164937428Y-57963285D01*
X164937428Y-58106142D01*
X164865999Y-58320428D01*
X164008857Y-59177571D01*
X164937428Y-59177571D01*
X165865999Y-57677571D02*
X166008857Y-57677571D01*
X166151714Y-57749000D01*
X166223142Y-57820428D01*
X166294571Y-57963285D01*
X166365999Y-58249000D01*
X166365999Y-58606142D01*
X166294571Y-58891857D01*
X166223142Y-59034714D01*
X166151714Y-59106142D01*
X166008857Y-59177571D01*
X165865999Y-59177571D01*
X165723142Y-59106142D01*
X165651714Y-59034714D01*
X165580285Y-58891857D01*
X165508857Y-58606142D01*
X165508857Y-58249000D01*
X165580285Y-57963285D01*
X165651714Y-57820428D01*
X165723142Y-57749000D01*
X165865999Y-57677571D01*
X167794571Y-59177571D02*
X166937428Y-59177571D01*
X167365999Y-59177571D02*
X167365999Y-57677571D01*
X167223142Y-57891857D01*
X167080285Y-58034714D01*
X166937428Y-58106142D01*
X168651714Y-58320428D02*
X168508857Y-58249000D01*
X168437428Y-58177571D01*
X168366000Y-58034714D01*
X168366000Y-57963285D01*
X168437428Y-57820428D01*
X168508857Y-57749000D01*
X168651714Y-57677571D01*
X168937428Y-57677571D01*
X169080285Y-57749000D01*
X169151714Y-57820428D01*
X169223142Y-57963285D01*
X169223142Y-58034714D01*
X169151714Y-58177571D01*
X169080285Y-58249000D01*
X168937428Y-58320428D01*
X168651714Y-58320428D01*
X168508857Y-58391857D01*
X168437428Y-58463285D01*
X168366000Y-58606142D01*
X168366000Y-58891857D01*
X168437428Y-59034714D01*
X168508857Y-59106142D01*
X168651714Y-59177571D01*
X168937428Y-59177571D01*
X169080285Y-59106142D01*
X169151714Y-59034714D01*
X169223142Y-58891857D01*
X169223142Y-58606142D01*
X169151714Y-58463285D01*
X169080285Y-58391857D01*
X168937428Y-58320428D01*
M02*
