G04 #@! TF.GenerationSoftware,KiCad,Pcbnew,(5.0.0-3-g5ebb6b6)*
G04 #@! TF.CreationDate,2018-09-26T10:49:06+01:00*
G04 #@! TF.ProjectId,rPIHeatingController,72504948656174696E67436F6E74726F,rev?*
G04 #@! TF.SameCoordinates,Original*
G04 #@! TF.FileFunction,Copper,L1,Top,Signal*
G04 #@! TF.FilePolarity,Positive*
%FSLAX46Y46*%
G04 Gerber Fmt 4.6, Leading zero omitted, Abs format (unit mm)*
G04 Created by KiCad (PCBNEW (5.0.0-3-g5ebb6b6)) date Wednesday, 26 September 2018 at 10:49:06*
%MOMM*%
%LPD*%
G01*
G04 APERTURE LIST*
G04 #@! TA.AperFunction,ComponentPad*
%ADD10R,1.700000X1.700000*%
G04 #@! TD*
G04 #@! TA.AperFunction,ComponentPad*
%ADD11R,1.600000X1.600000*%
G04 #@! TD*
G04 #@! TA.AperFunction,ComponentPad*
%ADD12C,1.600000*%
G04 #@! TD*
G04 #@! TA.AperFunction,ComponentPad*
%ADD13O,1.700000X1.700000*%
G04 #@! TD*
G04 #@! TA.AperFunction,ComponentPad*
%ADD14R,1.980000X3.960000*%
G04 #@! TD*
G04 #@! TA.AperFunction,ComponentPad*
%ADD15O,1.980000X3.960000*%
G04 #@! TD*
G04 #@! TA.AperFunction,ComponentPad*
%ADD16O,3.960000X1.980000*%
G04 #@! TD*
G04 #@! TA.AperFunction,ComponentPad*
%ADD17R,3.960000X1.980000*%
G04 #@! TD*
G04 #@! TA.AperFunction,ComponentPad*
%ADD18O,1.600000X1.600000*%
G04 #@! TD*
G04 #@! TA.AperFunction,ComponentPad*
%ADD19R,1.676400X1.676400*%
G04 #@! TD*
G04 #@! TA.AperFunction,ComponentPad*
%ADD20C,1.676400*%
G04 #@! TD*
G04 #@! TA.AperFunction,ViaPad*
%ADD21C,0.800000*%
G04 #@! TD*
G04 #@! TA.AperFunction,Conductor*
%ADD22C,0.750000*%
G04 #@! TD*
G04 #@! TA.AperFunction,Conductor*
%ADD23C,0.250000*%
G04 #@! TD*
G04 APERTURE END LIST*
D10*
G04 #@! TO.P,TP1,1*
G04 #@! TO.N,+3V3*
X104840000Y-60780000D03*
G04 #@! TD*
G04 #@! TO.P,TP3,1*
G04 #@! TO.N,+5V*
X104840000Y-55700000D03*
G04 #@! TD*
G04 #@! TO.P,TP2,1*
G04 #@! TO.N,GND*
X99760000Y-67130000D03*
G04 #@! TD*
D11*
G04 #@! TO.P,C13,1*
G04 #@! TO.N,+5V*
X171515000Y-82965000D03*
D12*
G04 #@! TO.P,C13,2*
G04 #@! TO.N,GND*
X171515000Y-80465000D03*
G04 #@! TD*
D10*
G04 #@! TO.P,J10,1*
G04 #@! TO.N,Net-(J10-Pad1)*
X182945000Y-66495000D03*
D13*
G04 #@! TO.P,J10,2*
G04 #@! TO.N,+5V*
X182945000Y-63955000D03*
G04 #@! TO.P,J10,3*
G04 #@! TO.N,RL1*
X180405000Y-66495000D03*
G04 #@! TO.P,J10,4*
G04 #@! TO.N,+5V*
X180405000Y-63955000D03*
G04 #@! TO.P,J10,5*
G04 #@! TO.N,RL2*
X177865000Y-66495000D03*
G04 #@! TO.P,J10,6*
G04 #@! TO.N,GND*
X177865000Y-63955000D03*
G04 #@! TO.P,J10,7*
G04 #@! TO.N,CFH1*
X175325000Y-66495000D03*
G04 #@! TO.P,J10,8*
G04 #@! TO.N,Net-(J10-Pad8)*
X175325000Y-63955000D03*
G04 #@! TO.P,J10,9*
G04 #@! TO.N,GND*
X172785000Y-66495000D03*
G04 #@! TO.P,J10,10*
G04 #@! TO.N,Net-(J10-Pad10)*
X172785000Y-63955000D03*
G04 #@! TO.P,J10,11*
G04 #@! TO.N,UD_3V*
X170245000Y-66495000D03*
G04 #@! TO.P,J10,12*
G04 #@! TO.N,ADC_CLK*
X170245000Y-63955000D03*
G04 #@! TO.P,J10,13*
G04 #@! TO.N,ADC_CS*
X167705000Y-66495000D03*
G04 #@! TO.P,J10,14*
G04 #@! TO.N,GND*
X167705000Y-63955000D03*
G04 #@! TO.P,J10,15*
G04 #@! TO.N,ZV1*
X165165000Y-66495000D03*
G04 #@! TO.P,J10,16*
G04 #@! TO.N,ZV2*
X165165000Y-63955000D03*
G04 #@! TO.P,J10,17*
G04 #@! TO.N,Net-(J10-Pad17)*
X162625000Y-66495000D03*
G04 #@! TO.P,J10,18*
G04 #@! TO.N,ZV3*
X162625000Y-63955000D03*
G04 #@! TO.P,J10,19*
G04 #@! TO.N,Net-(J10-Pad19)*
X160085000Y-66495000D03*
G04 #@! TO.P,J10,20*
G04 #@! TO.N,GND*
X160085000Y-63955000D03*
G04 #@! TO.P,J10,21*
G04 #@! TO.N,Net-(J10-Pad21)*
X157545000Y-66495000D03*
G04 #@! TO.P,J10,22*
G04 #@! TO.N,ADC_DOUT*
X157545000Y-63955000D03*
G04 #@! TO.P,J10,23*
G04 #@! TO.N,Net-(J10-Pad23)*
X155005000Y-66495000D03*
G04 #@! TO.P,J10,24*
G04 #@! TO.N,Net-(J10-Pad24)*
X155005000Y-63955000D03*
G04 #@! TO.P,J10,25*
G04 #@! TO.N,GND*
X152465000Y-66495000D03*
G04 #@! TO.P,J10,26*
G04 #@! TO.N,DS18B20*
X152465000Y-63955000D03*
G04 #@! TO.P,J10,27*
G04 #@! TO.N,Net-(J10-Pad27)*
X149925000Y-66495000D03*
G04 #@! TO.P,J10,28*
G04 #@! TO.N,Net-(J10-Pad28)*
X149925000Y-63955000D03*
G04 #@! TO.P,J10,29*
G04 #@! TO.N,CFH2*
X147385000Y-66495000D03*
G04 #@! TO.P,J10,30*
G04 #@! TO.N,GND*
X147385000Y-63955000D03*
G04 #@! TO.P,J10,31*
G04 #@! TO.N,CFH3*
X144845000Y-66495000D03*
G04 #@! TO.P,J10,32*
G04 #@! TO.N,RL3*
X144845000Y-63955000D03*
G04 #@! TO.P,J10,33*
G04 #@! TO.N,RL4*
X142305000Y-66495000D03*
G04 #@! TO.P,J10,34*
G04 #@! TO.N,GND*
X142305000Y-63955000D03*
G04 #@! TO.P,J10,35*
G04 #@! TO.N,CS1_3V*
X139765000Y-66495000D03*
G04 #@! TO.P,J10,36*
G04 #@! TO.N,INC_3V*
X139765000Y-63955000D03*
G04 #@! TO.P,J10,37*
G04 #@! TO.N,ADC_DIN*
X137225000Y-66495000D03*
G04 #@! TO.P,J10,38*
G04 #@! TO.N,CS2_3V*
X137225000Y-63955000D03*
G04 #@! TO.P,J10,39*
G04 #@! TO.N,GND*
X134685000Y-66495000D03*
G04 #@! TO.P,J10,40*
G04 #@! TO.N,Net-(J10-Pad40)*
X134685000Y-63955000D03*
G04 #@! TD*
D12*
G04 #@! TO.P,C1,2*
G04 #@! TO.N,GND*
X99720000Y-116660000D03*
G04 #@! TO.P,C1,1*
G04 #@! TO.N,ADC1*
X97220000Y-116660000D03*
G04 #@! TD*
G04 #@! TO.P,C2,1*
G04 #@! TO.N,ADC2*
X104840000Y-116660000D03*
G04 #@! TO.P,C2,2*
G04 #@! TO.N,GND*
X107340000Y-116660000D03*
G04 #@! TD*
G04 #@! TO.P,C3,2*
G04 #@! TO.N,GND*
X126470000Y-116025000D03*
G04 #@! TO.P,C3,1*
G04 #@! TO.N,Net-(C3-Pad1)*
X128970000Y-116025000D03*
G04 #@! TD*
G04 #@! TO.P,C4,1*
G04 #@! TO.N,Net-(C4-Pad1)*
X140400000Y-115390000D03*
G04 #@! TO.P,C4,2*
G04 #@! TO.N,GND*
X137900000Y-115390000D03*
G04 #@! TD*
G04 #@! TO.P,C5,2*
G04 #@! TO.N,GND*
X149330000Y-115390000D03*
G04 #@! TO.P,C5,1*
G04 #@! TO.N,Net-(C5-Pad1)*
X151830000Y-115390000D03*
G04 #@! TD*
G04 #@! TO.P,C6,1*
G04 #@! TO.N,Net-(C6-Pad1)*
X163260000Y-115390000D03*
G04 #@! TO.P,C6,2*
G04 #@! TO.N,GND*
X160760000Y-115390000D03*
G04 #@! TD*
G04 #@! TO.P,C7,1*
G04 #@! TO.N,Net-(C7-Pad1)*
X174690000Y-115390000D03*
G04 #@! TO.P,C7,2*
G04 #@! TO.N,GND*
X172190000Y-115390000D03*
G04 #@! TD*
G04 #@! TO.P,C8,2*
G04 #@! TO.N,GND*
X183620000Y-115390000D03*
G04 #@! TO.P,C8,1*
G04 #@! TO.N,Net-(C8-Pad1)*
X186120000Y-115390000D03*
G04 #@! TD*
G04 #@! TO.P,C9,1*
G04 #@! TO.N,+5V*
X117540000Y-93800000D03*
G04 #@! TO.P,C9,2*
G04 #@! TO.N,GND*
X115040000Y-93800000D03*
G04 #@! TD*
G04 #@! TO.P,C10,2*
G04 #@! TO.N,GND*
X115040000Y-74750000D03*
G04 #@! TO.P,C10,1*
G04 #@! TO.N,+5V*
X117540000Y-74750000D03*
G04 #@! TD*
G04 #@! TO.P,C11,1*
G04 #@! TO.N,+5V*
X125160000Y-63320000D03*
G04 #@! TO.P,C11,2*
G04 #@! TO.N,GND*
X125160000Y-65820000D03*
G04 #@! TD*
G04 #@! TO.P,C12,2*
G04 #@! TO.N,GND*
X140360000Y-92530000D03*
G04 #@! TO.P,C12,1*
G04 #@! TO.N,+5V*
X137860000Y-92530000D03*
G04 #@! TD*
G04 #@! TO.P,C14,2*
G04 #@! TO.N,GND*
X115040000Y-55700000D03*
G04 #@! TO.P,C14,1*
G04 #@! TO.N,+5V*
X117540000Y-55700000D03*
G04 #@! TD*
D14*
G04 #@! TO.P,J1,1*
G04 #@! TO.N,ADC1*
X96465000Y-129520000D03*
D15*
G04 #@! TO.P,J1,2*
G04 #@! TO.N,ADC2*
X101465000Y-129520000D03*
G04 #@! TO.P,J1,3*
G04 #@! TO.N,GND*
X106465000Y-129520000D03*
G04 #@! TD*
G04 #@! TO.P,J2,3*
G04 #@! TO.N,Net-(J2-Pad3)*
X121465000Y-129520000D03*
G04 #@! TO.P,J2,2*
G04 #@! TO.N,Net-(J2-Pad2)*
X116465000Y-129520000D03*
D14*
G04 #@! TO.P,J2,1*
G04 #@! TO.N,Net-(J2-Pad1)*
X111465000Y-129520000D03*
G04 #@! TD*
D15*
G04 #@! TO.P,J3,2*
G04 #@! TO.N,Net-(C3-Pad1)*
X134640000Y-129520000D03*
D14*
G04 #@! TO.P,J3,1*
G04 #@! TO.N,GND*
X129640000Y-129520000D03*
G04 #@! TD*
G04 #@! TO.P,J4,1*
G04 #@! TO.N,GND*
X139640000Y-129520000D03*
D15*
G04 #@! TO.P,J4,2*
G04 #@! TO.N,Net-(C4-Pad1)*
X144640000Y-129520000D03*
G04 #@! TD*
G04 #@! TO.P,J5,2*
G04 #@! TO.N,Net-(C5-Pad1)*
X154640000Y-129520000D03*
D14*
G04 #@! TO.P,J5,1*
G04 #@! TO.N,GND*
X149640000Y-129520000D03*
G04 #@! TD*
D10*
G04 #@! TO.P,J6,1*
G04 #@! TO.N,CS1_5V*
X140400000Y-73480000D03*
D13*
G04 #@! TO.P,J6,2*
G04 #@! TO.N,CS2_5V*
X140400000Y-76020000D03*
G04 #@! TO.P,J6,3*
G04 #@! TO.N,+5V*
X140400000Y-78560000D03*
G04 #@! TO.P,J6,4*
G04 #@! TO.N,GND*
X140400000Y-81100000D03*
G04 #@! TO.P,J6,5*
G04 #@! TO.N,INC_5V*
X140400000Y-83640000D03*
G04 #@! TO.P,J6,6*
G04 #@! TO.N,UD_5V*
X140400000Y-86180000D03*
G04 #@! TD*
D10*
G04 #@! TO.P,J7,1*
G04 #@! TO.N,Net-(J7-Pad1)*
X150560000Y-97610000D03*
D13*
G04 #@! TO.P,J7,2*
G04 #@! TO.N,Net-(C3-Pad1)*
X150560000Y-100150000D03*
G04 #@! TO.P,J7,3*
G04 #@! TO.N,Net-(C4-Pad1)*
X150560000Y-102690000D03*
G04 #@! TO.P,J7,4*
G04 #@! TO.N,Net-(C5-Pad1)*
X150560000Y-105230000D03*
G04 #@! TO.P,J7,5*
G04 #@! TO.N,Net-(J7-Pad5)*
X150560000Y-107770000D03*
G04 #@! TO.P,J7,6*
G04 #@! TO.N,GND*
X150560000Y-110310000D03*
G04 #@! TD*
G04 #@! TO.P,J8,6*
G04 #@! TO.N,UD_3V*
X130240000Y-86180000D03*
G04 #@! TO.P,J8,5*
G04 #@! TO.N,INC_3V*
X130240000Y-83640000D03*
G04 #@! TO.P,J8,4*
G04 #@! TO.N,GND*
X130240000Y-81100000D03*
G04 #@! TO.P,J8,3*
G04 #@! TO.N,+3V3*
X130240000Y-78560000D03*
G04 #@! TO.P,J8,2*
G04 #@! TO.N,CS2_3V*
X130240000Y-76020000D03*
D10*
G04 #@! TO.P,J8,1*
G04 #@! TO.N,CS1_3V*
X130240000Y-73480000D03*
G04 #@! TD*
D13*
G04 #@! TO.P,J9,6*
G04 #@! TO.N,GND*
X127700000Y-110310000D03*
G04 #@! TO.P,J9,5*
G04 #@! TO.N,+3V3*
X127700000Y-107770000D03*
G04 #@! TO.P,J9,4*
G04 #@! TO.N,Net-(J9-Pad4)*
X127700000Y-105230000D03*
G04 #@! TO.P,J9,3*
G04 #@! TO.N,CFH3*
X127700000Y-102690000D03*
G04 #@! TO.P,J9,2*
G04 #@! TO.N,CFH2*
X127700000Y-100150000D03*
D10*
G04 #@! TO.P,J9,1*
G04 #@! TO.N,CFH1*
X127700000Y-97610000D03*
G04 #@! TD*
D14*
G04 #@! TO.P,J11,1*
G04 #@! TO.N,GND*
X162180000Y-129520000D03*
D15*
G04 #@! TO.P,J11,2*
G04 #@! TO.N,Net-(C6-Pad1)*
X167180000Y-129520000D03*
G04 #@! TD*
G04 #@! TO.P,J12,2*
G04 #@! TO.N,Net-(C7-Pad1)*
X177180000Y-129520000D03*
D14*
G04 #@! TO.P,J12,1*
G04 #@! TO.N,GND*
X172180000Y-129520000D03*
G04 #@! TD*
G04 #@! TO.P,J13,1*
G04 #@! TO.N,GND*
X182180000Y-129520000D03*
D15*
G04 #@! TO.P,J13,2*
G04 #@! TO.N,Net-(C8-Pad1)*
X187180000Y-129520000D03*
G04 #@! TD*
D13*
G04 #@! TO.P,J14,6*
G04 #@! TO.N,GND*
X181040000Y-110310000D03*
G04 #@! TO.P,J14,5*
G04 #@! TO.N,Net-(J14-Pad5)*
X181040000Y-107770000D03*
G04 #@! TO.P,J14,4*
G04 #@! TO.N,Net-(C8-Pad1)*
X181040000Y-105230000D03*
G04 #@! TO.P,J14,3*
G04 #@! TO.N,Net-(C7-Pad1)*
X181040000Y-102690000D03*
G04 #@! TO.P,J14,2*
G04 #@! TO.N,Net-(C6-Pad1)*
X181040000Y-100150000D03*
D10*
G04 #@! TO.P,J14,1*
G04 #@! TO.N,Net-(J14-Pad1)*
X181040000Y-97610000D03*
G04 #@! TD*
D16*
G04 #@! TO.P,J15,3*
G04 #@! TO.N,GND*
X102140000Y-87020000D03*
G04 #@! TO.P,J15,2*
G04 #@! TO.N,DS18B20*
X102140000Y-82020000D03*
D17*
G04 #@! TO.P,J15,1*
G04 #@! TO.N,+3V3*
X102140000Y-77020000D03*
G04 #@! TD*
D10*
G04 #@! TO.P,J16,1*
G04 #@! TO.N,ZV1*
X158180000Y-97610000D03*
D13*
G04 #@! TO.P,J16,2*
G04 #@! TO.N,ZV2*
X158180000Y-100150000D03*
G04 #@! TO.P,J16,3*
G04 #@! TO.N,ZV3*
X158180000Y-102690000D03*
G04 #@! TO.P,J16,4*
G04 #@! TO.N,Net-(J16-Pad4)*
X158180000Y-105230000D03*
G04 #@! TO.P,J16,5*
G04 #@! TO.N,+3V3*
X158180000Y-107770000D03*
G04 #@! TO.P,J16,6*
G04 #@! TO.N,GND*
X158180000Y-110310000D03*
G04 #@! TD*
D17*
G04 #@! TO.P,J17,1*
G04 #@! TO.N,+5V*
X182310000Y-84910000D03*
D16*
G04 #@! TO.P,J17,2*
G04 #@! TO.N,GND*
X182310000Y-79910000D03*
G04 #@! TD*
D13*
G04 #@! TO.P,J18,6*
G04 #@! TO.N,GND*
X188660000Y-110310000D03*
G04 #@! TO.P,J18,5*
G04 #@! TO.N,RL4*
X188660000Y-107770000D03*
G04 #@! TO.P,J18,4*
G04 #@! TO.N,RL3*
X188660000Y-105230000D03*
G04 #@! TO.P,J18,3*
G04 #@! TO.N,RL2*
X188660000Y-102690000D03*
G04 #@! TO.P,J18,2*
G04 #@! TO.N,RL1*
X188660000Y-100150000D03*
D10*
G04 #@! TO.P,J18,1*
G04 #@! TO.N,+5V*
X188660000Y-97610000D03*
G04 #@! TD*
D16*
G04 #@! TO.P,J19,2*
G04 #@! TO.N,ADC3*
X102140000Y-97020000D03*
D17*
G04 #@! TO.P,J19,1*
G04 #@! TO.N,GND*
X102140000Y-92020000D03*
G04 #@! TD*
D18*
G04 #@! TO.P,R1,2*
G04 #@! TO.N,Net-(C3-Pad1)*
X131510000Y-119200000D03*
D12*
G04 #@! TO.P,R1,1*
G04 #@! TO.N,+5V*
X123890000Y-119200000D03*
G04 #@! TD*
D18*
G04 #@! TO.P,R2,2*
G04 #@! TO.N,Net-(C4-Pad1)*
X142940000Y-119200000D03*
D12*
G04 #@! TO.P,R2,1*
G04 #@! TO.N,+5V*
X135320000Y-119200000D03*
G04 #@! TD*
D18*
G04 #@! TO.P,R3,2*
G04 #@! TO.N,Net-(C5-Pad1)*
X154370000Y-119200000D03*
D12*
G04 #@! TO.P,R3,1*
G04 #@! TO.N,+5V*
X146750000Y-119200000D03*
G04 #@! TD*
G04 #@! TO.P,R4,1*
G04 #@! TO.N,+5V*
X158180000Y-119200000D03*
D18*
G04 #@! TO.P,R4,2*
G04 #@! TO.N,Net-(C6-Pad1)*
X165800000Y-119200000D03*
G04 #@! TD*
G04 #@! TO.P,R5,2*
G04 #@! TO.N,Net-(C7-Pad1)*
X177230000Y-119200000D03*
D12*
G04 #@! TO.P,R5,1*
G04 #@! TO.N,+5V*
X169610000Y-119200000D03*
G04 #@! TD*
G04 #@! TO.P,R6,1*
G04 #@! TO.N,+5V*
X181040000Y-119200000D03*
D18*
G04 #@! TO.P,R6,2*
G04 #@! TO.N,Net-(C8-Pad1)*
X188660000Y-119200000D03*
G04 #@! TD*
D12*
G04 #@! TO.P,R7,1*
G04 #@! TO.N,+3V3*
X104840000Y-70940000D03*
D18*
G04 #@! TO.P,R7,2*
G04 #@! TO.N,DS18B20*
X97220000Y-70940000D03*
G04 #@! TD*
D12*
G04 #@! TO.P,R8,1*
G04 #@! TO.N,+3V3*
X104840000Y-103960000D03*
D18*
G04 #@! TO.P,R8,2*
G04 #@! TO.N,ADC3*
X97220000Y-103960000D03*
G04 #@! TD*
D19*
G04 #@! TO.P,U1,1*
G04 #@! TO.N,INC_5V*
X112460000Y-59510000D03*
D20*
G04 #@! TO.P,U1,2*
G04 #@! TO.N,UD_5V*
X112460000Y-62050000D03*
G04 #@! TO.P,U1,3*
G04 #@! TO.N,Net-(U1-Pad3)*
X112460000Y-64590000D03*
G04 #@! TO.P,U1,4*
G04 #@! TO.N,GND*
X112460000Y-67130000D03*
G04 #@! TO.P,U1,5*
G04 #@! TO.N,Net-(J2-Pad1)*
X120080000Y-67130000D03*
G04 #@! TO.P,U1,6*
G04 #@! TO.N,Net-(J2-Pad3)*
X120080000Y-64590000D03*
G04 #@! TO.P,U1,7*
G04 #@! TO.N,CS1_5V*
X120080000Y-62050000D03*
G04 #@! TO.P,U1,8*
G04 #@! TO.N,+5V*
X120080000Y-59510000D03*
G04 #@! TD*
G04 #@! TO.P,U2,8*
G04 #@! TO.N,+5V*
X120080000Y-78560000D03*
G04 #@! TO.P,U2,7*
G04 #@! TO.N,CS2_5V*
X120080000Y-81100000D03*
G04 #@! TO.P,U2,6*
G04 #@! TO.N,Net-(J2-Pad3)*
X120080000Y-83640000D03*
G04 #@! TO.P,U2,5*
G04 #@! TO.N,Net-(R10-Pad2)*
X120080000Y-86180000D03*
G04 #@! TO.P,U2,4*
G04 #@! TO.N,GND*
X112460000Y-86180000D03*
G04 #@! TO.P,U2,3*
G04 #@! TO.N,Net-(U2-Pad3)*
X112460000Y-83640000D03*
G04 #@! TO.P,U2,2*
G04 #@! TO.N,UD_5V*
X112460000Y-81100000D03*
D19*
G04 #@! TO.P,U2,1*
G04 #@! TO.N,INC_5V*
X112460000Y-78560000D03*
G04 #@! TD*
D18*
G04 #@! TO.P,U3,16*
G04 #@! TO.N,+3V3*
X120080000Y-98880000D03*
G04 #@! TO.P,U3,8*
G04 #@! TO.N,Net-(U3-Pad8)*
X112460000Y-116660000D03*
G04 #@! TO.P,U3,15*
G04 #@! TO.N,+3V3*
X120080000Y-101420000D03*
G04 #@! TO.P,U3,7*
G04 #@! TO.N,Net-(U3-Pad7)*
X112460000Y-114120000D03*
G04 #@! TO.P,U3,14*
G04 #@! TO.N,GND*
X120080000Y-103960000D03*
G04 #@! TO.P,U3,6*
G04 #@! TO.N,Net-(U3-Pad6)*
X112460000Y-111580000D03*
G04 #@! TO.P,U3,13*
G04 #@! TO.N,ADC_CLK*
X120080000Y-106500000D03*
G04 #@! TO.P,U3,5*
G04 #@! TO.N,Net-(U3-Pad5)*
X112460000Y-109040000D03*
G04 #@! TO.P,U3,12*
G04 #@! TO.N,ADC_DOUT*
X120080000Y-109040000D03*
G04 #@! TO.P,U3,4*
G04 #@! TO.N,Net-(U3-Pad4)*
X112460000Y-106500000D03*
G04 #@! TO.P,U3,11*
G04 #@! TO.N,ADC_DIN*
X120080000Y-111580000D03*
G04 #@! TO.P,U3,3*
G04 #@! TO.N,ADC3*
X112460000Y-103960000D03*
G04 #@! TO.P,U3,10*
G04 #@! TO.N,ADC_CS*
X120080000Y-114120000D03*
G04 #@! TO.P,U3,2*
G04 #@! TO.N,ADC2*
X112460000Y-101420000D03*
G04 #@! TO.P,U3,9*
G04 #@! TO.N,GND*
X120080000Y-116660000D03*
D11*
G04 #@! TO.P,U3,1*
G04 #@! TO.N,ADC1*
X112460000Y-98880000D03*
G04 #@! TD*
D13*
G04 #@! TO.P,J21,4*
G04 #@! TO.N,+5V*
X187390000Y-73480000D03*
G04 #@! TO.P,J21,3*
G04 #@! TO.N,Net-(J10-Pad8)*
X184850000Y-73480000D03*
G04 #@! TO.P,J21,2*
G04 #@! TO.N,Net-(J10-Pad10)*
X182310000Y-73480000D03*
D10*
G04 #@! TO.P,J21,1*
G04 #@! TO.N,GND*
X179770000Y-73480000D03*
G04 #@! TD*
D13*
G04 #@! TO.P,J20,10*
G04 #@! TO.N,GND*
X167070000Y-93800000D03*
G04 #@! TO.P,J20,9*
G04 #@! TO.N,Net-(J10-Pad40)*
X167070000Y-91260000D03*
G04 #@! TO.P,J20,8*
G04 #@! TO.N,Net-(J10-Pad28)*
X167070000Y-88720000D03*
G04 #@! TO.P,J20,7*
G04 #@! TO.N,Net-(J10-Pad27)*
X167070000Y-86180000D03*
G04 #@! TO.P,J20,6*
G04 #@! TO.N,Net-(J10-Pad23)*
X167070000Y-83640000D03*
G04 #@! TO.P,J20,5*
G04 #@! TO.N,Net-(J10-Pad19)*
X167070000Y-81100000D03*
G04 #@! TO.P,J20,4*
G04 #@! TO.N,Net-(J10-Pad21)*
X167070000Y-78560000D03*
G04 #@! TO.P,J20,3*
G04 #@! TO.N,Net-(J10-Pad24)*
X167070000Y-76020000D03*
G04 #@! TO.P,J20,2*
G04 #@! TO.N,+3V3*
X167070000Y-73480000D03*
D10*
G04 #@! TO.P,J20,1*
G04 #@! TO.N,+5V*
X167070000Y-70940000D03*
G04 #@! TD*
D13*
G04 #@! TO.P,J22,3*
G04 #@! TO.N,GND*
X99760000Y-63320000D03*
G04 #@! TO.P,J22,2*
G04 #@! TO.N,+3V3*
X99760000Y-60780000D03*
D10*
G04 #@! TO.P,J22,1*
G04 #@! TO.N,+5V*
X99760000Y-58240000D03*
G04 #@! TD*
D18*
G04 #@! TO.P,R9,2*
G04 #@! TO.N,Net-(J2-Pad1)*
X104840000Y-107770000D03*
D12*
G04 #@! TO.P,R9,1*
G04 #@! TO.N,Net-(J2-Pad3)*
X97220000Y-107770000D03*
G04 #@! TD*
G04 #@! TO.P,R10,1*
G04 #@! TO.N,Net-(J2-Pad2)*
X97220000Y-111580000D03*
D18*
G04 #@! TO.P,R10,2*
G04 #@! TO.N,Net-(R10-Pad2)*
X104840000Y-111580000D03*
G04 #@! TD*
D12*
G04 #@! TO.P,R11,1*
G04 #@! TO.N,+3V3*
X104840000Y-120470000D03*
D18*
G04 #@! TO.P,R11,2*
G04 #@! TO.N,ADC1*
X97220000Y-120470000D03*
G04 #@! TD*
G04 #@! TO.P,R12,2*
G04 #@! TO.N,ADC2*
X115635000Y-120470000D03*
D12*
G04 #@! TO.P,R12,1*
G04 #@! TO.N,+3V3*
X108015000Y-120470000D03*
G04 #@! TD*
D21*
G04 #@! TO.N,GND*
X130240000Y-69035000D03*
X156910000Y-74115000D03*
X160720014Y-60145000D03*
X115635000Y-67130000D03*
X126430000Y-79830000D03*
X142305000Y-60535010D03*
X118493912Y-97166088D03*
G04 #@! TO.N,CFH3*
X141921200Y-68905400D03*
G04 #@! TO.N,CFH2*
X140976200Y-69496400D03*
G04 #@! TO.N,CFH1*
X139361100Y-69567300D03*
G04 #@! TO.N,RL4*
X168182100Y-90176700D03*
G04 #@! TO.N,RL3*
X164803400Y-86191100D03*
G04 #@! TO.N,ADC_DOUT*
X163096200Y-72919700D03*
G04 #@! TD*
D22*
G04 #@! TO.N,GND*
X145412081Y-60780000D02*
X142305000Y-60780000D01*
X147385000Y-63955000D02*
X147385000Y-62752919D01*
X147385000Y-62752919D02*
X145412081Y-60780000D01*
X142305000Y-63955000D02*
X142305000Y-60780000D01*
X133482919Y-66495000D02*
X130942919Y-69035000D01*
X134685000Y-66495000D02*
X133482919Y-66495000D01*
X130942919Y-69035000D02*
X130240000Y-69035000D01*
X156910000Y-74115000D02*
X153100000Y-74115000D01*
X146115000Y-81100000D02*
X140400000Y-81100000D01*
X153100000Y-74115000D02*
X146115000Y-81100000D01*
X171515000Y-80465000D02*
X171515000Y-74750000D01*
X172785000Y-73480000D02*
X179770000Y-73480000D01*
X171515000Y-74750000D02*
X172785000Y-73480000D01*
X181320000Y-79910000D02*
X182310000Y-79910000D01*
X179770000Y-78360000D02*
X181320000Y-79910000D01*
X179770000Y-73480000D02*
X179770000Y-78360000D01*
X160085000Y-60780014D02*
X160720014Y-60145000D01*
X160085000Y-63955000D02*
X160085000Y-60780014D01*
X166435000Y-60145000D02*
X160720014Y-60145000D01*
X167705000Y-61415000D02*
X166435000Y-60145000D01*
X167705000Y-63955000D02*
X167705000Y-61415000D01*
X112460000Y-67130000D02*
X115635000Y-67130000D01*
X127700000Y-81100000D02*
X126430000Y-79830000D01*
X130240000Y-81100000D02*
X127700000Y-81100000D01*
X142305000Y-60780000D02*
X142305000Y-60535010D01*
X115892479Y-94599999D02*
X118458568Y-97166088D01*
X115839999Y-94599999D02*
X115892479Y-94599999D01*
X115040000Y-93800000D02*
X115839999Y-94599999D01*
X118458568Y-97166088D02*
X118493912Y-97166088D01*
D23*
G04 #@! TO.N,Net-(C3-Pad1)*
X150560000Y-100150000D02*
X149334700Y-100150000D01*
X149334700Y-100150000D02*
X149334700Y-100200000D01*
X149334700Y-100200000D02*
X131510000Y-118024700D01*
X131510000Y-118024700D02*
X129510300Y-116025000D01*
X129510300Y-116025000D02*
X128970000Y-116025000D01*
X131510000Y-119200000D02*
X131510000Y-118024700D01*
G04 #@! TO.N,Net-(C4-Pad1)*
X142940000Y-119200000D02*
X142940000Y-118024700D01*
X142940000Y-118024700D02*
X140400000Y-115484700D01*
X140400000Y-115484700D02*
X140400000Y-115390000D01*
D22*
G04 #@! TO.N,+5V*
X169610000Y-119200000D02*
X171285400Y-117524600D01*
X171285400Y-117524600D02*
X179364600Y-117524600D01*
X179364600Y-117524600D02*
X181040000Y-119200000D01*
X158180000Y-119200000D02*
X159856000Y-117524000D01*
X159856000Y-117524000D02*
X167934000Y-117524000D01*
X167934000Y-117524000D02*
X169610000Y-119200000D01*
X146750000Y-119200000D02*
X148430200Y-117519800D01*
X148430200Y-117519800D02*
X156499800Y-117519800D01*
X156499800Y-117519800D02*
X158180000Y-119200000D01*
X120080000Y-59510000D02*
X121350000Y-59510000D01*
X121350000Y-59510000D02*
X125160000Y-63320000D01*
X182310000Y-84910000D02*
X173460000Y-84910000D01*
X173460000Y-84910000D02*
X171515000Y-82965000D01*
X117540000Y-93800000D02*
X136590000Y-93800000D01*
X136590000Y-93800000D02*
X137860000Y-92530000D01*
X180405000Y-63955000D02*
X182945000Y-63955000D01*
X181040000Y-119200000D02*
X184700000Y-119200000D01*
X184700000Y-119200000D02*
X190420300Y-113479700D01*
X190420300Y-113479700D02*
X190420300Y-99370300D01*
X190420300Y-99370300D02*
X188660000Y-97610000D01*
D23*
G04 #@! TO.N,Net-(J2-Pad3)*
X121465000Y-129520000D02*
X121465000Y-127164700D01*
X97220000Y-107770000D02*
X104605000Y-115155000D01*
X104605000Y-115155000D02*
X107913300Y-115155000D01*
X107913300Y-115155000D02*
X119923000Y-127164700D01*
X119923000Y-127164700D02*
X121465000Y-127164700D01*
G04 #@! TO.N,Net-(J2-Pad2)*
X115099700Y-129520000D02*
X116465000Y-129520000D01*
X115099700Y-128824700D02*
X115099700Y-129520000D01*
X106589999Y-121154001D02*
X107330999Y-121895001D01*
X106589999Y-120314999D02*
X106589999Y-121154001D01*
X107330999Y-121895001D02*
X108170001Y-121895001D01*
X106265001Y-119990001D02*
X106589999Y-120314999D01*
X106265001Y-119785999D02*
X106265001Y-119990001D01*
X105319999Y-119044999D02*
X105524001Y-119044999D01*
X97220000Y-111580000D02*
X97855000Y-111580000D01*
X108170001Y-121895001D02*
X115099700Y-128824700D01*
X97855000Y-111580000D02*
X105319999Y-119044999D01*
X105524001Y-119044999D02*
X106265001Y-119785999D01*
G04 #@! TO.N,Net-(J2-Pad1)*
X97395600Y-105848400D02*
X99317100Y-107770000D01*
X99317100Y-107770000D02*
X104840000Y-107770000D01*
X120080000Y-67130000D02*
X113669200Y-73540800D01*
X113669200Y-73540800D02*
X101743100Y-73540800D01*
X101743100Y-73540800D02*
X96032700Y-79251200D01*
X96032700Y-79251200D02*
X96032700Y-104485600D01*
X96032700Y-104485600D02*
X97395600Y-105848400D01*
X101145001Y-118884003D02*
X109550998Y-127290000D01*
X111465000Y-128530000D02*
X111465000Y-129520000D01*
X100404001Y-115234999D02*
X101145001Y-115975999D01*
X96009900Y-107234100D02*
X96009900Y-112063900D01*
X109550998Y-127290000D02*
X110225000Y-127290000D01*
X96009900Y-112063900D02*
X99180999Y-115234999D01*
X97395600Y-105848400D02*
X96009900Y-107234100D01*
X99180999Y-115234999D02*
X100404001Y-115234999D01*
X110225000Y-127290000D02*
X111465000Y-128530000D01*
X101145001Y-115975999D02*
X101145001Y-118884003D01*
G04 #@! TO.N,CS1_5V*
X129285874Y-84910000D02*
X130704100Y-84910000D01*
X130704100Y-84910000D02*
X139174700Y-76439400D01*
X120080000Y-62050000D02*
X122514500Y-64484500D01*
X139174700Y-76439400D02*
X139174700Y-73605300D01*
X122514500Y-78138626D02*
X129285874Y-84910000D01*
X122514500Y-64484500D02*
X122514500Y-78138626D01*
X139174700Y-73605300D02*
X139300000Y-73480000D01*
X139300000Y-73480000D02*
X140400000Y-73480000D01*
G04 #@! TO.N,CS2_5V*
X120080000Y-81100000D02*
X122618700Y-81100000D01*
X122618700Y-81100000D02*
X128928300Y-87409600D01*
X128928300Y-87409600D02*
X130810500Y-87409600D01*
X130810500Y-87409600D02*
X135062300Y-83157800D01*
X135062300Y-83157800D02*
X135062300Y-81357700D01*
X135062300Y-81357700D02*
X140400000Y-76020000D01*
D22*
G04 #@! TO.N,+3V3*
X165344700Y-73480000D02*
X165344700Y-73364700D01*
X165344700Y-73364700D02*
X163612700Y-71632700D01*
X163612700Y-71632700D02*
X138892600Y-71632700D01*
X138892600Y-71632700D02*
X131965300Y-78560000D01*
X165344700Y-73480000D02*
X156404100Y-82420600D01*
X156404100Y-82420600D02*
X156404100Y-105994100D01*
X156404100Y-105994100D02*
X158180000Y-107770000D01*
X111270800Y-97178200D02*
X116702900Y-97178200D01*
X116702900Y-97178200D02*
X118404700Y-98880000D01*
X104840000Y-103960000D02*
X104840000Y-103609000D01*
X104840000Y-103609000D02*
X111270800Y-97178200D01*
X111270800Y-97178200D02*
X111270800Y-87506100D01*
X111270800Y-87506100D02*
X102650000Y-78885300D01*
X102650000Y-78885300D02*
X102140000Y-78885300D01*
X102140000Y-77020000D02*
X102140000Y-78885300D01*
X120080000Y-98880000D02*
X118404700Y-98880000D01*
X120080000Y-101420000D02*
X121755300Y-101420000D01*
X121755300Y-101420000D02*
X121755300Y-101825300D01*
X121755300Y-101825300D02*
X127700000Y-107770000D01*
X167070000Y-73480000D02*
X165344700Y-73480000D01*
X130240000Y-78560000D02*
X131965300Y-78560000D01*
D23*
G04 #@! TO.N,INC_5V*
X113673500Y-78560000D02*
X117483500Y-82370000D01*
X117483500Y-82370000D02*
X123138300Y-82370000D01*
X123138300Y-82370000D02*
X128678200Y-87909900D01*
X128678200Y-87909900D02*
X134904800Y-87909900D01*
X134904800Y-87909900D02*
X139174700Y-83640000D01*
X140400000Y-83640000D02*
X139174700Y-83640000D01*
X112460000Y-78560000D02*
X113673500Y-78560000D01*
G04 #@! TO.N,UD_5V*
X112460000Y-81100000D02*
X119770200Y-88410200D01*
X119770200Y-88410200D02*
X136944500Y-88410200D01*
X136944500Y-88410200D02*
X139174700Y-86180000D01*
X140400000Y-86180000D02*
X139174700Y-86180000D01*
G04 #@! TO.N,INC_3V*
X134202900Y-62701000D02*
X138511000Y-62701000D01*
X125160000Y-71743900D02*
X134202900Y-62701000D01*
X125160000Y-80077004D02*
X125160000Y-71743900D01*
X138511000Y-62701000D02*
X138915001Y-63105001D01*
X128722996Y-83640000D02*
X125160000Y-80077004D01*
X138915001Y-63105001D02*
X139765000Y-63955000D01*
X130240000Y-83640000D02*
X128722996Y-83640000D01*
G04 #@! TO.N,CS2_3V*
X130240000Y-76020000D02*
X131465300Y-76020000D01*
X131465300Y-76020000D02*
X139592400Y-67892900D01*
X139592400Y-67892900D02*
X140171100Y-67892900D01*
X140171100Y-67892900D02*
X140990400Y-67073600D01*
X140990400Y-67073600D02*
X140990400Y-65978500D01*
X140990400Y-65978500D02*
X140236900Y-65225000D01*
X140236900Y-65225000D02*
X138495000Y-65225000D01*
X138495000Y-65225000D02*
X137225000Y-63955000D01*
G04 #@! TO.N,CS1_3V*
X138539700Y-66495000D02*
X138539700Y-67002800D01*
X138539700Y-67002800D02*
X132062500Y-73480000D01*
X132062500Y-73480000D02*
X130240000Y-73480000D01*
X139765000Y-66495000D02*
X138539700Y-66495000D01*
G04 #@! TO.N,CFH3*
X143619700Y-66495000D02*
X143619700Y-67206900D01*
X143619700Y-67206900D02*
X141921200Y-68905400D01*
X144845000Y-66495000D02*
X143619700Y-66495000D01*
G04 #@! TO.N,CFH2*
X140976200Y-69496400D02*
X141167800Y-69688000D01*
X141167800Y-69688000D02*
X143450800Y-69688000D01*
X143450800Y-69688000D02*
X146159700Y-66979100D01*
X146159700Y-66979100D02*
X146159700Y-66495000D01*
X147385000Y-66495000D02*
X146159700Y-66495000D01*
G04 #@! TO.N,CFH1*
X161212013Y-58484999D02*
X169130899Y-58484999D01*
X174475001Y-65645001D02*
X175325000Y-66495000D01*
X174055000Y-63409100D02*
X174055000Y-65225000D01*
X160227998Y-58484988D02*
X161212002Y-58484988D01*
X153006000Y-70271800D02*
X156275000Y-67002800D01*
X161212002Y-58484988D02*
X161212013Y-58484999D01*
X139361100Y-69567300D02*
X140065600Y-70271800D01*
X156275000Y-62437986D02*
X160227998Y-58484988D01*
X169130899Y-58484999D02*
X174055000Y-63409100D01*
X174055000Y-65225000D02*
X174475001Y-65645001D01*
X156275000Y-67002800D02*
X156275000Y-62437986D01*
X140065600Y-70271800D02*
X153006000Y-70271800D01*
G04 #@! TO.N,RL4*
X188660000Y-107770000D02*
X187434700Y-107770000D01*
X187434700Y-107770000D02*
X187434700Y-107310500D01*
X187434700Y-107310500D02*
X181544200Y-101420000D01*
X181544200Y-101420000D02*
X179425400Y-101420000D01*
X179425400Y-101420000D02*
X168182100Y-90176700D01*
G04 #@! TO.N,RL3*
X188660000Y-105230000D02*
X187434700Y-105230000D01*
X187434700Y-105230000D02*
X187434700Y-104770500D01*
X187434700Y-104770500D02*
X181499600Y-98835400D01*
X181499600Y-98835400D02*
X179959600Y-98835400D01*
X179959600Y-98835400D02*
X168618800Y-87494600D01*
X168618800Y-87494600D02*
X166106900Y-87494600D01*
X166106900Y-87494600D02*
X164803400Y-86191100D01*
G04 #@! TO.N,DS18B20*
X111378598Y-58240000D02*
X113655000Y-58240000D01*
X111246799Y-58371799D02*
X111378598Y-58240000D01*
X111246799Y-59453201D02*
X111246799Y-58371799D01*
X99760000Y-70940000D02*
X111246799Y-59453201D01*
X97220000Y-70940000D02*
X99760000Y-70940000D01*
X151239700Y-63447200D02*
X151239700Y-63955000D01*
X147302500Y-59510000D02*
X151239700Y-63447200D01*
X122764227Y-59510000D02*
X147302500Y-59510000D01*
X151239700Y-63955000D02*
X152465000Y-63955000D01*
X121764217Y-58509990D02*
X122764227Y-59510000D01*
X120782337Y-58046799D02*
X121245528Y-58509990D01*
X121245528Y-58509990D02*
X121764217Y-58509990D01*
X118616799Y-58046799D02*
X120782337Y-58046799D01*
X118616799Y-58240000D02*
X118616799Y-58046799D01*
X113673201Y-58240000D02*
X118616799Y-58240000D01*
G04 #@! TO.N,ADC_DOUT*
X120080000Y-109040000D02*
X121255300Y-109040000D01*
X121255300Y-109040000D02*
X124010600Y-111795300D01*
X124010600Y-111795300D02*
X128302500Y-111795300D01*
X128302500Y-111795300D02*
X141875400Y-98222400D01*
X141875400Y-98222400D02*
X141875400Y-94140500D01*
X141875400Y-94140500D02*
X163096200Y-72919700D01*
G04 #@! TO.N,Net-(J10-Pad21)*
X158770300Y-66495000D02*
X158770300Y-67002800D01*
X158770300Y-67002800D02*
X161018100Y-69250600D01*
X161018100Y-69250600D02*
X168036600Y-69250600D01*
X168036600Y-69250600D02*
X168599000Y-69813000D01*
X168599000Y-69813000D02*
X168599000Y-76265200D01*
X168599000Y-76265200D02*
X167529500Y-77334700D01*
X167529500Y-77334700D02*
X167070000Y-77334700D01*
X157545000Y-66495000D02*
X158770300Y-66495000D01*
X167070000Y-78560000D02*
X167070000Y-77334700D01*
G04 #@! TO.N,Net-(J10-Pad19)*
X161310300Y-66495000D02*
X161310300Y-67002800D01*
X161310300Y-67002800D02*
X163057700Y-68750200D01*
X163057700Y-68750200D02*
X168244000Y-68750200D01*
X168244000Y-68750200D02*
X169100600Y-69606800D01*
X169100600Y-69606800D02*
X169100600Y-78303600D01*
X169100600Y-78303600D02*
X167529500Y-79874700D01*
X167529500Y-79874700D02*
X167070000Y-79874700D01*
X160085000Y-66495000D02*
X161310300Y-66495000D01*
X167070000Y-81100000D02*
X167070000Y-79874700D01*
G04 #@! TO.N,ZV1*
X166390300Y-66495000D02*
X166390300Y-67002800D01*
X166390300Y-67002800D02*
X167137100Y-67749600D01*
X167137100Y-67749600D02*
X167951100Y-67749600D01*
X167951100Y-67749600D02*
X169601900Y-69400400D01*
X169601900Y-69400400D02*
X169601900Y-78615500D01*
X169601900Y-78615500D02*
X168850500Y-79366900D01*
X168850500Y-79366900D02*
X168850500Y-81076700D01*
X168850500Y-81076700D02*
X167557200Y-82370000D01*
X167557200Y-82370000D02*
X166606100Y-82370000D01*
X166606100Y-82370000D02*
X158180000Y-90796100D01*
X158180000Y-90796100D02*
X158180000Y-97610000D01*
X165165000Y-66495000D02*
X166390300Y-66495000D01*
G04 #@! TO.N,ADC_CS*
X120080000Y-114120000D02*
X122225000Y-114120000D01*
X122225000Y-114120000D02*
X128773800Y-120668800D01*
X128773800Y-120668800D02*
X143175200Y-120668800D01*
X143175200Y-120668800D02*
X146515600Y-117328400D01*
X146515600Y-117328400D02*
X146515600Y-116168300D01*
X146515600Y-116168300D02*
X149379200Y-113304700D01*
X149379200Y-113304700D02*
X157273000Y-113304700D01*
X157273000Y-113304700D02*
X163445800Y-107131900D01*
X163445800Y-107131900D02*
X163445800Y-86402100D01*
X163445800Y-86402100D02*
X164937900Y-84910000D01*
X164937900Y-84910000D02*
X167564300Y-84910000D01*
X167564300Y-84910000D02*
X170008400Y-82465900D01*
X170008400Y-82465900D02*
X170008400Y-79229400D01*
X170008400Y-79229400D02*
X170122200Y-79115600D01*
X170122200Y-79115600D02*
X170122200Y-68912200D01*
X170122200Y-68912200D02*
X167705000Y-66495000D01*
G04 #@! TO.N,RL2*
X177865000Y-66495000D02*
X179090300Y-66495000D01*
X188660000Y-102690000D02*
X188660000Y-101464700D01*
X188660000Y-101464700D02*
X188229200Y-101464700D01*
X188229200Y-101464700D02*
X187166700Y-100402200D01*
X187166700Y-100402200D02*
X187166700Y-75913900D01*
X187166700Y-75913900D02*
X188868400Y-74212200D01*
X188868400Y-74212200D02*
X188868400Y-72843500D01*
X188868400Y-72843500D02*
X187761000Y-71736100D01*
X187761000Y-71736100D02*
X183823600Y-71736100D01*
X183823600Y-71736100D02*
X179090300Y-67002800D01*
X179090300Y-67002800D02*
X179090300Y-66495000D01*
G04 #@! TO.N,ADC3*
X97220000Y-103960000D02*
X98395300Y-103960000D01*
X112460000Y-103960000D02*
X111284700Y-103960000D01*
X111284700Y-103960000D02*
X109853500Y-105391200D01*
X109853500Y-105391200D02*
X99826500Y-105391200D01*
X99826500Y-105391200D02*
X98395300Y-103960000D01*
G04 #@! TO.N,Net-(J10-Pad8)*
X175325000Y-63955000D02*
X175325000Y-65180300D01*
X184850000Y-73480000D02*
X183624700Y-73480000D01*
X183624700Y-73480000D02*
X183624700Y-73020400D01*
X183624700Y-73020400D02*
X182859000Y-72254700D01*
X182859000Y-72254700D02*
X181884500Y-72254700D01*
X181884500Y-72254700D02*
X176595000Y-66965200D01*
X176595000Y-66965200D02*
X176595000Y-65942500D01*
X176595000Y-65942500D02*
X175832800Y-65180300D01*
X175832800Y-65180300D02*
X175325000Y-65180300D01*
G04 #@! TD*
M02*
