G04 #@! TF.GenerationSoftware,KiCad,Pcbnew,(5.0.0-3-g5ebb6b6)*
G04 #@! TF.CreationDate,2018-09-26T10:49:06+01:00*
G04 #@! TF.ProjectId,rPIHeatingController,72504948656174696E67436F6E74726F,rev?*
G04 #@! TF.SameCoordinates,Original*
G04 #@! TF.FileFunction,Legend,Top*
G04 #@! TF.FilePolarity,Positive*
%FSLAX46Y46*%
G04 Gerber Fmt 4.6, Leading zero omitted, Abs format (unit mm)*
G04 Created by KiCad (PCBNEW (5.0.0-3-g5ebb6b6)) date Wednesday, 26 September 2018 at 10:49:06*
%MOMM*%
%LPD*%
G01*
G04 APERTURE LIST*
%ADD10C,0.300000*%
%ADD11C,0.150000*%
%ADD12C,0.400000*%
%ADD13C,0.200000*%
%ADD14C,0.120000*%
%ADD15C,0.152400*%
%ADD16C,0.050000*%
G04 APERTURE END LIST*
D10*
X101165000Y-136793571D02*
X102093571Y-136793571D01*
X101593571Y-137365000D01*
X101807857Y-137365000D01*
X101950714Y-137436428D01*
X102022142Y-137507857D01*
X102093571Y-137650714D01*
X102093571Y-138007857D01*
X102022142Y-138150714D01*
X101950714Y-138222142D01*
X101807857Y-138293571D01*
X101379285Y-138293571D01*
X101236428Y-138222142D01*
X101165000Y-138150714D01*
D11*
X172150000Y-138250000D02*
X173420000Y-138250000D01*
X172150000Y-136980000D02*
X172150000Y-138250000D01*
X173420000Y-138250000D02*
X175325000Y-136980000D01*
X177230000Y-138250000D02*
X177230000Y-136980000D01*
X175325000Y-138250000D02*
X177230000Y-138250000D01*
X182310000Y-136980000D02*
X182310000Y-138250000D01*
X183580000Y-138250000D02*
X185485000Y-136980000D01*
X187390000Y-138250000D02*
X187390000Y-136980000D01*
X185485000Y-138250000D02*
X187390000Y-138250000D01*
X182310000Y-138250000D02*
X183580000Y-138250000D01*
X161990000Y-136980000D02*
X161990000Y-138250000D01*
X163260000Y-138250000D02*
X165165000Y-136980000D01*
X167070000Y-138250000D02*
X167070000Y-136980000D01*
X165165000Y-138250000D02*
X167070000Y-138250000D01*
X161990000Y-138250000D02*
X163260000Y-138250000D01*
X155005000Y-138250000D02*
X155005000Y-136980000D01*
X149925000Y-136980000D02*
X149925000Y-138250000D01*
X151195000Y-138250000D02*
X153100000Y-136980000D01*
X149925000Y-138250000D02*
X151195000Y-138250000D01*
X153100000Y-138250000D02*
X155005000Y-138250000D01*
X144845000Y-138250000D02*
X144845000Y-136980000D01*
X139765000Y-136980000D02*
X139765000Y-138250000D01*
X141035000Y-138250000D02*
X142940000Y-136980000D01*
X139765000Y-138250000D02*
X141035000Y-138250000D01*
X142940000Y-138250000D02*
X144845000Y-138250000D01*
X134685000Y-138250000D02*
X134685000Y-136980000D01*
X132780000Y-138250000D02*
X134685000Y-138250000D01*
X130875000Y-138250000D02*
X132780000Y-136980000D01*
X129605000Y-138250000D02*
X130875000Y-138250000D01*
X129605000Y-136980000D02*
X129605000Y-138250000D01*
D10*
X116405000Y-136793571D02*
X117333571Y-136793571D01*
X116833571Y-137365000D01*
X117047857Y-137365000D01*
X117190714Y-137436428D01*
X117262142Y-137507857D01*
X117333571Y-137650714D01*
X117333571Y-138007857D01*
X117262142Y-138150714D01*
X117190714Y-138222142D01*
X117047857Y-138293571D01*
X116619285Y-138293571D01*
X116476428Y-138222142D01*
X116405000Y-138150714D01*
X106864285Y-59958571D02*
X107792857Y-59958571D01*
X107292857Y-60530000D01*
X107507142Y-60530000D01*
X107650000Y-60601428D01*
X107721428Y-60672857D01*
X107792857Y-60815714D01*
X107792857Y-61172857D01*
X107721428Y-61315714D01*
X107650000Y-61387142D01*
X107507142Y-61458571D01*
X107078571Y-61458571D01*
X106935714Y-61387142D01*
X106864285Y-61315714D01*
X108292857Y-60458571D02*
X108650000Y-61458571D01*
X109007142Y-60458571D01*
X109435714Y-59958571D02*
X110364285Y-59958571D01*
X109864285Y-60530000D01*
X110078571Y-60530000D01*
X110221428Y-60601428D01*
X110292857Y-60672857D01*
X110364285Y-60815714D01*
X110364285Y-61172857D01*
X110292857Y-61315714D01*
X110221428Y-61387142D01*
X110078571Y-61458571D01*
X109650000Y-61458571D01*
X109507142Y-61387142D01*
X109435714Y-61315714D01*
X102292142Y-66308571D02*
X102435000Y-66308571D01*
X102577857Y-66380000D01*
X102649285Y-66451428D01*
X102720714Y-66594285D01*
X102792142Y-66880000D01*
X102792142Y-67237142D01*
X102720714Y-67522857D01*
X102649285Y-67665714D01*
X102577857Y-67737142D01*
X102435000Y-67808571D01*
X102292142Y-67808571D01*
X102149285Y-67737142D01*
X102077857Y-67665714D01*
X102006428Y-67522857D01*
X101935000Y-67237142D01*
X101935000Y-66880000D01*
X102006428Y-66594285D01*
X102077857Y-66451428D01*
X102149285Y-66380000D01*
X102292142Y-66308571D01*
X103292142Y-66808571D02*
X103649285Y-67808571D01*
X104006428Y-66808571D01*
X107800714Y-54878571D02*
X107086428Y-54878571D01*
X107015000Y-55592857D01*
X107086428Y-55521428D01*
X107229285Y-55450000D01*
X107586428Y-55450000D01*
X107729285Y-55521428D01*
X107800714Y-55592857D01*
X107872142Y-55735714D01*
X107872142Y-56092857D01*
X107800714Y-56235714D01*
X107729285Y-56307142D01*
X107586428Y-56378571D01*
X107229285Y-56378571D01*
X107086428Y-56307142D01*
X107015000Y-56235714D01*
X108372142Y-55378571D02*
X108729285Y-56378571D01*
X109086428Y-55378571D01*
D12*
X146639523Y-82414761D02*
X146639523Y-80414761D01*
X146639523Y-81367142D02*
X147782380Y-81367142D01*
X147782380Y-82414761D02*
X147782380Y-80414761D01*
X149496666Y-82319523D02*
X149306190Y-82414761D01*
X148925238Y-82414761D01*
X148734761Y-82319523D01*
X148639523Y-82129047D01*
X148639523Y-81367142D01*
X148734761Y-81176666D01*
X148925238Y-81081428D01*
X149306190Y-81081428D01*
X149496666Y-81176666D01*
X149591904Y-81367142D01*
X149591904Y-81557619D01*
X148639523Y-81748095D01*
X151306190Y-82414761D02*
X151306190Y-81367142D01*
X151210952Y-81176666D01*
X151020476Y-81081428D01*
X150639523Y-81081428D01*
X150449047Y-81176666D01*
X151306190Y-82319523D02*
X151115714Y-82414761D01*
X150639523Y-82414761D01*
X150449047Y-82319523D01*
X150353809Y-82129047D01*
X150353809Y-81938571D01*
X150449047Y-81748095D01*
X150639523Y-81652857D01*
X151115714Y-81652857D01*
X151306190Y-81557619D01*
X151972857Y-81081428D02*
X152734761Y-81081428D01*
X152258571Y-80414761D02*
X152258571Y-82129047D01*
X152353809Y-82319523D01*
X152544285Y-82414761D01*
X152734761Y-82414761D01*
X153401428Y-82414761D02*
X153401428Y-81081428D01*
X153401428Y-80414761D02*
X153306190Y-80510000D01*
X153401428Y-80605238D01*
X153496666Y-80510000D01*
X153401428Y-80414761D01*
X153401428Y-80605238D01*
X154353809Y-81081428D02*
X154353809Y-82414761D01*
X154353809Y-81271904D02*
X154449047Y-81176666D01*
X154639523Y-81081428D01*
X154925238Y-81081428D01*
X155115714Y-81176666D01*
X155210952Y-81367142D01*
X155210952Y-82414761D01*
X157020476Y-81081428D02*
X157020476Y-82700476D01*
X156925238Y-82890952D01*
X156830000Y-82986190D01*
X156639523Y-83081428D01*
X156353809Y-83081428D01*
X156163333Y-82986190D01*
X157020476Y-82319523D02*
X156830000Y-82414761D01*
X156449047Y-82414761D01*
X156258571Y-82319523D01*
X156163333Y-82224285D01*
X156068095Y-82033809D01*
X156068095Y-81462380D01*
X156163333Y-81271904D01*
X156258571Y-81176666D01*
X156449047Y-81081428D01*
X156830000Y-81081428D01*
X157020476Y-81176666D01*
X146020476Y-85624285D02*
X145925238Y-85719523D01*
X145639523Y-85814761D01*
X145449047Y-85814761D01*
X145163333Y-85719523D01*
X144972857Y-85529047D01*
X144877619Y-85338571D01*
X144782380Y-84957619D01*
X144782380Y-84671904D01*
X144877619Y-84290952D01*
X144972857Y-84100476D01*
X145163333Y-83910000D01*
X145449047Y-83814761D01*
X145639523Y-83814761D01*
X145925238Y-83910000D01*
X146020476Y-84005238D01*
X147163333Y-85814761D02*
X146972857Y-85719523D01*
X146877619Y-85624285D01*
X146782380Y-85433809D01*
X146782380Y-84862380D01*
X146877619Y-84671904D01*
X146972857Y-84576666D01*
X147163333Y-84481428D01*
X147449047Y-84481428D01*
X147639523Y-84576666D01*
X147734761Y-84671904D01*
X147830000Y-84862380D01*
X147830000Y-85433809D01*
X147734761Y-85624285D01*
X147639523Y-85719523D01*
X147449047Y-85814761D01*
X147163333Y-85814761D01*
X148687142Y-84481428D02*
X148687142Y-85814761D01*
X148687142Y-84671904D02*
X148782380Y-84576666D01*
X148972857Y-84481428D01*
X149258571Y-84481428D01*
X149449047Y-84576666D01*
X149544285Y-84767142D01*
X149544285Y-85814761D01*
X150210952Y-84481428D02*
X150972857Y-84481428D01*
X150496666Y-83814761D02*
X150496666Y-85529047D01*
X150591904Y-85719523D01*
X150782380Y-85814761D01*
X150972857Y-85814761D01*
X151639523Y-85814761D02*
X151639523Y-84481428D01*
X151639523Y-84862380D02*
X151734761Y-84671904D01*
X151830000Y-84576666D01*
X152020476Y-84481428D01*
X152210952Y-84481428D01*
X153163333Y-85814761D02*
X152972857Y-85719523D01*
X152877619Y-85624285D01*
X152782380Y-85433809D01*
X152782380Y-84862380D01*
X152877619Y-84671904D01*
X152972857Y-84576666D01*
X153163333Y-84481428D01*
X153449047Y-84481428D01*
X153639523Y-84576666D01*
X153734761Y-84671904D01*
X153830000Y-84862380D01*
X153830000Y-85433809D01*
X153734761Y-85624285D01*
X153639523Y-85719523D01*
X153449047Y-85814761D01*
X153163333Y-85814761D01*
X154972857Y-85814761D02*
X154782380Y-85719523D01*
X154687142Y-85529047D01*
X154687142Y-83814761D01*
X156020476Y-85814761D02*
X155830000Y-85719523D01*
X155734761Y-85529047D01*
X155734761Y-83814761D01*
X157544285Y-85719523D02*
X157353809Y-85814761D01*
X156972857Y-85814761D01*
X156782380Y-85719523D01*
X156687142Y-85529047D01*
X156687142Y-84767142D01*
X156782380Y-84576666D01*
X156972857Y-84481428D01*
X157353809Y-84481428D01*
X157544285Y-84576666D01*
X157639523Y-84767142D01*
X157639523Y-84957619D01*
X156687142Y-85148095D01*
X158496666Y-85814761D02*
X158496666Y-84481428D01*
X158496666Y-84862380D02*
X158591904Y-84671904D01*
X158687142Y-84576666D01*
X158877619Y-84481428D01*
X159068095Y-84481428D01*
X147258571Y-87214761D02*
X147925238Y-89214761D01*
X148591904Y-87214761D01*
X151830000Y-89214761D02*
X150687142Y-89214761D01*
X151258571Y-89214761D02*
X151258571Y-87214761D01*
X151068095Y-87500476D01*
X150877619Y-87690952D01*
X150687142Y-87786190D01*
X152687142Y-89024285D02*
X152782380Y-89119523D01*
X152687142Y-89214761D01*
X152591904Y-89119523D01*
X152687142Y-89024285D01*
X152687142Y-89214761D01*
X154020476Y-87214761D02*
X154210952Y-87214761D01*
X154401428Y-87310000D01*
X154496666Y-87405238D01*
X154591904Y-87595714D01*
X154687142Y-87976666D01*
X154687142Y-88452857D01*
X154591904Y-88833809D01*
X154496666Y-89024285D01*
X154401428Y-89119523D01*
X154210952Y-89214761D01*
X154020476Y-89214761D01*
X153830000Y-89119523D01*
X153734761Y-89024285D01*
X153639523Y-88833809D01*
X153544285Y-88452857D01*
X153544285Y-87976666D01*
X153639523Y-87595714D01*
X153734761Y-87405238D01*
X153830000Y-87310000D01*
X154020476Y-87214761D01*
D10*
X95501428Y-104286428D02*
X94430000Y-104286428D01*
X94215714Y-104215000D01*
X94072857Y-104072142D01*
X94001428Y-103857857D01*
X94001428Y-103715000D01*
X94001428Y-106857857D02*
X94001428Y-106143571D01*
X95501428Y-106143571D01*
X94001428Y-107357857D02*
X95001428Y-107357857D01*
X95501428Y-107357857D02*
X95430000Y-107286428D01*
X95358571Y-107357857D01*
X95430000Y-107429285D01*
X95501428Y-107357857D01*
X95358571Y-107357857D01*
X94001428Y-108715000D02*
X95501428Y-108715000D01*
X94072857Y-108715000D02*
X94001428Y-108572142D01*
X94001428Y-108286428D01*
X94072857Y-108143571D01*
X94144285Y-108072142D01*
X94287142Y-108000714D01*
X94715714Y-108000714D01*
X94858571Y-108072142D01*
X94930000Y-108143571D01*
X95001428Y-108286428D01*
X95001428Y-108572142D01*
X94930000Y-108715000D01*
X95001428Y-110072142D02*
X93787142Y-110072142D01*
X93644285Y-110000714D01*
X93572857Y-109929285D01*
X93501428Y-109786428D01*
X93501428Y-109572142D01*
X93572857Y-109429285D01*
X94072857Y-110072142D02*
X94001428Y-109929285D01*
X94001428Y-109643571D01*
X94072857Y-109500714D01*
X94144285Y-109429285D01*
X94287142Y-109357857D01*
X94715714Y-109357857D01*
X94858571Y-109429285D01*
X94930000Y-109500714D01*
X95001428Y-109643571D01*
X95001428Y-109929285D01*
X94930000Y-110072142D01*
X94001428Y-111429285D02*
X94787142Y-111429285D01*
X94930000Y-111357857D01*
X95001428Y-111215000D01*
X95001428Y-110929285D01*
X94930000Y-110786428D01*
X94072857Y-111429285D02*
X94001428Y-111286428D01*
X94001428Y-110929285D01*
X94072857Y-110786428D01*
X94215714Y-110715000D01*
X94358571Y-110715000D01*
X94501428Y-110786428D01*
X94572857Y-110929285D01*
X94572857Y-111286428D01*
X94644285Y-111429285D01*
X94001428Y-112143571D02*
X95001428Y-112143571D01*
X94715714Y-112143571D02*
X94858571Y-112215000D01*
X94930000Y-112286428D01*
X95001428Y-112429285D01*
X95001428Y-112572142D01*
X94001428Y-113715000D02*
X95501428Y-113715000D01*
X94072857Y-113715000D02*
X94001428Y-113572142D01*
X94001428Y-113286428D01*
X94072857Y-113143571D01*
X94144285Y-113072142D01*
X94287142Y-113000714D01*
X94715714Y-113000714D01*
X94858571Y-113072142D01*
X94930000Y-113143571D01*
X95001428Y-113286428D01*
X95001428Y-113572142D01*
X94930000Y-113715000D01*
X95358571Y-115500714D02*
X95430000Y-115572142D01*
X95501428Y-115715000D01*
X95501428Y-116072142D01*
X95430000Y-116215000D01*
X95358571Y-116286428D01*
X95215714Y-116357857D01*
X95072857Y-116357857D01*
X94858571Y-116286428D01*
X94001428Y-115429285D01*
X94001428Y-116357857D01*
X95501428Y-117286428D02*
X95501428Y-117429285D01*
X95430000Y-117572142D01*
X95358571Y-117643571D01*
X95215714Y-117715000D01*
X94930000Y-117786428D01*
X94572857Y-117786428D01*
X94287142Y-117715000D01*
X94144285Y-117643571D01*
X94072857Y-117572142D01*
X94001428Y-117429285D01*
X94001428Y-117286428D01*
X94072857Y-117143571D01*
X94144285Y-117072142D01*
X94287142Y-117000714D01*
X94572857Y-116929285D01*
X94930000Y-116929285D01*
X95215714Y-117000714D01*
X95358571Y-117072142D01*
X95430000Y-117143571D01*
X95501428Y-117286428D01*
X94001428Y-119215000D02*
X94001428Y-118357857D01*
X94001428Y-118786428D02*
X95501428Y-118786428D01*
X95287142Y-118643571D01*
X95144285Y-118500714D01*
X95072857Y-118357857D01*
X94858571Y-120072142D02*
X94930000Y-119929285D01*
X95001428Y-119857857D01*
X95144285Y-119786428D01*
X95215714Y-119786428D01*
X95358571Y-119857857D01*
X95430000Y-119929285D01*
X95501428Y-120072142D01*
X95501428Y-120357857D01*
X95430000Y-120500714D01*
X95358571Y-120572142D01*
X95215714Y-120643571D01*
X95144285Y-120643571D01*
X95001428Y-120572142D01*
X94930000Y-120500714D01*
X94858571Y-120357857D01*
X94858571Y-120072142D01*
X94787142Y-119929285D01*
X94715714Y-119857857D01*
X94572857Y-119786428D01*
X94287142Y-119786428D01*
X94144285Y-119857857D01*
X94072857Y-119929285D01*
X94001428Y-120072142D01*
X94001428Y-120357857D01*
X94072857Y-120500714D01*
X94144285Y-120572142D01*
X94287142Y-120643571D01*
X94572857Y-120643571D01*
X94715714Y-120572142D01*
X94787142Y-120500714D01*
X94858571Y-120357857D01*
D13*
X104140000Y-109520000D02*
G75*
G03X104140000Y-109520000I-2000000J0D01*
G01*
D10*
X97406428Y-58994285D02*
X97406428Y-59922857D01*
X96835000Y-59422857D01*
X96835000Y-59637142D01*
X96763571Y-59780000D01*
X96692142Y-59851428D01*
X96549285Y-59922857D01*
X96192142Y-59922857D01*
X96049285Y-59851428D01*
X95977857Y-59780000D01*
X95906428Y-59637142D01*
X95906428Y-59208571D01*
X95977857Y-59065714D01*
X96049285Y-58994285D01*
X96906428Y-60422857D02*
X95906428Y-60780000D01*
X96906428Y-61137142D01*
X97406428Y-61565714D02*
X97406428Y-62494285D01*
X96835000Y-61994285D01*
X96835000Y-62208571D01*
X96763571Y-62351428D01*
X96692142Y-62422857D01*
X96549285Y-62494285D01*
X96192142Y-62494285D01*
X96049285Y-62422857D01*
X95977857Y-62351428D01*
X95906428Y-62208571D01*
X95906428Y-61780000D01*
X95977857Y-61637142D01*
X96049285Y-61565714D01*
X151231428Y-70983571D02*
X151231428Y-69483571D01*
X151802857Y-69483571D01*
X151945714Y-69555000D01*
X152017142Y-69626428D01*
X152088571Y-69769285D01*
X152088571Y-69983571D01*
X152017142Y-70126428D01*
X151945714Y-70197857D01*
X151802857Y-70269285D01*
X151231428Y-70269285D01*
X152731428Y-70983571D02*
X152731428Y-69483571D01*
X154445714Y-69483571D02*
X155445714Y-69483571D01*
X154445714Y-70983571D01*
X155445714Y-70983571D01*
X156017142Y-70197857D02*
X156517142Y-70197857D01*
X156731428Y-70983571D02*
X156017142Y-70983571D01*
X156017142Y-69483571D01*
X156731428Y-69483571D01*
X158231428Y-70983571D02*
X157731428Y-70269285D01*
X157374285Y-70983571D02*
X157374285Y-69483571D01*
X157945714Y-69483571D01*
X158088571Y-69555000D01*
X158160000Y-69626428D01*
X158231428Y-69769285D01*
X158231428Y-69983571D01*
X158160000Y-70126428D01*
X158088571Y-70197857D01*
X157945714Y-70269285D01*
X157374285Y-70269285D01*
X159160000Y-69483571D02*
X159445714Y-69483571D01*
X159588571Y-69555000D01*
X159731428Y-69697857D01*
X159802857Y-69983571D01*
X159802857Y-70483571D01*
X159731428Y-70769285D01*
X159588571Y-70912142D01*
X159445714Y-70983571D01*
X159160000Y-70983571D01*
X159017142Y-70912142D01*
X158874285Y-70769285D01*
X158802857Y-70483571D01*
X158802857Y-69983571D01*
X158874285Y-69697857D01*
X159017142Y-69555000D01*
X159160000Y-69483571D01*
X161445714Y-69483571D02*
X161802857Y-70983571D01*
X162088571Y-69912142D01*
X162374285Y-70983571D01*
X162731428Y-69483571D01*
X163152857Y-87592142D02*
X163152857Y-87092142D01*
X163938571Y-86877857D02*
X163938571Y-87592142D01*
X162438571Y-87592142D01*
X162438571Y-86877857D01*
X162438571Y-86377857D02*
X163938571Y-85377857D01*
X162438571Y-85377857D02*
X163938571Y-86377857D01*
X163938571Y-84806428D02*
X162438571Y-84806428D01*
X162438571Y-84235000D01*
X162510000Y-84092142D01*
X162581428Y-84020714D01*
X162724285Y-83949285D01*
X162938571Y-83949285D01*
X163081428Y-84020714D01*
X163152857Y-84092142D01*
X163224285Y-84235000D01*
X163224285Y-84806428D01*
X163510000Y-83377857D02*
X163510000Y-82663571D01*
X163938571Y-83520714D02*
X162438571Y-83020714D01*
X163938571Y-82520714D01*
X163938571Y-82020714D02*
X162438571Y-82020714D01*
X163938571Y-81163571D01*
X162438571Y-81163571D01*
X163867142Y-80520714D02*
X163938571Y-80306428D01*
X163938571Y-79949285D01*
X163867142Y-79806428D01*
X163795714Y-79735000D01*
X163652857Y-79663571D01*
X163510000Y-79663571D01*
X163367142Y-79735000D01*
X163295714Y-79806428D01*
X163224285Y-79949285D01*
X163152857Y-80235000D01*
X163081428Y-80377857D01*
X163010000Y-80449285D01*
X162867142Y-80520714D01*
X162724285Y-80520714D01*
X162581428Y-80449285D01*
X162510000Y-80377857D01*
X162438571Y-80235000D01*
X162438571Y-79877857D01*
X162510000Y-79663571D01*
X163938571Y-79020714D02*
X162438571Y-79020714D01*
X162438571Y-78020714D02*
X162438571Y-77735000D01*
X162510000Y-77592142D01*
X162652857Y-77449285D01*
X162938571Y-77377857D01*
X163438571Y-77377857D01*
X163724285Y-77449285D01*
X163867142Y-77592142D01*
X163938571Y-77735000D01*
X163938571Y-78020714D01*
X163867142Y-78163571D01*
X163724285Y-78306428D01*
X163438571Y-78377857D01*
X162938571Y-78377857D01*
X162652857Y-78306428D01*
X162510000Y-78163571D01*
X162438571Y-78020714D01*
X163938571Y-76735000D02*
X162438571Y-76735000D01*
X163938571Y-75877857D01*
X162438571Y-75877857D01*
X134723571Y-82671428D02*
X134723571Y-83385714D01*
X133223571Y-83385714D01*
X133937857Y-82171428D02*
X133937857Y-81671428D01*
X134723571Y-81457142D02*
X134723571Y-82171428D01*
X133223571Y-82171428D01*
X133223571Y-81457142D01*
X133223571Y-81028571D02*
X134723571Y-80528571D01*
X133223571Y-80028571D01*
X133937857Y-79528571D02*
X133937857Y-79028571D01*
X134723571Y-78814285D02*
X134723571Y-79528571D01*
X133223571Y-79528571D01*
X133223571Y-78814285D01*
X134723571Y-77457142D02*
X134723571Y-78171428D01*
X133223571Y-78171428D01*
X137202142Y-85314285D02*
X137273571Y-85100000D01*
X137273571Y-84742857D01*
X137202142Y-84600000D01*
X137130714Y-84528571D01*
X136987857Y-84457142D01*
X136845000Y-84457142D01*
X136702142Y-84528571D01*
X136630714Y-84600000D01*
X136559285Y-84742857D01*
X136487857Y-85028571D01*
X136416428Y-85171428D01*
X136345000Y-85242857D01*
X136202142Y-85314285D01*
X136059285Y-85314285D01*
X135916428Y-85242857D01*
X135845000Y-85171428D01*
X135773571Y-85028571D01*
X135773571Y-84671428D01*
X135845000Y-84457142D01*
X137273571Y-83814285D02*
X135773571Y-83814285D01*
X136487857Y-83814285D02*
X136487857Y-82957142D01*
X137273571Y-82957142D02*
X135773571Y-82957142D01*
X137273571Y-82242857D02*
X135773571Y-82242857D01*
X136487857Y-81028571D02*
X136487857Y-81528571D01*
X137273571Y-81528571D02*
X135773571Y-81528571D01*
X135773571Y-80814285D01*
X135773571Y-80457142D02*
X135773571Y-79600000D01*
X137273571Y-80028571D02*
X135773571Y-80028571D01*
X136487857Y-79100000D02*
X136487857Y-78600000D01*
X137273571Y-78385714D02*
X137273571Y-79100000D01*
X135773571Y-79100000D01*
X135773571Y-78385714D01*
X137273571Y-76885714D02*
X136559285Y-77385714D01*
X137273571Y-77742857D02*
X135773571Y-77742857D01*
X135773571Y-77171428D01*
X135845000Y-77028571D01*
X135916428Y-76957142D01*
X136059285Y-76885714D01*
X136273571Y-76885714D01*
X136416428Y-76957142D01*
X136487857Y-77028571D01*
X136559285Y-77171428D01*
X136559285Y-77742857D01*
X180115714Y-70912142D02*
X180330000Y-70983571D01*
X180687142Y-70983571D01*
X180830000Y-70912142D01*
X180901428Y-70840714D01*
X180972857Y-70697857D01*
X180972857Y-70555000D01*
X180901428Y-70412142D01*
X180830000Y-70340714D01*
X180687142Y-70269285D01*
X180401428Y-70197857D01*
X180258571Y-70126428D01*
X180187142Y-70055000D01*
X180115714Y-69912142D01*
X180115714Y-69769285D01*
X180187142Y-69626428D01*
X180258571Y-69555000D01*
X180401428Y-69483571D01*
X180758571Y-69483571D01*
X180972857Y-69555000D01*
X181615714Y-70197857D02*
X182115714Y-70197857D01*
X182330000Y-70983571D02*
X181615714Y-70983571D01*
X181615714Y-69483571D01*
X182330000Y-69483571D01*
X183830000Y-70983571D02*
X183330000Y-70269285D01*
X182972857Y-70983571D02*
X182972857Y-69483571D01*
X183544285Y-69483571D01*
X183687142Y-69555000D01*
X183758571Y-69626428D01*
X183830000Y-69769285D01*
X183830000Y-69983571D01*
X183758571Y-70126428D01*
X183687142Y-70197857D01*
X183544285Y-70269285D01*
X182972857Y-70269285D01*
X184472857Y-70983571D02*
X184472857Y-69483571D01*
X185115714Y-70555000D02*
X185830000Y-70555000D01*
X184972857Y-70983571D02*
X185472857Y-69483571D01*
X185972857Y-70983571D01*
X187187142Y-70983571D02*
X186472857Y-70983571D01*
X186472857Y-69483571D01*
X190037142Y-86227142D02*
X190037142Y-85084285D01*
X190608571Y-85655714D02*
X189465714Y-85655714D01*
X190608571Y-84370000D02*
X189108571Y-84370000D01*
X189108571Y-83798571D01*
X189180000Y-83655714D01*
X189251428Y-83584285D01*
X189394285Y-83512857D01*
X189608571Y-83512857D01*
X189751428Y-83584285D01*
X189822857Y-83655714D01*
X189894285Y-83798571D01*
X189894285Y-84370000D01*
X189108571Y-83012857D02*
X190608571Y-82655714D01*
X189537142Y-82370000D01*
X190608571Y-82084285D01*
X189108571Y-81727142D01*
X190608571Y-80298571D02*
X189894285Y-80798571D01*
X190608571Y-81155714D02*
X189108571Y-81155714D01*
X189108571Y-80584285D01*
X189180000Y-80441428D01*
X189251428Y-80370000D01*
X189394285Y-80298571D01*
X189608571Y-80298571D01*
X189751428Y-80370000D01*
X189822857Y-80441428D01*
X189894285Y-80584285D01*
X189894285Y-81155714D01*
X190037142Y-79655714D02*
X190037142Y-78512857D01*
X185528571Y-106781428D02*
X184814285Y-107281428D01*
X185528571Y-107638571D02*
X184028571Y-107638571D01*
X184028571Y-107067142D01*
X184100000Y-106924285D01*
X184171428Y-106852857D01*
X184314285Y-106781428D01*
X184528571Y-106781428D01*
X184671428Y-106852857D01*
X184742857Y-106924285D01*
X184814285Y-107067142D01*
X184814285Y-107638571D01*
X184742857Y-106138571D02*
X184742857Y-105638571D01*
X185528571Y-105424285D02*
X185528571Y-106138571D01*
X184028571Y-106138571D01*
X184028571Y-105424285D01*
X185528571Y-104067142D02*
X185528571Y-104781428D01*
X184028571Y-104781428D01*
X185100000Y-103638571D02*
X185100000Y-102924285D01*
X185528571Y-103781428D02*
X184028571Y-103281428D01*
X185528571Y-102781428D01*
X184814285Y-101995714D02*
X185528571Y-101995714D01*
X184028571Y-102495714D02*
X184814285Y-101995714D01*
X184028571Y-101495714D01*
X185457142Y-101067142D02*
X185528571Y-100852857D01*
X185528571Y-100495714D01*
X185457142Y-100352857D01*
X185385714Y-100281428D01*
X185242857Y-100210000D01*
X185100000Y-100210000D01*
X184957142Y-100281428D01*
X184885714Y-100352857D01*
X184814285Y-100495714D01*
X184742857Y-100781428D01*
X184671428Y-100924285D01*
X184600000Y-100995714D01*
X184457142Y-101067142D01*
X184314285Y-101067142D01*
X184171428Y-100995714D01*
X184100000Y-100924285D01*
X184028571Y-100781428D01*
X184028571Y-100424285D01*
X184100000Y-100210000D01*
X94152142Y-92990714D02*
X94152142Y-92490714D01*
X93366428Y-92490714D02*
X94866428Y-92490714D01*
X94866428Y-93205000D01*
X93366428Y-94490714D02*
X93366428Y-93776428D01*
X94866428Y-93776428D01*
X94866428Y-95276428D02*
X94866428Y-95562142D01*
X94795000Y-95705000D01*
X94652142Y-95847857D01*
X94366428Y-95919285D01*
X93866428Y-95919285D01*
X93580714Y-95847857D01*
X93437857Y-95705000D01*
X93366428Y-95562142D01*
X93366428Y-95276428D01*
X93437857Y-95133571D01*
X93580714Y-94990714D01*
X93866428Y-94919285D01*
X94366428Y-94919285D01*
X94652142Y-94990714D01*
X94795000Y-95133571D01*
X94866428Y-95276428D01*
X94866428Y-96847857D02*
X94866428Y-97133571D01*
X94795000Y-97276428D01*
X94652142Y-97419285D01*
X94366428Y-97490714D01*
X93866428Y-97490714D01*
X93580714Y-97419285D01*
X93437857Y-97276428D01*
X93366428Y-97133571D01*
X93366428Y-96847857D01*
X93437857Y-96705000D01*
X93580714Y-96562142D01*
X93866428Y-96490714D01*
X94366428Y-96490714D01*
X94652142Y-96562142D01*
X94795000Y-96705000D01*
X94866428Y-96847857D01*
X93366428Y-98990714D02*
X94080714Y-98490714D01*
X93366428Y-98133571D02*
X94866428Y-98133571D01*
X94866428Y-98705000D01*
X94795000Y-98847857D01*
X94723571Y-98919285D01*
X94580714Y-98990714D01*
X94366428Y-98990714D01*
X94223571Y-98919285D01*
X94152142Y-98847857D01*
X94080714Y-98705000D01*
X94080714Y-98133571D01*
X94866428Y-79655714D02*
X94866428Y-80512857D01*
X93366428Y-80084285D02*
X94866428Y-80084285D01*
X94152142Y-81012857D02*
X94152142Y-81512857D01*
X93366428Y-81727142D02*
X93366428Y-81012857D01*
X94866428Y-81012857D01*
X94866428Y-81727142D01*
X93366428Y-82370000D02*
X94866428Y-82370000D01*
X93795000Y-82870000D01*
X94866428Y-83370000D01*
X93366428Y-83370000D01*
X93366428Y-84084285D02*
X94866428Y-84084285D01*
X94866428Y-84655714D01*
X94795000Y-84798571D01*
X94723571Y-84870000D01*
X94580714Y-84941428D01*
X94366428Y-84941428D01*
X94223571Y-84870000D01*
X94152142Y-84798571D01*
X94080714Y-84655714D01*
X94080714Y-84084285D01*
X94152142Y-87386428D02*
X94152142Y-86243571D01*
X94152142Y-77861428D02*
X94152142Y-76718571D01*
X94723571Y-77290000D02*
X93580714Y-77290000D01*
X169265000Y-102498571D02*
X169550714Y-102498571D01*
X169693571Y-102570000D01*
X169836428Y-102712857D01*
X169907857Y-102998571D01*
X169907857Y-103498571D01*
X169836428Y-103784285D01*
X169693571Y-103927142D01*
X169550714Y-103998571D01*
X169265000Y-103998571D01*
X169122142Y-103927142D01*
X168979285Y-103784285D01*
X168907857Y-103498571D01*
X168907857Y-102998571D01*
X168979285Y-102712857D01*
X169122142Y-102570000D01*
X169265000Y-102498571D01*
X170550714Y-103998571D02*
X170550714Y-102498571D01*
X171122142Y-102498571D01*
X171265000Y-102570000D01*
X171336428Y-102641428D01*
X171407857Y-102784285D01*
X171407857Y-102998571D01*
X171336428Y-103141428D01*
X171265000Y-103212857D01*
X171122142Y-103284285D01*
X170550714Y-103284285D01*
X171836428Y-102498571D02*
X172693571Y-102498571D01*
X172265000Y-103998571D02*
X172265000Y-102498571D01*
X173479285Y-102498571D02*
X173765000Y-102498571D01*
X173907857Y-102570000D01*
X174050714Y-102712857D01*
X174122142Y-102998571D01*
X174122142Y-103498571D01*
X174050714Y-103784285D01*
X173907857Y-103927142D01*
X173765000Y-103998571D01*
X173479285Y-103998571D01*
X173336428Y-103927142D01*
X173193571Y-103784285D01*
X173122142Y-103498571D01*
X173122142Y-102998571D01*
X173193571Y-102712857D01*
X173336428Y-102570000D01*
X173479285Y-102498571D01*
X168693571Y-105762857D02*
X168907857Y-105834285D01*
X168979285Y-105905714D01*
X169050714Y-106048571D01*
X169050714Y-106262857D01*
X168979285Y-106405714D01*
X168907857Y-106477142D01*
X168765000Y-106548571D01*
X168193571Y-106548571D01*
X168193571Y-105048571D01*
X168693571Y-105048571D01*
X168836428Y-105120000D01*
X168907857Y-105191428D01*
X168979285Y-105334285D01*
X168979285Y-105477142D01*
X168907857Y-105620000D01*
X168836428Y-105691428D01*
X168693571Y-105762857D01*
X168193571Y-105762857D01*
X169979285Y-105048571D02*
X170265000Y-105048571D01*
X170407857Y-105120000D01*
X170550714Y-105262857D01*
X170622142Y-105548571D01*
X170622142Y-106048571D01*
X170550714Y-106334285D01*
X170407857Y-106477142D01*
X170265000Y-106548571D01*
X169979285Y-106548571D01*
X169836428Y-106477142D01*
X169693571Y-106334285D01*
X169622142Y-106048571D01*
X169622142Y-105548571D01*
X169693571Y-105262857D01*
X169836428Y-105120000D01*
X169979285Y-105048571D01*
X171193571Y-106120000D02*
X171907857Y-106120000D01*
X171050714Y-106548571D02*
X171550714Y-105048571D01*
X172050714Y-106548571D01*
X173407857Y-106548571D02*
X172907857Y-105834285D01*
X172550714Y-106548571D02*
X172550714Y-105048571D01*
X173122142Y-105048571D01*
X173265000Y-105120000D01*
X173336428Y-105191428D01*
X173407857Y-105334285D01*
X173407857Y-105548571D01*
X173336428Y-105691428D01*
X173265000Y-105762857D01*
X173122142Y-105834285D01*
X172550714Y-105834285D01*
X174050714Y-106548571D02*
X174050714Y-105048571D01*
X174407857Y-105048571D01*
X174622142Y-105120000D01*
X174765000Y-105262857D01*
X174836428Y-105405714D01*
X174907857Y-105691428D01*
X174907857Y-105905714D01*
X174836428Y-106191428D01*
X174765000Y-106334285D01*
X174622142Y-106477142D01*
X174407857Y-106548571D01*
X174050714Y-106548571D01*
X136245000Y-101863571D02*
X136530714Y-101863571D01*
X136673571Y-101935000D01*
X136816428Y-102077857D01*
X136887857Y-102363571D01*
X136887857Y-102863571D01*
X136816428Y-103149285D01*
X136673571Y-103292142D01*
X136530714Y-103363571D01*
X136245000Y-103363571D01*
X136102142Y-103292142D01*
X135959285Y-103149285D01*
X135887857Y-102863571D01*
X135887857Y-102363571D01*
X135959285Y-102077857D01*
X136102142Y-101935000D01*
X136245000Y-101863571D01*
X137530714Y-103363571D02*
X137530714Y-101863571D01*
X138102142Y-101863571D01*
X138245000Y-101935000D01*
X138316428Y-102006428D01*
X138387857Y-102149285D01*
X138387857Y-102363571D01*
X138316428Y-102506428D01*
X138245000Y-102577857D01*
X138102142Y-102649285D01*
X137530714Y-102649285D01*
X138816428Y-101863571D02*
X139673571Y-101863571D01*
X139245000Y-103363571D02*
X139245000Y-101863571D01*
X140459285Y-101863571D02*
X140745000Y-101863571D01*
X140887857Y-101935000D01*
X141030714Y-102077857D01*
X141102142Y-102363571D01*
X141102142Y-102863571D01*
X141030714Y-103149285D01*
X140887857Y-103292142D01*
X140745000Y-103363571D01*
X140459285Y-103363571D01*
X140316428Y-103292142D01*
X140173571Y-103149285D01*
X140102142Y-102863571D01*
X140102142Y-102363571D01*
X140173571Y-102077857D01*
X140316428Y-101935000D01*
X140459285Y-101863571D01*
X135673571Y-105127857D02*
X135887857Y-105199285D01*
X135959285Y-105270714D01*
X136030714Y-105413571D01*
X136030714Y-105627857D01*
X135959285Y-105770714D01*
X135887857Y-105842142D01*
X135745000Y-105913571D01*
X135173571Y-105913571D01*
X135173571Y-104413571D01*
X135673571Y-104413571D01*
X135816428Y-104485000D01*
X135887857Y-104556428D01*
X135959285Y-104699285D01*
X135959285Y-104842142D01*
X135887857Y-104985000D01*
X135816428Y-105056428D01*
X135673571Y-105127857D01*
X135173571Y-105127857D01*
X136959285Y-104413571D02*
X137245000Y-104413571D01*
X137387857Y-104485000D01*
X137530714Y-104627857D01*
X137602142Y-104913571D01*
X137602142Y-105413571D01*
X137530714Y-105699285D01*
X137387857Y-105842142D01*
X137245000Y-105913571D01*
X136959285Y-105913571D01*
X136816428Y-105842142D01*
X136673571Y-105699285D01*
X136602142Y-105413571D01*
X136602142Y-104913571D01*
X136673571Y-104627857D01*
X136816428Y-104485000D01*
X136959285Y-104413571D01*
X138173571Y-105485000D02*
X138887857Y-105485000D01*
X138030714Y-105913571D02*
X138530714Y-104413571D01*
X139030714Y-105913571D01*
X140387857Y-105913571D02*
X139887857Y-105199285D01*
X139530714Y-105913571D02*
X139530714Y-104413571D01*
X140102142Y-104413571D01*
X140245000Y-104485000D01*
X140316428Y-104556428D01*
X140387857Y-104699285D01*
X140387857Y-104913571D01*
X140316428Y-105056428D01*
X140245000Y-105127857D01*
X140102142Y-105199285D01*
X139530714Y-105199285D01*
X141030714Y-105913571D02*
X141030714Y-104413571D01*
X141387857Y-104413571D01*
X141602142Y-104485000D01*
X141745000Y-104627857D01*
X141816428Y-104770714D01*
X141887857Y-105056428D01*
X141887857Y-105270714D01*
X141816428Y-105556428D01*
X141745000Y-105699285D01*
X141602142Y-105842142D01*
X141387857Y-105913571D01*
X141030714Y-105913571D01*
X179881428Y-139333571D02*
X180881428Y-139333571D01*
X179881428Y-140833571D01*
X180881428Y-140833571D01*
X181238571Y-139333571D02*
X181738571Y-140833571D01*
X182238571Y-139333571D01*
X182381428Y-140976428D02*
X183524285Y-140976428D01*
X183738571Y-139333571D02*
X184667142Y-139333571D01*
X184167142Y-139905000D01*
X184381428Y-139905000D01*
X184524285Y-139976428D01*
X184595714Y-140047857D01*
X184667142Y-140190714D01*
X184667142Y-140547857D01*
X184595714Y-140690714D01*
X184524285Y-140762142D01*
X184381428Y-140833571D01*
X183952857Y-140833571D01*
X183810000Y-140762142D01*
X183738571Y-140690714D01*
X172261428Y-139333571D02*
X173261428Y-139333571D01*
X172261428Y-140833571D01*
X173261428Y-140833571D01*
X173618571Y-139333571D02*
X174118571Y-140833571D01*
X174618571Y-139333571D01*
X174761428Y-140976428D02*
X175904285Y-140976428D01*
X176190000Y-139476428D02*
X176261428Y-139405000D01*
X176404285Y-139333571D01*
X176761428Y-139333571D01*
X176904285Y-139405000D01*
X176975714Y-139476428D01*
X177047142Y-139619285D01*
X177047142Y-139762142D01*
X176975714Y-139976428D01*
X176118571Y-140833571D01*
X177047142Y-140833571D01*
X162101428Y-139333571D02*
X163101428Y-139333571D01*
X162101428Y-140833571D01*
X163101428Y-140833571D01*
X163458571Y-139333571D02*
X163958571Y-140833571D01*
X164458571Y-139333571D01*
X164601428Y-140976428D02*
X165744285Y-140976428D01*
X166887142Y-140833571D02*
X166030000Y-140833571D01*
X166458571Y-140833571D02*
X166458571Y-139333571D01*
X166315714Y-139547857D01*
X166172857Y-139690714D01*
X166030000Y-139762142D01*
X150215000Y-140690714D02*
X150143571Y-140762142D01*
X149929285Y-140833571D01*
X149786428Y-140833571D01*
X149572142Y-140762142D01*
X149429285Y-140619285D01*
X149357857Y-140476428D01*
X149286428Y-140190714D01*
X149286428Y-139976428D01*
X149357857Y-139690714D01*
X149429285Y-139547857D01*
X149572142Y-139405000D01*
X149786428Y-139333571D01*
X149929285Y-139333571D01*
X150143571Y-139405000D01*
X150215000Y-139476428D01*
X151357857Y-140047857D02*
X150857857Y-140047857D01*
X150857857Y-140833571D02*
X150857857Y-139333571D01*
X151572142Y-139333571D01*
X152143571Y-140833571D02*
X152143571Y-139333571D01*
X152143571Y-140047857D02*
X153000714Y-140047857D01*
X153000714Y-140833571D02*
X153000714Y-139333571D01*
X153357857Y-140976428D02*
X154500714Y-140976428D01*
X154715000Y-139333571D02*
X155643571Y-139333571D01*
X155143571Y-139905000D01*
X155357857Y-139905000D01*
X155500714Y-139976428D01*
X155572142Y-140047857D01*
X155643571Y-140190714D01*
X155643571Y-140547857D01*
X155572142Y-140690714D01*
X155500714Y-140762142D01*
X155357857Y-140833571D01*
X154929285Y-140833571D01*
X154786428Y-140762142D01*
X154715000Y-140690714D01*
X140055000Y-140690714D02*
X139983571Y-140762142D01*
X139769285Y-140833571D01*
X139626428Y-140833571D01*
X139412142Y-140762142D01*
X139269285Y-140619285D01*
X139197857Y-140476428D01*
X139126428Y-140190714D01*
X139126428Y-139976428D01*
X139197857Y-139690714D01*
X139269285Y-139547857D01*
X139412142Y-139405000D01*
X139626428Y-139333571D01*
X139769285Y-139333571D01*
X139983571Y-139405000D01*
X140055000Y-139476428D01*
X141197857Y-140047857D02*
X140697857Y-140047857D01*
X140697857Y-140833571D02*
X140697857Y-139333571D01*
X141412142Y-139333571D01*
X141983571Y-140833571D02*
X141983571Y-139333571D01*
X141983571Y-140047857D02*
X142840714Y-140047857D01*
X142840714Y-140833571D02*
X142840714Y-139333571D01*
X143197857Y-140976428D02*
X144340714Y-140976428D01*
X144626428Y-139476428D02*
X144697857Y-139405000D01*
X144840714Y-139333571D01*
X145197857Y-139333571D01*
X145340714Y-139405000D01*
X145412142Y-139476428D01*
X145483571Y-139619285D01*
X145483571Y-139762142D01*
X145412142Y-139976428D01*
X144555000Y-140833571D01*
X145483571Y-140833571D01*
X129895000Y-140690714D02*
X129823571Y-140762142D01*
X129609285Y-140833571D01*
X129466428Y-140833571D01*
X129252142Y-140762142D01*
X129109285Y-140619285D01*
X129037857Y-140476428D01*
X128966428Y-140190714D01*
X128966428Y-139976428D01*
X129037857Y-139690714D01*
X129109285Y-139547857D01*
X129252142Y-139405000D01*
X129466428Y-139333571D01*
X129609285Y-139333571D01*
X129823571Y-139405000D01*
X129895000Y-139476428D01*
X131037857Y-140047857D02*
X130537857Y-140047857D01*
X130537857Y-140833571D02*
X130537857Y-139333571D01*
X131252142Y-139333571D01*
X131823571Y-140833571D02*
X131823571Y-139333571D01*
X131823571Y-140047857D02*
X132680714Y-140047857D01*
X132680714Y-140833571D02*
X132680714Y-139333571D01*
X133037857Y-140976428D02*
X134180714Y-140976428D01*
X135323571Y-140833571D02*
X134466428Y-140833571D01*
X134895000Y-140833571D02*
X134895000Y-139333571D01*
X134752142Y-139547857D01*
X134609285Y-139690714D01*
X134466428Y-139762142D01*
X122270714Y-137293571D02*
X122270714Y-138293571D01*
X121913571Y-136722142D02*
X121556428Y-137793571D01*
X122485000Y-137793571D01*
X111404285Y-137507857D02*
X110904285Y-137507857D01*
X110904285Y-138293571D02*
X110904285Y-136793571D01*
X111618571Y-136793571D01*
X107030714Y-137293571D02*
X107030714Y-138293571D01*
X106673571Y-136722142D02*
X106316428Y-137793571D01*
X107245000Y-137793571D01*
X96799285Y-137507857D02*
X96299285Y-137507857D01*
X96299285Y-138293571D02*
X96299285Y-136793571D01*
X97013571Y-136793571D01*
X113841428Y-140047857D02*
X114055714Y-140119285D01*
X114127142Y-140190714D01*
X114198571Y-140333571D01*
X114198571Y-140547857D01*
X114127142Y-140690714D01*
X114055714Y-140762142D01*
X113912857Y-140833571D01*
X113341428Y-140833571D01*
X113341428Y-139333571D01*
X113841428Y-139333571D01*
X113984285Y-139405000D01*
X114055714Y-139476428D01*
X114127142Y-139619285D01*
X114127142Y-139762142D01*
X114055714Y-139905000D01*
X113984285Y-139976428D01*
X113841428Y-140047857D01*
X113341428Y-140047857D01*
X115055714Y-140833571D02*
X114912857Y-140762142D01*
X114841428Y-140690714D01*
X114770000Y-140547857D01*
X114770000Y-140119285D01*
X114841428Y-139976428D01*
X114912857Y-139905000D01*
X115055714Y-139833571D01*
X115270000Y-139833571D01*
X115412857Y-139905000D01*
X115484285Y-139976428D01*
X115555714Y-140119285D01*
X115555714Y-140547857D01*
X115484285Y-140690714D01*
X115412857Y-140762142D01*
X115270000Y-140833571D01*
X115055714Y-140833571D01*
X116198571Y-140833571D02*
X116198571Y-139833571D01*
X116198571Y-139333571D02*
X116127142Y-139405000D01*
X116198571Y-139476428D01*
X116270000Y-139405000D01*
X116198571Y-139333571D01*
X116198571Y-139476428D01*
X117127142Y-140833571D02*
X116984285Y-140762142D01*
X116912857Y-140619285D01*
X116912857Y-139333571D01*
X118270000Y-140762142D02*
X118127142Y-140833571D01*
X117841428Y-140833571D01*
X117698571Y-140762142D01*
X117627142Y-140619285D01*
X117627142Y-140047857D01*
X117698571Y-139905000D01*
X117841428Y-139833571D01*
X118127142Y-139833571D01*
X118270000Y-139905000D01*
X118341428Y-140047857D01*
X118341428Y-140190714D01*
X117627142Y-140333571D01*
X118984285Y-140833571D02*
X118984285Y-139833571D01*
X118984285Y-140119285D02*
X119055714Y-139976428D01*
X119127142Y-139905000D01*
X119270000Y-139833571D01*
X119412857Y-139833571D01*
X99772142Y-139333571D02*
X100629285Y-139333571D01*
X100200714Y-140833571D02*
X100200714Y-139333571D01*
X101986428Y-140833571D02*
X101486428Y-140119285D01*
X101129285Y-140833571D02*
X101129285Y-139333571D01*
X101700714Y-139333571D01*
X101843571Y-139405000D01*
X101915000Y-139476428D01*
X101986428Y-139619285D01*
X101986428Y-139833571D01*
X101915000Y-139976428D01*
X101843571Y-140047857D01*
X101700714Y-140119285D01*
X101129285Y-140119285D01*
X102557857Y-139476428D02*
X102629285Y-139405000D01*
X102772142Y-139333571D01*
X103129285Y-139333571D01*
X103272142Y-139405000D01*
X103343571Y-139476428D01*
X103415000Y-139619285D01*
X103415000Y-139762142D01*
X103343571Y-139976428D01*
X102486428Y-140833571D01*
X103415000Y-140833571D01*
D14*
G04 #@! TO.C,TP1*
X103510000Y-62110000D02*
X106170000Y-62110000D01*
X103510000Y-62050000D02*
X103510000Y-62110000D01*
X106170000Y-62050000D02*
X106170000Y-62110000D01*
X103510000Y-62050000D02*
X106170000Y-62050000D01*
X103510000Y-60780000D02*
X103510000Y-59450000D01*
X103510000Y-59450000D02*
X104840000Y-59450000D01*
G04 #@! TO.C,TP3*
X103510000Y-57030000D02*
X106170000Y-57030000D01*
X103510000Y-56970000D02*
X103510000Y-57030000D01*
X106170000Y-56970000D02*
X106170000Y-57030000D01*
X103510000Y-56970000D02*
X106170000Y-56970000D01*
X103510000Y-55700000D02*
X103510000Y-54370000D01*
X103510000Y-54370000D02*
X104840000Y-54370000D01*
G04 #@! TO.C,TP2*
X98430000Y-68460000D02*
X101090000Y-68460000D01*
X98430000Y-68400000D02*
X98430000Y-68460000D01*
X101090000Y-68400000D02*
X101090000Y-68460000D01*
X98430000Y-68400000D02*
X101090000Y-68400000D01*
X98430000Y-67130000D02*
X98430000Y-65800000D01*
X98430000Y-65800000D02*
X99760000Y-65800000D01*
G04 #@! TO.C,C13*
X170335864Y-78697180D02*
G75*
G03X170335000Y-84732482I1179136J-3017820D01*
G01*
X172694136Y-78697180D02*
G75*
G02X172695000Y-84732482I-1179136J-3017820D01*
G01*
X172694136Y-78697180D02*
G75*
G03X170335000Y-78697518I-1179136J-3017820D01*
G01*
X168315000Y-81715000D02*
X174715000Y-81715000D01*
X168315000Y-81675000D02*
X174715000Y-81675000D01*
X168315000Y-81635000D02*
X174715000Y-81635000D01*
X168317000Y-81595000D02*
X174713000Y-81595000D01*
X168318000Y-81555000D02*
X174712000Y-81555000D01*
X168321000Y-81515000D02*
X174709000Y-81515000D01*
X168323000Y-81475000D02*
X174707000Y-81475000D01*
X168327000Y-81435000D02*
X170535000Y-81435000D01*
X172495000Y-81435000D02*
X174703000Y-81435000D01*
X168330000Y-81395000D02*
X170535000Y-81395000D01*
X172495000Y-81395000D02*
X174700000Y-81395000D01*
X168335000Y-81355000D02*
X170535000Y-81355000D01*
X172495000Y-81355000D02*
X174695000Y-81355000D01*
X168339000Y-81315000D02*
X170535000Y-81315000D01*
X172495000Y-81315000D02*
X174691000Y-81315000D01*
X168345000Y-81275000D02*
X170535000Y-81275000D01*
X172495000Y-81275000D02*
X174685000Y-81275000D01*
X168350000Y-81235000D02*
X170535000Y-81235000D01*
X172495000Y-81235000D02*
X174680000Y-81235000D01*
X168357000Y-81195000D02*
X170535000Y-81195000D01*
X172495000Y-81195000D02*
X174673000Y-81195000D01*
X168363000Y-81155000D02*
X170535000Y-81155000D01*
X172495000Y-81155000D02*
X174667000Y-81155000D01*
X168371000Y-81115000D02*
X170535000Y-81115000D01*
X172495000Y-81115000D02*
X174659000Y-81115000D01*
X168378000Y-81075000D02*
X170535000Y-81075000D01*
X172495000Y-81075000D02*
X174652000Y-81075000D01*
X168387000Y-81035000D02*
X170535000Y-81035000D01*
X172495000Y-81035000D02*
X174643000Y-81035000D01*
X168396000Y-80994000D02*
X170535000Y-80994000D01*
X172495000Y-80994000D02*
X174634000Y-80994000D01*
X168405000Y-80954000D02*
X170535000Y-80954000D01*
X172495000Y-80954000D02*
X174625000Y-80954000D01*
X168415000Y-80914000D02*
X170535000Y-80914000D01*
X172495000Y-80914000D02*
X174615000Y-80914000D01*
X168425000Y-80874000D02*
X170535000Y-80874000D01*
X172495000Y-80874000D02*
X174605000Y-80874000D01*
X168436000Y-80834000D02*
X170535000Y-80834000D01*
X172495000Y-80834000D02*
X174594000Y-80834000D01*
X168448000Y-80794000D02*
X170535000Y-80794000D01*
X172495000Y-80794000D02*
X174582000Y-80794000D01*
X168460000Y-80754000D02*
X170535000Y-80754000D01*
X172495000Y-80754000D02*
X174570000Y-80754000D01*
X168473000Y-80714000D02*
X170535000Y-80714000D01*
X172495000Y-80714000D02*
X174557000Y-80714000D01*
X168486000Y-80674000D02*
X170535000Y-80674000D01*
X172495000Y-80674000D02*
X174544000Y-80674000D01*
X168500000Y-80634000D02*
X170535000Y-80634000D01*
X172495000Y-80634000D02*
X174530000Y-80634000D01*
X168514000Y-80594000D02*
X170535000Y-80594000D01*
X172495000Y-80594000D02*
X174516000Y-80594000D01*
X168529000Y-80554000D02*
X170535000Y-80554000D01*
X172495000Y-80554000D02*
X174501000Y-80554000D01*
X168545000Y-80514000D02*
X170535000Y-80514000D01*
X172495000Y-80514000D02*
X174485000Y-80514000D01*
X168561000Y-80474000D02*
X170535000Y-80474000D01*
X172495000Y-80474000D02*
X174469000Y-80474000D01*
X168578000Y-80434000D02*
X170535000Y-80434000D01*
X172495000Y-80434000D02*
X174452000Y-80434000D01*
X168596000Y-80394000D02*
X170535000Y-80394000D01*
X172495000Y-80394000D02*
X174434000Y-80394000D01*
X168614000Y-80354000D02*
X170535000Y-80354000D01*
X172495000Y-80354000D02*
X174416000Y-80354000D01*
X168633000Y-80314000D02*
X170535000Y-80314000D01*
X172495000Y-80314000D02*
X174397000Y-80314000D01*
X168652000Y-80274000D02*
X170535000Y-80274000D01*
X172495000Y-80274000D02*
X174378000Y-80274000D01*
X168672000Y-80234000D02*
X170535000Y-80234000D01*
X172495000Y-80234000D02*
X174358000Y-80234000D01*
X168693000Y-80194000D02*
X170535000Y-80194000D01*
X172495000Y-80194000D02*
X174337000Y-80194000D01*
X168715000Y-80154000D02*
X170535000Y-80154000D01*
X172495000Y-80154000D02*
X174315000Y-80154000D01*
X168737000Y-80114000D02*
X170535000Y-80114000D01*
X172495000Y-80114000D02*
X174293000Y-80114000D01*
X168760000Y-80074000D02*
X170535000Y-80074000D01*
X172495000Y-80074000D02*
X174270000Y-80074000D01*
X168784000Y-80034000D02*
X170535000Y-80034000D01*
X172495000Y-80034000D02*
X174246000Y-80034000D01*
X168809000Y-79994000D02*
X170535000Y-79994000D01*
X172495000Y-79994000D02*
X174221000Y-79994000D01*
X168834000Y-79954000D02*
X170535000Y-79954000D01*
X172495000Y-79954000D02*
X174196000Y-79954000D01*
X168861000Y-79914000D02*
X170535000Y-79914000D01*
X172495000Y-79914000D02*
X174169000Y-79914000D01*
X168888000Y-79874000D02*
X170535000Y-79874000D01*
X172495000Y-79874000D02*
X174142000Y-79874000D01*
X168916000Y-79834000D02*
X170535000Y-79834000D01*
X172495000Y-79834000D02*
X174114000Y-79834000D01*
X168945000Y-79794000D02*
X170535000Y-79794000D01*
X172495000Y-79794000D02*
X174085000Y-79794000D01*
X168975000Y-79754000D02*
X170535000Y-79754000D01*
X172495000Y-79754000D02*
X174055000Y-79754000D01*
X169005000Y-79714000D02*
X170535000Y-79714000D01*
X172495000Y-79714000D02*
X174025000Y-79714000D01*
X169037000Y-79674000D02*
X170535000Y-79674000D01*
X172495000Y-79674000D02*
X173993000Y-79674000D01*
X169070000Y-79634000D02*
X170535000Y-79634000D01*
X172495000Y-79634000D02*
X173960000Y-79634000D01*
X169104000Y-79594000D02*
X170535000Y-79594000D01*
X172495000Y-79594000D02*
X173926000Y-79594000D01*
X169140000Y-79554000D02*
X170535000Y-79554000D01*
X172495000Y-79554000D02*
X173890000Y-79554000D01*
X169176000Y-79514000D02*
X170535000Y-79514000D01*
X172495000Y-79514000D02*
X173854000Y-79514000D01*
X169214000Y-79474000D02*
X173816000Y-79474000D01*
X169253000Y-79434000D02*
X173777000Y-79434000D01*
X169293000Y-79394000D02*
X173737000Y-79394000D01*
X169335000Y-79354000D02*
X173695000Y-79354000D01*
X169378000Y-79314000D02*
X173652000Y-79314000D01*
X169423000Y-79274000D02*
X173607000Y-79274000D01*
X169470000Y-79234000D02*
X173560000Y-79234000D01*
X169518000Y-79194000D02*
X173512000Y-79194000D01*
X169569000Y-79154000D02*
X173461000Y-79154000D01*
X169621000Y-79114000D02*
X173409000Y-79114000D01*
X169676000Y-79074000D02*
X173354000Y-79074000D01*
X169734000Y-79034000D02*
X173296000Y-79034000D01*
X169794000Y-78994000D02*
X173236000Y-78994000D01*
X169857000Y-78954000D02*
X173173000Y-78954000D01*
X169924000Y-78914000D02*
X173106000Y-78914000D01*
X169995000Y-78874000D02*
X173035000Y-78874000D01*
X170070000Y-78834000D02*
X172960000Y-78834000D01*
X170151000Y-78794000D02*
X172879000Y-78794000D01*
X170237000Y-78754000D02*
X172793000Y-78754000D01*
X170331000Y-78714000D02*
X172699000Y-78714000D01*
X170434000Y-78674000D02*
X172596000Y-78674000D01*
X170549000Y-78634000D02*
X172481000Y-78634000D01*
X170681000Y-78594000D02*
X172349000Y-78594000D01*
X170839000Y-78554000D02*
X172191000Y-78554000D01*
X171047000Y-78514000D02*
X171983000Y-78514000D01*
X171515000Y-85165000D02*
X171515000Y-83965000D01*
X170865000Y-84565000D02*
X172165000Y-84565000D01*
G04 #@! TO.C,J10*
X184275000Y-62495000D02*
X181675000Y-62495000D01*
X181675000Y-62495000D02*
X181675000Y-53865000D01*
X181675000Y-53865000D02*
X184275000Y-53865000D01*
X184275000Y-53865000D02*
X184275000Y-62495000D01*
X183325000Y-62925000D02*
X183325000Y-62495000D01*
X182565000Y-62925000D02*
X182565000Y-62495000D01*
X183325000Y-65465000D02*
X183325000Y-64985000D01*
X182565000Y-65465000D02*
X182565000Y-64985000D01*
X184095000Y-62495000D02*
X184095000Y-53865000D01*
X183975000Y-62495000D02*
X183975000Y-53865000D01*
X183855000Y-62495000D02*
X183855000Y-53865000D01*
X183735000Y-62495000D02*
X183735000Y-53865000D01*
X183615000Y-62495000D02*
X183615000Y-53865000D01*
X183495000Y-62495000D02*
X183495000Y-53865000D01*
X183375000Y-62495000D02*
X183375000Y-53865000D01*
X183255000Y-62495000D02*
X183255000Y-53865000D01*
X183135000Y-62495000D02*
X183135000Y-53865000D01*
X183015000Y-62495000D02*
X183015000Y-53865000D01*
X182895000Y-62495000D02*
X182895000Y-53865000D01*
X182775000Y-62495000D02*
X182775000Y-53865000D01*
X182655000Y-62495000D02*
X182655000Y-53865000D01*
X182535000Y-62495000D02*
X182535000Y-53865000D01*
X182415000Y-62495000D02*
X182415000Y-53865000D01*
X182295000Y-62495000D02*
X182295000Y-53865000D01*
X182175000Y-62495000D02*
X182175000Y-53865000D01*
X182055000Y-62495000D02*
X182055000Y-53865000D01*
X181935000Y-62495000D02*
X181935000Y-53865000D01*
X181815000Y-62495000D02*
X181815000Y-53865000D01*
X181695000Y-62495000D02*
X181695000Y-53865000D01*
X181575000Y-62495000D02*
X181575000Y-53865000D01*
X181675000Y-62495000D02*
X179135000Y-62495000D01*
X179135000Y-62495000D02*
X179135000Y-53865000D01*
X179135000Y-53865000D02*
X181675000Y-53865000D01*
X181675000Y-53865000D02*
X181675000Y-62495000D01*
X180785000Y-62925000D02*
X180785000Y-62495000D01*
X180025000Y-62925000D02*
X180025000Y-62495000D01*
X180785000Y-65465000D02*
X180785000Y-64985000D01*
X180025000Y-65465000D02*
X180025000Y-64985000D01*
X179135000Y-62495000D02*
X176595000Y-62495000D01*
X176595000Y-62495000D02*
X176595000Y-53865000D01*
X176595000Y-53865000D02*
X179135000Y-53865000D01*
X179135000Y-53865000D02*
X179135000Y-62495000D01*
X178245000Y-62925000D02*
X178245000Y-62495000D01*
X177485000Y-62925000D02*
X177485000Y-62495000D01*
X178245000Y-65465000D02*
X178245000Y-64985000D01*
X177485000Y-65465000D02*
X177485000Y-64985000D01*
X176595000Y-62495000D02*
X174055000Y-62495000D01*
X174055000Y-62495000D02*
X174055000Y-53865000D01*
X174055000Y-53865000D02*
X176595000Y-53865000D01*
X176595000Y-53865000D02*
X176595000Y-62495000D01*
X175705000Y-62925000D02*
X175705000Y-62495000D01*
X174945000Y-62925000D02*
X174945000Y-62495000D01*
X175705000Y-65465000D02*
X175705000Y-64985000D01*
X174945000Y-65465000D02*
X174945000Y-64985000D01*
X174055000Y-62495000D02*
X171515000Y-62495000D01*
X171515000Y-62495000D02*
X171515000Y-53865000D01*
X171515000Y-53865000D02*
X174055000Y-53865000D01*
X174055000Y-53865000D02*
X174055000Y-62495000D01*
X173165000Y-62925000D02*
X173165000Y-62495000D01*
X172405000Y-62925000D02*
X172405000Y-62495000D01*
X173165000Y-65465000D02*
X173165000Y-64985000D01*
X172405000Y-65465000D02*
X172405000Y-64985000D01*
X171515000Y-62495000D02*
X168975000Y-62495000D01*
X168975000Y-62495000D02*
X168975000Y-53865000D01*
X168975000Y-53865000D02*
X171515000Y-53865000D01*
X171515000Y-53865000D02*
X171515000Y-62495000D01*
X170625000Y-62925000D02*
X170625000Y-62495000D01*
X169865000Y-62925000D02*
X169865000Y-62495000D01*
X170625000Y-65465000D02*
X170625000Y-64985000D01*
X169865000Y-65465000D02*
X169865000Y-64985000D01*
X168975000Y-62495000D02*
X166435000Y-62495000D01*
X166435000Y-62495000D02*
X166435000Y-53865000D01*
X166435000Y-53865000D02*
X168975000Y-53865000D01*
X168975000Y-53865000D02*
X168975000Y-62495000D01*
X168085000Y-62925000D02*
X168085000Y-62495000D01*
X167325000Y-62925000D02*
X167325000Y-62495000D01*
X168085000Y-65465000D02*
X168085000Y-64985000D01*
X167325000Y-65465000D02*
X167325000Y-64985000D01*
X166435000Y-62495000D02*
X163895000Y-62495000D01*
X163895000Y-62495000D02*
X163895000Y-53865000D01*
X163895000Y-53865000D02*
X166435000Y-53865000D01*
X166435000Y-53865000D02*
X166435000Y-62495000D01*
X165545000Y-62925000D02*
X165545000Y-62495000D01*
X164785000Y-62925000D02*
X164785000Y-62495000D01*
X165545000Y-65465000D02*
X165545000Y-64985000D01*
X164785000Y-65465000D02*
X164785000Y-64985000D01*
X163895000Y-62495000D02*
X161355000Y-62495000D01*
X161355000Y-62495000D02*
X161355000Y-53865000D01*
X161355000Y-53865000D02*
X163895000Y-53865000D01*
X163895000Y-53865000D02*
X163895000Y-62495000D01*
X163005000Y-62925000D02*
X163005000Y-62495000D01*
X162245000Y-62925000D02*
X162245000Y-62495000D01*
X163005000Y-65465000D02*
X163005000Y-64985000D01*
X162245000Y-65465000D02*
X162245000Y-64985000D01*
X161355000Y-62495000D02*
X158815000Y-62495000D01*
X158815000Y-62495000D02*
X158815000Y-53865000D01*
X158815000Y-53865000D02*
X161355000Y-53865000D01*
X161355000Y-53865000D02*
X161355000Y-62495000D01*
X160465000Y-62925000D02*
X160465000Y-62495000D01*
X159705000Y-62925000D02*
X159705000Y-62495000D01*
X160465000Y-65465000D02*
X160465000Y-64985000D01*
X159705000Y-65465000D02*
X159705000Y-64985000D01*
X158815000Y-62495000D02*
X156275000Y-62495000D01*
X156275000Y-62495000D02*
X156275000Y-53865000D01*
X156275000Y-53865000D02*
X158815000Y-53865000D01*
X158815000Y-53865000D02*
X158815000Y-62495000D01*
X157925000Y-62925000D02*
X157925000Y-62495000D01*
X157165000Y-62925000D02*
X157165000Y-62495000D01*
X157925000Y-65465000D02*
X157925000Y-64985000D01*
X157165000Y-65465000D02*
X157165000Y-64985000D01*
X156275000Y-62495000D02*
X153735000Y-62495000D01*
X153735000Y-62495000D02*
X153735000Y-53865000D01*
X153735000Y-53865000D02*
X156275000Y-53865000D01*
X156275000Y-53865000D02*
X156275000Y-62495000D01*
X155385000Y-62925000D02*
X155385000Y-62495000D01*
X154625000Y-62925000D02*
X154625000Y-62495000D01*
X155385000Y-65465000D02*
X155385000Y-64985000D01*
X154625000Y-65465000D02*
X154625000Y-64985000D01*
X153735000Y-62495000D02*
X151195000Y-62495000D01*
X151195000Y-62495000D02*
X151195000Y-53865000D01*
X151195000Y-53865000D02*
X153735000Y-53865000D01*
X153735000Y-53865000D02*
X153735000Y-62495000D01*
X152845000Y-62925000D02*
X152845000Y-62495000D01*
X152085000Y-62925000D02*
X152085000Y-62495000D01*
X152845000Y-65465000D02*
X152845000Y-64985000D01*
X152085000Y-65465000D02*
X152085000Y-64985000D01*
X151195000Y-62495000D02*
X148655000Y-62495000D01*
X148655000Y-62495000D02*
X148655000Y-53865000D01*
X148655000Y-53865000D02*
X151195000Y-53865000D01*
X151195000Y-53865000D02*
X151195000Y-62495000D01*
X150305000Y-62925000D02*
X150305000Y-62495000D01*
X149545000Y-62925000D02*
X149545000Y-62495000D01*
X150305000Y-65465000D02*
X150305000Y-64985000D01*
X149545000Y-65465000D02*
X149545000Y-64985000D01*
X148655000Y-62495000D02*
X146115000Y-62495000D01*
X146115000Y-62495000D02*
X146115000Y-53865000D01*
X146115000Y-53865000D02*
X148655000Y-53865000D01*
X148655000Y-53865000D02*
X148655000Y-62495000D01*
X147765000Y-62925000D02*
X147765000Y-62495000D01*
X147005000Y-62925000D02*
X147005000Y-62495000D01*
X147765000Y-65465000D02*
X147765000Y-64985000D01*
X147005000Y-65465000D02*
X147005000Y-64985000D01*
X146115000Y-62495000D02*
X143575000Y-62495000D01*
X143575000Y-62495000D02*
X143575000Y-53865000D01*
X143575000Y-53865000D02*
X146115000Y-53865000D01*
X146115000Y-53865000D02*
X146115000Y-62495000D01*
X145225000Y-62925000D02*
X145225000Y-62495000D01*
X144465000Y-62925000D02*
X144465000Y-62495000D01*
X145225000Y-65465000D02*
X145225000Y-64985000D01*
X144465000Y-65465000D02*
X144465000Y-64985000D01*
X143575000Y-62495000D02*
X141035000Y-62495000D01*
X141035000Y-62495000D02*
X141035000Y-53865000D01*
X141035000Y-53865000D02*
X143575000Y-53865000D01*
X143575000Y-53865000D02*
X143575000Y-62495000D01*
X142685000Y-62925000D02*
X142685000Y-62495000D01*
X141925000Y-62925000D02*
X141925000Y-62495000D01*
X142685000Y-65465000D02*
X142685000Y-64985000D01*
X141925000Y-65465000D02*
X141925000Y-64985000D01*
X141035000Y-62495000D02*
X138495000Y-62495000D01*
X138495000Y-62495000D02*
X138495000Y-53865000D01*
X138495000Y-53865000D02*
X141035000Y-53865000D01*
X141035000Y-53865000D02*
X141035000Y-62495000D01*
X140145000Y-62925000D02*
X140145000Y-62495000D01*
X139385000Y-62925000D02*
X139385000Y-62495000D01*
X140145000Y-65465000D02*
X140145000Y-64985000D01*
X139385000Y-65465000D02*
X139385000Y-64985000D01*
X138495000Y-62495000D02*
X135955000Y-62495000D01*
X135955000Y-62495000D02*
X135955000Y-53865000D01*
X135955000Y-53865000D02*
X138495000Y-53865000D01*
X138495000Y-53865000D02*
X138495000Y-62495000D01*
X137605000Y-62925000D02*
X137605000Y-62495000D01*
X136845000Y-62925000D02*
X136845000Y-62495000D01*
X137605000Y-65465000D02*
X137605000Y-64985000D01*
X136845000Y-65465000D02*
X136845000Y-64985000D01*
X135955000Y-62495000D02*
X133355000Y-62495000D01*
X133355000Y-62495000D02*
X133355000Y-53865000D01*
X133355000Y-53865000D02*
X135955000Y-53865000D01*
X135955000Y-53865000D02*
X135955000Y-62495000D01*
X135065000Y-62925000D02*
X135065000Y-62495000D01*
X134305000Y-62925000D02*
X134305000Y-62495000D01*
X135065000Y-65465000D02*
X135065000Y-64985000D01*
X134305000Y-65465000D02*
X134305000Y-64985000D01*
X184215000Y-66495000D02*
X184215000Y-67765000D01*
X184215000Y-67765000D02*
X182945000Y-67765000D01*
G04 #@! TO.C,C1*
X100530000Y-117410000D02*
X100530000Y-117970000D01*
X100530000Y-115350000D02*
X100530000Y-115910000D01*
X96410000Y-117410000D02*
X96410000Y-117970000D01*
X96410000Y-115350000D02*
X96410000Y-115910000D01*
X96410000Y-117970000D02*
X100530000Y-117970000D01*
X96410000Y-115350000D02*
X100530000Y-115350000D01*
G04 #@! TO.C,C2*
X104030000Y-115350000D02*
X108150000Y-115350000D01*
X104030000Y-117970000D02*
X108150000Y-117970000D01*
X104030000Y-115350000D02*
X104030000Y-115910000D01*
X104030000Y-117410000D02*
X104030000Y-117970000D01*
X108150000Y-115350000D02*
X108150000Y-115910000D01*
X108150000Y-117410000D02*
X108150000Y-117970000D01*
G04 #@! TO.C,C3*
X125660000Y-115275000D02*
X125660000Y-114715000D01*
X125660000Y-117335000D02*
X125660000Y-116775000D01*
X129780000Y-115275000D02*
X129780000Y-114715000D01*
X129780000Y-117335000D02*
X129780000Y-116775000D01*
X129780000Y-114715000D02*
X125660000Y-114715000D01*
X129780000Y-117335000D02*
X125660000Y-117335000D01*
G04 #@! TO.C,C4*
X141210000Y-116700000D02*
X137090000Y-116700000D01*
X141210000Y-114080000D02*
X137090000Y-114080000D01*
X141210000Y-116700000D02*
X141210000Y-116140000D01*
X141210000Y-114640000D02*
X141210000Y-114080000D01*
X137090000Y-116700000D02*
X137090000Y-116140000D01*
X137090000Y-114640000D02*
X137090000Y-114080000D01*
G04 #@! TO.C,C5*
X148520000Y-114640000D02*
X148520000Y-114080000D01*
X148520000Y-116700000D02*
X148520000Y-116140000D01*
X152640000Y-114640000D02*
X152640000Y-114080000D01*
X152640000Y-116700000D02*
X152640000Y-116140000D01*
X152640000Y-114080000D02*
X148520000Y-114080000D01*
X152640000Y-116700000D02*
X148520000Y-116700000D01*
G04 #@! TO.C,C6*
X164070000Y-116700000D02*
X159950000Y-116700000D01*
X164070000Y-114080000D02*
X159950000Y-114080000D01*
X164070000Y-116700000D02*
X164070000Y-116140000D01*
X164070000Y-114640000D02*
X164070000Y-114080000D01*
X159950000Y-116700000D02*
X159950000Y-116140000D01*
X159950000Y-114640000D02*
X159950000Y-114080000D01*
G04 #@! TO.C,C7*
X175500000Y-116700000D02*
X171380000Y-116700000D01*
X175500000Y-114080000D02*
X171380000Y-114080000D01*
X175500000Y-116700000D02*
X175500000Y-116140000D01*
X175500000Y-114640000D02*
X175500000Y-114080000D01*
X171380000Y-116700000D02*
X171380000Y-116140000D01*
X171380000Y-114640000D02*
X171380000Y-114080000D01*
G04 #@! TO.C,C8*
X182810000Y-114640000D02*
X182810000Y-114080000D01*
X182810000Y-116700000D02*
X182810000Y-116140000D01*
X186930000Y-114640000D02*
X186930000Y-114080000D01*
X186930000Y-116700000D02*
X186930000Y-116140000D01*
X186930000Y-114080000D02*
X182810000Y-114080000D01*
X186930000Y-116700000D02*
X182810000Y-116700000D01*
G04 #@! TO.C,C9*
X118350000Y-95110000D02*
X114230000Y-95110000D01*
X118350000Y-92490000D02*
X114230000Y-92490000D01*
X118350000Y-95110000D02*
X118350000Y-94550000D01*
X118350000Y-93050000D02*
X118350000Y-92490000D01*
X114230000Y-95110000D02*
X114230000Y-94550000D01*
X114230000Y-93050000D02*
X114230000Y-92490000D01*
G04 #@! TO.C,C10*
X114230000Y-74000000D02*
X114230000Y-73440000D01*
X114230000Y-76060000D02*
X114230000Y-75500000D01*
X118350000Y-74000000D02*
X118350000Y-73440000D01*
X118350000Y-76060000D02*
X118350000Y-75500000D01*
X118350000Y-73440000D02*
X114230000Y-73440000D01*
X118350000Y-76060000D02*
X114230000Y-76060000D01*
G04 #@! TO.C,C11*
X126470000Y-62510000D02*
X126470000Y-66630000D01*
X123850000Y-62510000D02*
X123850000Y-66630000D01*
X126470000Y-62510000D02*
X125910000Y-62510000D01*
X124410000Y-62510000D02*
X123850000Y-62510000D01*
X126470000Y-66630000D02*
X125910000Y-66630000D01*
X124410000Y-66630000D02*
X123850000Y-66630000D01*
G04 #@! TO.C,C12*
X141170000Y-93280000D02*
X141170000Y-93840000D01*
X141170000Y-91220000D02*
X141170000Y-91780000D01*
X137050000Y-93280000D02*
X137050000Y-93840000D01*
X137050000Y-91220000D02*
X137050000Y-91780000D01*
X137050000Y-93840000D02*
X141170000Y-93840000D01*
X137050000Y-91220000D02*
X141170000Y-91220000D01*
G04 #@! TO.C,C14*
X114230000Y-54950000D02*
X114230000Y-54390000D01*
X114230000Y-57010000D02*
X114230000Y-56450000D01*
X118350000Y-54950000D02*
X118350000Y-54390000D01*
X118350000Y-57010000D02*
X118350000Y-56450000D01*
X118350000Y-54390000D02*
X114230000Y-54390000D01*
X118350000Y-57010000D02*
X114230000Y-57010000D01*
G04 #@! TO.C,J1*
X93815000Y-123220000D02*
X93815000Y-135820000D01*
X93815000Y-135820000D02*
X109215000Y-135820000D01*
X109215000Y-135820000D02*
X109215000Y-134870000D01*
X109215000Y-134870000D02*
X109715000Y-135170000D01*
X109715000Y-135170000D02*
X109715000Y-133170000D01*
X109715000Y-133170000D02*
X109215000Y-133420000D01*
X109215000Y-133420000D02*
X109215000Y-128020000D01*
X109215000Y-128020000D02*
X109715000Y-128270000D01*
X109715000Y-128270000D02*
X109715000Y-123220000D01*
X109715000Y-123220000D02*
X93815000Y-123220000D01*
G04 #@! TO.C,J2*
X124715000Y-123220000D02*
X108815000Y-123220000D01*
X124715000Y-128270000D02*
X124715000Y-123220000D01*
X124215000Y-128020000D02*
X124715000Y-128270000D01*
X124215000Y-133420000D02*
X124215000Y-128020000D01*
X124715000Y-133170000D02*
X124215000Y-133420000D01*
X124715000Y-135170000D02*
X124715000Y-133170000D01*
X124215000Y-134870000D02*
X124715000Y-135170000D01*
X124215000Y-135820000D02*
X124215000Y-134870000D01*
X108815000Y-135820000D02*
X124215000Y-135820000D01*
X108815000Y-123220000D02*
X108815000Y-135820000D01*
G04 #@! TO.C,J3*
X137840000Y-123220000D02*
X126990000Y-123220000D01*
X137840000Y-128320000D02*
X137840000Y-123220000D01*
X137340000Y-128020000D02*
X137840000Y-128320000D01*
X137340000Y-133420000D02*
X137340000Y-128020000D01*
X137840000Y-133170000D02*
X137340000Y-133420000D01*
X137840000Y-133220000D02*
X137840000Y-133170000D01*
X137840000Y-135120000D02*
X137840000Y-133220000D01*
X137340000Y-134870000D02*
X137840000Y-135120000D01*
X137340000Y-135820000D02*
X137340000Y-134870000D01*
X126990000Y-135820000D02*
X137340000Y-135820000D01*
X126990000Y-123220000D02*
X126990000Y-135820000D01*
G04 #@! TO.C,J4*
X136990000Y-123220000D02*
X136990000Y-135820000D01*
X136990000Y-135820000D02*
X147340000Y-135820000D01*
X147340000Y-135820000D02*
X147340000Y-134870000D01*
X147340000Y-134870000D02*
X147840000Y-135120000D01*
X147840000Y-135120000D02*
X147840000Y-133220000D01*
X147840000Y-133220000D02*
X147840000Y-133170000D01*
X147840000Y-133170000D02*
X147340000Y-133420000D01*
X147340000Y-133420000D02*
X147340000Y-128020000D01*
X147340000Y-128020000D02*
X147840000Y-128320000D01*
X147840000Y-128320000D02*
X147840000Y-123220000D01*
X147840000Y-123220000D02*
X136990000Y-123220000D01*
G04 #@! TO.C,J5*
X157840000Y-123220000D02*
X146990000Y-123220000D01*
X157840000Y-128320000D02*
X157840000Y-123220000D01*
X157340000Y-128020000D02*
X157840000Y-128320000D01*
X157340000Y-133420000D02*
X157340000Y-128020000D01*
X157840000Y-133170000D02*
X157340000Y-133420000D01*
X157840000Y-133220000D02*
X157840000Y-133170000D01*
X157840000Y-135120000D02*
X157840000Y-133220000D01*
X157340000Y-134870000D02*
X157840000Y-135120000D01*
X157340000Y-135820000D02*
X157340000Y-134870000D01*
X146990000Y-135820000D02*
X157340000Y-135820000D01*
X146990000Y-123220000D02*
X146990000Y-135820000D01*
G04 #@! TO.C,J6*
X139070000Y-87510000D02*
X141730000Y-87510000D01*
X139070000Y-74750000D02*
X139070000Y-87510000D01*
X141730000Y-74750000D02*
X141730000Y-87510000D01*
X139070000Y-74750000D02*
X141730000Y-74750000D01*
X139070000Y-73480000D02*
X139070000Y-72150000D01*
X139070000Y-72150000D02*
X140400000Y-72150000D01*
G04 #@! TO.C,J7*
X149230000Y-111640000D02*
X151890000Y-111640000D01*
X149230000Y-98880000D02*
X149230000Y-111640000D01*
X151890000Y-98880000D02*
X151890000Y-111640000D01*
X149230000Y-98880000D02*
X151890000Y-98880000D01*
X149230000Y-97610000D02*
X149230000Y-96280000D01*
X149230000Y-96280000D02*
X150560000Y-96280000D01*
G04 #@! TO.C,J8*
X128910000Y-72150000D02*
X130240000Y-72150000D01*
X128910000Y-73480000D02*
X128910000Y-72150000D01*
X128910000Y-74750000D02*
X131570000Y-74750000D01*
X131570000Y-74750000D02*
X131570000Y-87510000D01*
X128910000Y-74750000D02*
X128910000Y-87510000D01*
X128910000Y-87510000D02*
X131570000Y-87510000D01*
G04 #@! TO.C,J9*
X126370000Y-96280000D02*
X127700000Y-96280000D01*
X126370000Y-97610000D02*
X126370000Y-96280000D01*
X126370000Y-98880000D02*
X129030000Y-98880000D01*
X129030000Y-98880000D02*
X129030000Y-111640000D01*
X126370000Y-98880000D02*
X126370000Y-111640000D01*
X126370000Y-111640000D02*
X129030000Y-111640000D01*
G04 #@! TO.C,J11*
X159530000Y-123220000D02*
X159530000Y-135820000D01*
X159530000Y-135820000D02*
X169880000Y-135820000D01*
X169880000Y-135820000D02*
X169880000Y-134870000D01*
X169880000Y-134870000D02*
X170380000Y-135120000D01*
X170380000Y-135120000D02*
X170380000Y-133220000D01*
X170380000Y-133220000D02*
X170380000Y-133170000D01*
X170380000Y-133170000D02*
X169880000Y-133420000D01*
X169880000Y-133420000D02*
X169880000Y-128020000D01*
X169880000Y-128020000D02*
X170380000Y-128320000D01*
X170380000Y-128320000D02*
X170380000Y-123220000D01*
X170380000Y-123220000D02*
X159530000Y-123220000D01*
G04 #@! TO.C,J12*
X180380000Y-123220000D02*
X169530000Y-123220000D01*
X180380000Y-128320000D02*
X180380000Y-123220000D01*
X179880000Y-128020000D02*
X180380000Y-128320000D01*
X179880000Y-133420000D02*
X179880000Y-128020000D01*
X180380000Y-133170000D02*
X179880000Y-133420000D01*
X180380000Y-133220000D02*
X180380000Y-133170000D01*
X180380000Y-135120000D02*
X180380000Y-133220000D01*
X179880000Y-134870000D02*
X180380000Y-135120000D01*
X179880000Y-135820000D02*
X179880000Y-134870000D01*
X169530000Y-135820000D02*
X179880000Y-135820000D01*
X169530000Y-123220000D02*
X169530000Y-135820000D01*
G04 #@! TO.C,J13*
X179530000Y-123220000D02*
X179530000Y-135820000D01*
X179530000Y-135820000D02*
X189880000Y-135820000D01*
X189880000Y-135820000D02*
X189880000Y-134870000D01*
X189880000Y-134870000D02*
X190380000Y-135120000D01*
X190380000Y-135120000D02*
X190380000Y-133220000D01*
X190380000Y-133220000D02*
X190380000Y-133170000D01*
X190380000Y-133170000D02*
X189880000Y-133420000D01*
X189880000Y-133420000D02*
X189880000Y-128020000D01*
X189880000Y-128020000D02*
X190380000Y-128320000D01*
X190380000Y-128320000D02*
X190380000Y-123220000D01*
X190380000Y-123220000D02*
X179530000Y-123220000D01*
G04 #@! TO.C,J14*
X179710000Y-96280000D02*
X181040000Y-96280000D01*
X179710000Y-97610000D02*
X179710000Y-96280000D01*
X179710000Y-98880000D02*
X182370000Y-98880000D01*
X182370000Y-98880000D02*
X182370000Y-111640000D01*
X179710000Y-98880000D02*
X179710000Y-111640000D01*
X179710000Y-111640000D02*
X182370000Y-111640000D01*
G04 #@! TO.C,J15*
X108440000Y-90270000D02*
X108440000Y-74370000D01*
X103390000Y-90270000D02*
X108440000Y-90270000D01*
X103640000Y-89770000D02*
X103390000Y-90270000D01*
X98240000Y-89770000D02*
X103640000Y-89770000D01*
X98490000Y-90270000D02*
X98240000Y-89770000D01*
X96490000Y-90270000D02*
X98490000Y-90270000D01*
X96790000Y-89770000D02*
X96490000Y-90270000D01*
X95840000Y-89770000D02*
X96790000Y-89770000D01*
X95840000Y-74370000D02*
X95840000Y-89770000D01*
X108440000Y-74370000D02*
X95840000Y-74370000D01*
G04 #@! TO.C,J16*
X156850000Y-111640000D02*
X159510000Y-111640000D01*
X156850000Y-98880000D02*
X156850000Y-111640000D01*
X159510000Y-98880000D02*
X159510000Y-111640000D01*
X156850000Y-98880000D02*
X159510000Y-98880000D01*
X156850000Y-97610000D02*
X156850000Y-96280000D01*
X156850000Y-96280000D02*
X158180000Y-96280000D01*
G04 #@! TO.C,J17*
X176010000Y-87560000D02*
X188610000Y-87560000D01*
X188610000Y-87560000D02*
X188610000Y-77210000D01*
X188610000Y-77210000D02*
X187660000Y-77210000D01*
X187660000Y-77210000D02*
X187910000Y-76710000D01*
X187910000Y-76710000D02*
X186010000Y-76710000D01*
X186010000Y-76710000D02*
X185960000Y-76710000D01*
X185960000Y-76710000D02*
X186210000Y-77210000D01*
X186210000Y-77210000D02*
X180810000Y-77210000D01*
X180810000Y-77210000D02*
X181110000Y-76710000D01*
X181110000Y-76710000D02*
X176010000Y-76710000D01*
X176010000Y-76710000D02*
X176010000Y-87560000D01*
G04 #@! TO.C,J18*
X187330000Y-96280000D02*
X188660000Y-96280000D01*
X187330000Y-97610000D02*
X187330000Y-96280000D01*
X187330000Y-98880000D02*
X189990000Y-98880000D01*
X189990000Y-98880000D02*
X189990000Y-111640000D01*
X187330000Y-98880000D02*
X187330000Y-111640000D01*
X187330000Y-111640000D02*
X189990000Y-111640000D01*
G04 #@! TO.C,J19*
X108440000Y-100220000D02*
X108440000Y-89370000D01*
X103340000Y-100220000D02*
X108440000Y-100220000D01*
X103640000Y-99720000D02*
X103340000Y-100220000D01*
X98240000Y-99720000D02*
X103640000Y-99720000D01*
X98490000Y-100220000D02*
X98240000Y-99720000D01*
X98440000Y-100220000D02*
X98490000Y-100220000D01*
X96540000Y-100220000D02*
X98440000Y-100220000D01*
X96790000Y-99720000D02*
X96540000Y-100220000D01*
X95840000Y-99720000D02*
X96790000Y-99720000D01*
X95840000Y-89370000D02*
X95840000Y-99720000D01*
X108440000Y-89370000D02*
X95840000Y-89370000D01*
G04 #@! TO.C,R1*
X130910000Y-120510000D02*
X130910000Y-120180000D01*
X124490000Y-120510000D02*
X130910000Y-120510000D01*
X124490000Y-120180000D02*
X124490000Y-120510000D01*
X130910000Y-117890000D02*
X130910000Y-118220000D01*
X124490000Y-117890000D02*
X130910000Y-117890000D01*
X124490000Y-118220000D02*
X124490000Y-117890000D01*
G04 #@! TO.C,R2*
X142340000Y-120510000D02*
X142340000Y-120180000D01*
X135920000Y-120510000D02*
X142340000Y-120510000D01*
X135920000Y-120180000D02*
X135920000Y-120510000D01*
X142340000Y-117890000D02*
X142340000Y-118220000D01*
X135920000Y-117890000D02*
X142340000Y-117890000D01*
X135920000Y-118220000D02*
X135920000Y-117890000D01*
G04 #@! TO.C,R3*
X153770000Y-120510000D02*
X153770000Y-120180000D01*
X147350000Y-120510000D02*
X153770000Y-120510000D01*
X147350000Y-120180000D02*
X147350000Y-120510000D01*
X153770000Y-117890000D02*
X153770000Y-118220000D01*
X147350000Y-117890000D02*
X153770000Y-117890000D01*
X147350000Y-118220000D02*
X147350000Y-117890000D01*
G04 #@! TO.C,R4*
X158780000Y-118220000D02*
X158780000Y-117890000D01*
X158780000Y-117890000D02*
X165200000Y-117890000D01*
X165200000Y-117890000D02*
X165200000Y-118220000D01*
X158780000Y-120180000D02*
X158780000Y-120510000D01*
X158780000Y-120510000D02*
X165200000Y-120510000D01*
X165200000Y-120510000D02*
X165200000Y-120180000D01*
G04 #@! TO.C,R5*
X176630000Y-120510000D02*
X176630000Y-120180000D01*
X170210000Y-120510000D02*
X176630000Y-120510000D01*
X170210000Y-120180000D02*
X170210000Y-120510000D01*
X176630000Y-117890000D02*
X176630000Y-118220000D01*
X170210000Y-117890000D02*
X176630000Y-117890000D01*
X170210000Y-118220000D02*
X170210000Y-117890000D01*
G04 #@! TO.C,R6*
X181640000Y-118220000D02*
X181640000Y-117890000D01*
X181640000Y-117890000D02*
X188060000Y-117890000D01*
X188060000Y-117890000D02*
X188060000Y-118220000D01*
X181640000Y-120180000D02*
X181640000Y-120510000D01*
X181640000Y-120510000D02*
X188060000Y-120510000D01*
X188060000Y-120510000D02*
X188060000Y-120180000D01*
G04 #@! TO.C,R7*
X104240000Y-71920000D02*
X104240000Y-72250000D01*
X104240000Y-72250000D02*
X97820000Y-72250000D01*
X97820000Y-72250000D02*
X97820000Y-71920000D01*
X104240000Y-69960000D02*
X104240000Y-69630000D01*
X104240000Y-69630000D02*
X97820000Y-69630000D01*
X97820000Y-69630000D02*
X97820000Y-69960000D01*
G04 #@! TO.C,R8*
X104240000Y-104940000D02*
X104240000Y-105270000D01*
X104240000Y-105270000D02*
X97820000Y-105270000D01*
X97820000Y-105270000D02*
X97820000Y-104940000D01*
X104240000Y-102980000D02*
X104240000Y-102650000D01*
X104240000Y-102650000D02*
X97820000Y-102650000D01*
X97820000Y-102650000D02*
X97820000Y-102980000D01*
D15*
G04 #@! TO.C,U1*
X112790200Y-68400000D02*
X119749800Y-68400000D01*
X119749800Y-58240000D02*
X116574800Y-58240000D01*
X116574800Y-58240000D02*
X115965200Y-58240000D01*
X115965200Y-58240000D02*
X113603000Y-58240000D01*
X116574800Y-58240000D02*
G75*
G02X115965200Y-58240000I-304800J0D01*
G01*
G04 #@! TO.C,U2*
X116574800Y-77290000D02*
G75*
G02X115965200Y-77290000I-304800J0D01*
G01*
X115965200Y-77290000D02*
X113603000Y-77290000D01*
X116574800Y-77290000D02*
X115965200Y-77290000D01*
X119749800Y-77290000D02*
X116574800Y-77290000D01*
X112790200Y-87450000D02*
X119749800Y-87450000D01*
D14*
G04 #@! TO.C,U3*
X118920000Y-97550000D02*
X117270000Y-97550000D01*
X118920000Y-117990000D02*
X118920000Y-97550000D01*
X113620000Y-117990000D02*
X118920000Y-117990000D01*
X113620000Y-97550000D02*
X113620000Y-117990000D01*
X115270000Y-97550000D02*
X113620000Y-97550000D01*
X117270000Y-97550000D02*
G75*
G02X115270000Y-97550000I-1000000J0D01*
G01*
G04 #@! TO.C,J21*
X178440000Y-74810000D02*
X178440000Y-73480000D01*
X179770000Y-74810000D02*
X178440000Y-74810000D01*
X181040000Y-72150000D02*
X181040000Y-74810000D01*
X188720000Y-72150000D02*
X181040000Y-72150000D01*
X188720000Y-74810000D02*
X188720000Y-72150000D01*
X181040000Y-74810000D02*
X188720000Y-74810000D01*
G04 #@! TO.C,J20*
X165740000Y-69610000D02*
X167070000Y-69610000D01*
X165740000Y-70940000D02*
X165740000Y-69610000D01*
X168400000Y-72210000D02*
X165740000Y-72210000D01*
X168400000Y-95130000D02*
X168400000Y-72210000D01*
X165740000Y-95130000D02*
X168400000Y-95130000D01*
X165740000Y-72210000D02*
X165740000Y-95130000D01*
G04 #@! TO.C,J22*
X98430000Y-56910000D02*
X99760000Y-56910000D01*
X98430000Y-58240000D02*
X98430000Y-56910000D01*
X101090000Y-59510000D02*
X98430000Y-59510000D01*
X101090000Y-64650000D02*
X101090000Y-59510000D01*
X98430000Y-64650000D02*
X101090000Y-64650000D01*
X98430000Y-59510000D02*
X98430000Y-64650000D01*
G04 #@! TO.C,R9*
X104240000Y-109080000D02*
X104240000Y-108750000D01*
X97820000Y-109080000D02*
X104240000Y-109080000D01*
X97820000Y-108750000D02*
X97820000Y-109080000D01*
X104240000Y-106460000D02*
X104240000Y-106790000D01*
X97820000Y-106460000D02*
X104240000Y-106460000D01*
X97820000Y-106790000D02*
X97820000Y-106460000D01*
G04 #@! TO.C,R10*
X97820000Y-110600000D02*
X97820000Y-110270000D01*
X97820000Y-110270000D02*
X104240000Y-110270000D01*
X104240000Y-110270000D02*
X104240000Y-110600000D01*
X97820000Y-112560000D02*
X97820000Y-112890000D01*
X97820000Y-112890000D02*
X104240000Y-112890000D01*
X104240000Y-112890000D02*
X104240000Y-112560000D01*
G04 #@! TO.C,R11*
X104240000Y-121450000D02*
X104240000Y-121780000D01*
X104240000Y-121780000D02*
X97820000Y-121780000D01*
X97820000Y-121780000D02*
X97820000Y-121450000D01*
X104240000Y-119490000D02*
X104240000Y-119160000D01*
X104240000Y-119160000D02*
X97820000Y-119160000D01*
X97820000Y-119160000D02*
X97820000Y-119490000D01*
G04 #@! TO.C,R12*
X115035000Y-121780000D02*
X115035000Y-121450000D01*
X108615000Y-121780000D02*
X115035000Y-121780000D01*
X108615000Y-121450000D02*
X108615000Y-121780000D01*
X115035000Y-119160000D02*
X115035000Y-119490000D01*
X108615000Y-119160000D02*
X115035000Y-119160000D01*
X108615000Y-119490000D02*
X108615000Y-119160000D01*
G04 #@! TO.C,C13*
D11*
X167412142Y-82357857D02*
X167459761Y-82405476D01*
X167507380Y-82548333D01*
X167507380Y-82643571D01*
X167459761Y-82786428D01*
X167364523Y-82881666D01*
X167269285Y-82929285D01*
X167078809Y-82976904D01*
X166935952Y-82976904D01*
X166745476Y-82929285D01*
X166650238Y-82881666D01*
X166555000Y-82786428D01*
X166507380Y-82643571D01*
X166507380Y-82548333D01*
X166555000Y-82405476D01*
X166602619Y-82357857D01*
X167507380Y-81405476D02*
X167507380Y-81976904D01*
X167507380Y-81691190D02*
X166507380Y-81691190D01*
X166650238Y-81786428D01*
X166745476Y-81881666D01*
X166793095Y-81976904D01*
X166507380Y-81072142D02*
X166507380Y-80453095D01*
X166888333Y-80786428D01*
X166888333Y-80643571D01*
X166935952Y-80548333D01*
X166983571Y-80500714D01*
X167078809Y-80453095D01*
X167316904Y-80453095D01*
X167412142Y-80500714D01*
X167459761Y-80548333D01*
X167507380Y-80643571D01*
X167507380Y-80929285D01*
X167459761Y-81024523D01*
X167412142Y-81072142D01*
G04 #@! TO.C,J10*
X184667380Y-61654523D02*
X185381666Y-61654523D01*
X185524523Y-61702142D01*
X185619761Y-61797380D01*
X185667380Y-61940238D01*
X185667380Y-62035476D01*
X185667380Y-60654523D02*
X185667380Y-61225952D01*
X185667380Y-60940238D02*
X184667380Y-60940238D01*
X184810238Y-61035476D01*
X184905476Y-61130714D01*
X184953095Y-61225952D01*
X184667380Y-60035476D02*
X184667380Y-59940238D01*
X184715000Y-59845000D01*
X184762619Y-59797380D01*
X184857857Y-59749761D01*
X185048333Y-59702142D01*
X185286428Y-59702142D01*
X185476904Y-59749761D01*
X185572142Y-59797380D01*
X185619761Y-59845000D01*
X185667380Y-59940238D01*
X185667380Y-60035476D01*
X185619761Y-60130714D01*
X185572142Y-60178333D01*
X185476904Y-60225952D01*
X185286428Y-60273571D01*
X185048333Y-60273571D01*
X184857857Y-60225952D01*
X184762619Y-60178333D01*
X184715000Y-60130714D01*
X184667380Y-60035476D01*
G04 #@! TO.C,C1*
X98303333Y-114457142D02*
X98255714Y-114504761D01*
X98112857Y-114552380D01*
X98017619Y-114552380D01*
X97874761Y-114504761D01*
X97779523Y-114409523D01*
X97731904Y-114314285D01*
X97684285Y-114123809D01*
X97684285Y-113980952D01*
X97731904Y-113790476D01*
X97779523Y-113695238D01*
X97874761Y-113600000D01*
X98017619Y-113552380D01*
X98112857Y-113552380D01*
X98255714Y-113600000D01*
X98303333Y-113647619D01*
X99255714Y-114552380D02*
X98684285Y-114552380D01*
X98970000Y-114552380D02*
X98970000Y-113552380D01*
X98874761Y-113695238D01*
X98779523Y-113790476D01*
X98684285Y-113838095D01*
G04 #@! TO.C,C2*
X105923333Y-114457142D02*
X105875714Y-114504761D01*
X105732857Y-114552380D01*
X105637619Y-114552380D01*
X105494761Y-114504761D01*
X105399523Y-114409523D01*
X105351904Y-114314285D01*
X105304285Y-114123809D01*
X105304285Y-113980952D01*
X105351904Y-113790476D01*
X105399523Y-113695238D01*
X105494761Y-113600000D01*
X105637619Y-113552380D01*
X105732857Y-113552380D01*
X105875714Y-113600000D01*
X105923333Y-113647619D01*
X106304285Y-113647619D02*
X106351904Y-113600000D01*
X106447142Y-113552380D01*
X106685238Y-113552380D01*
X106780476Y-113600000D01*
X106828095Y-113647619D01*
X106875714Y-113742857D01*
X106875714Y-113838095D01*
X106828095Y-113980952D01*
X106256666Y-114552380D01*
X106875714Y-114552380D01*
G04 #@! TO.C,C3*
X127553333Y-113842142D02*
X127505714Y-113889761D01*
X127362857Y-113937380D01*
X127267619Y-113937380D01*
X127124761Y-113889761D01*
X127029523Y-113794523D01*
X126981904Y-113699285D01*
X126934285Y-113508809D01*
X126934285Y-113365952D01*
X126981904Y-113175476D01*
X127029523Y-113080238D01*
X127124761Y-112985000D01*
X127267619Y-112937380D01*
X127362857Y-112937380D01*
X127505714Y-112985000D01*
X127553333Y-113032619D01*
X127886666Y-112937380D02*
X128505714Y-112937380D01*
X128172380Y-113318333D01*
X128315238Y-113318333D01*
X128410476Y-113365952D01*
X128458095Y-113413571D01*
X128505714Y-113508809D01*
X128505714Y-113746904D01*
X128458095Y-113842142D01*
X128410476Y-113889761D01*
X128315238Y-113937380D01*
X128029523Y-113937380D01*
X127934285Y-113889761D01*
X127886666Y-113842142D01*
G04 #@! TO.C,C4*
X138983333Y-113207142D02*
X138935714Y-113254761D01*
X138792857Y-113302380D01*
X138697619Y-113302380D01*
X138554761Y-113254761D01*
X138459523Y-113159523D01*
X138411904Y-113064285D01*
X138364285Y-112873809D01*
X138364285Y-112730952D01*
X138411904Y-112540476D01*
X138459523Y-112445238D01*
X138554761Y-112350000D01*
X138697619Y-112302380D01*
X138792857Y-112302380D01*
X138935714Y-112350000D01*
X138983333Y-112397619D01*
X139840476Y-112635714D02*
X139840476Y-113302380D01*
X139602380Y-112254761D02*
X139364285Y-112969047D01*
X139983333Y-112969047D01*
G04 #@! TO.C,C5*
X150393333Y-113207142D02*
X150345714Y-113254761D01*
X150202857Y-113302380D01*
X150107619Y-113302380D01*
X149964761Y-113254761D01*
X149869523Y-113159523D01*
X149821904Y-113064285D01*
X149774285Y-112873809D01*
X149774285Y-112730952D01*
X149821904Y-112540476D01*
X149869523Y-112445238D01*
X149964761Y-112350000D01*
X150107619Y-112302380D01*
X150202857Y-112302380D01*
X150345714Y-112350000D01*
X150393333Y-112397619D01*
X151298095Y-112302380D02*
X150821904Y-112302380D01*
X150774285Y-112778571D01*
X150821904Y-112730952D01*
X150917142Y-112683333D01*
X151155238Y-112683333D01*
X151250476Y-112730952D01*
X151298095Y-112778571D01*
X151345714Y-112873809D01*
X151345714Y-113111904D01*
X151298095Y-113207142D01*
X151250476Y-113254761D01*
X151155238Y-113302380D01*
X150917142Y-113302380D01*
X150821904Y-113254761D01*
X150774285Y-113207142D01*
G04 #@! TO.C,C6*
X161823333Y-113207142D02*
X161775714Y-113254761D01*
X161632857Y-113302380D01*
X161537619Y-113302380D01*
X161394761Y-113254761D01*
X161299523Y-113159523D01*
X161251904Y-113064285D01*
X161204285Y-112873809D01*
X161204285Y-112730952D01*
X161251904Y-112540476D01*
X161299523Y-112445238D01*
X161394761Y-112350000D01*
X161537619Y-112302380D01*
X161632857Y-112302380D01*
X161775714Y-112350000D01*
X161823333Y-112397619D01*
X162680476Y-112302380D02*
X162490000Y-112302380D01*
X162394761Y-112350000D01*
X162347142Y-112397619D01*
X162251904Y-112540476D01*
X162204285Y-112730952D01*
X162204285Y-113111904D01*
X162251904Y-113207142D01*
X162299523Y-113254761D01*
X162394761Y-113302380D01*
X162585238Y-113302380D01*
X162680476Y-113254761D01*
X162728095Y-113207142D01*
X162775714Y-113111904D01*
X162775714Y-112873809D01*
X162728095Y-112778571D01*
X162680476Y-112730952D01*
X162585238Y-112683333D01*
X162394761Y-112683333D01*
X162299523Y-112730952D01*
X162251904Y-112778571D01*
X162204285Y-112873809D01*
G04 #@! TO.C,C7*
X173273333Y-113207142D02*
X173225714Y-113254761D01*
X173082857Y-113302380D01*
X172987619Y-113302380D01*
X172844761Y-113254761D01*
X172749523Y-113159523D01*
X172701904Y-113064285D01*
X172654285Y-112873809D01*
X172654285Y-112730952D01*
X172701904Y-112540476D01*
X172749523Y-112445238D01*
X172844761Y-112350000D01*
X172987619Y-112302380D01*
X173082857Y-112302380D01*
X173225714Y-112350000D01*
X173273333Y-112397619D01*
X173606666Y-112302380D02*
X174273333Y-112302380D01*
X173844761Y-113302380D01*
G04 #@! TO.C,C8*
X184683333Y-113207142D02*
X184635714Y-113254761D01*
X184492857Y-113302380D01*
X184397619Y-113302380D01*
X184254761Y-113254761D01*
X184159523Y-113159523D01*
X184111904Y-113064285D01*
X184064285Y-112873809D01*
X184064285Y-112730952D01*
X184111904Y-112540476D01*
X184159523Y-112445238D01*
X184254761Y-112350000D01*
X184397619Y-112302380D01*
X184492857Y-112302380D01*
X184635714Y-112350000D01*
X184683333Y-112397619D01*
X185254761Y-112730952D02*
X185159523Y-112683333D01*
X185111904Y-112635714D01*
X185064285Y-112540476D01*
X185064285Y-112492857D01*
X185111904Y-112397619D01*
X185159523Y-112350000D01*
X185254761Y-112302380D01*
X185445238Y-112302380D01*
X185540476Y-112350000D01*
X185588095Y-112397619D01*
X185635714Y-112492857D01*
X185635714Y-112540476D01*
X185588095Y-112635714D01*
X185540476Y-112683333D01*
X185445238Y-112730952D01*
X185254761Y-112730952D01*
X185159523Y-112778571D01*
X185111904Y-112826190D01*
X185064285Y-112921428D01*
X185064285Y-113111904D01*
X185111904Y-113207142D01*
X185159523Y-113254761D01*
X185254761Y-113302380D01*
X185445238Y-113302380D01*
X185540476Y-113254761D01*
X185588095Y-113207142D01*
X185635714Y-113111904D01*
X185635714Y-112921428D01*
X185588095Y-112826190D01*
X185540476Y-112778571D01*
X185445238Y-112730952D01*
G04 #@! TO.C,C9*
X116103333Y-91617142D02*
X116055714Y-91664761D01*
X115912857Y-91712380D01*
X115817619Y-91712380D01*
X115674761Y-91664761D01*
X115579523Y-91569523D01*
X115531904Y-91474285D01*
X115484285Y-91283809D01*
X115484285Y-91140952D01*
X115531904Y-90950476D01*
X115579523Y-90855238D01*
X115674761Y-90760000D01*
X115817619Y-90712380D01*
X115912857Y-90712380D01*
X116055714Y-90760000D01*
X116103333Y-90807619D01*
X116579523Y-91712380D02*
X116770000Y-91712380D01*
X116865238Y-91664761D01*
X116912857Y-91617142D01*
X117008095Y-91474285D01*
X117055714Y-91283809D01*
X117055714Y-90902857D01*
X117008095Y-90807619D01*
X116960476Y-90760000D01*
X116865238Y-90712380D01*
X116674761Y-90712380D01*
X116579523Y-90760000D01*
X116531904Y-90807619D01*
X116484285Y-90902857D01*
X116484285Y-91140952D01*
X116531904Y-91236190D01*
X116579523Y-91283809D01*
X116674761Y-91331428D01*
X116865238Y-91331428D01*
X116960476Y-91283809D01*
X117008095Y-91236190D01*
X117055714Y-91140952D01*
G04 #@! TO.C,C10*
X120072142Y-73837142D02*
X120024523Y-73884761D01*
X119881666Y-73932380D01*
X119786428Y-73932380D01*
X119643571Y-73884761D01*
X119548333Y-73789523D01*
X119500714Y-73694285D01*
X119453095Y-73503809D01*
X119453095Y-73360952D01*
X119500714Y-73170476D01*
X119548333Y-73075238D01*
X119643571Y-72980000D01*
X119786428Y-72932380D01*
X119881666Y-72932380D01*
X120024523Y-72980000D01*
X120072142Y-73027619D01*
X121024523Y-73932380D02*
X120453095Y-73932380D01*
X120738809Y-73932380D02*
X120738809Y-72932380D01*
X120643571Y-73075238D01*
X120548333Y-73170476D01*
X120453095Y-73218095D01*
X121643571Y-72932380D02*
X121738809Y-72932380D01*
X121834047Y-72980000D01*
X121881666Y-73027619D01*
X121929285Y-73122857D01*
X121976904Y-73313333D01*
X121976904Y-73551428D01*
X121929285Y-73741904D01*
X121881666Y-73837142D01*
X121834047Y-73884761D01*
X121738809Y-73932380D01*
X121643571Y-73932380D01*
X121548333Y-73884761D01*
X121500714Y-73837142D01*
X121453095Y-73741904D01*
X121405476Y-73551428D01*
X121405476Y-73313333D01*
X121453095Y-73122857D01*
X121500714Y-73027619D01*
X121548333Y-72980000D01*
X121643571Y-72932380D01*
G04 #@! TO.C,C11*
X124517142Y-68757142D02*
X124469523Y-68804761D01*
X124326666Y-68852380D01*
X124231428Y-68852380D01*
X124088571Y-68804761D01*
X123993333Y-68709523D01*
X123945714Y-68614285D01*
X123898095Y-68423809D01*
X123898095Y-68280952D01*
X123945714Y-68090476D01*
X123993333Y-67995238D01*
X124088571Y-67900000D01*
X124231428Y-67852380D01*
X124326666Y-67852380D01*
X124469523Y-67900000D01*
X124517142Y-67947619D01*
X125469523Y-68852380D02*
X124898095Y-68852380D01*
X125183809Y-68852380D02*
X125183809Y-67852380D01*
X125088571Y-67995238D01*
X124993333Y-68090476D01*
X124898095Y-68138095D01*
X126421904Y-68852380D02*
X125850476Y-68852380D01*
X126136190Y-68852380D02*
X126136190Y-67852380D01*
X126040952Y-67995238D01*
X125945714Y-68090476D01*
X125850476Y-68138095D01*
G04 #@! TO.C,C12*
X138467142Y-90327142D02*
X138419523Y-90374761D01*
X138276666Y-90422380D01*
X138181428Y-90422380D01*
X138038571Y-90374761D01*
X137943333Y-90279523D01*
X137895714Y-90184285D01*
X137848095Y-89993809D01*
X137848095Y-89850952D01*
X137895714Y-89660476D01*
X137943333Y-89565238D01*
X138038571Y-89470000D01*
X138181428Y-89422380D01*
X138276666Y-89422380D01*
X138419523Y-89470000D01*
X138467142Y-89517619D01*
X139419523Y-90422380D02*
X138848095Y-90422380D01*
X139133809Y-90422380D02*
X139133809Y-89422380D01*
X139038571Y-89565238D01*
X138943333Y-89660476D01*
X138848095Y-89708095D01*
X139800476Y-89517619D02*
X139848095Y-89470000D01*
X139943333Y-89422380D01*
X140181428Y-89422380D01*
X140276666Y-89470000D01*
X140324285Y-89517619D01*
X140371904Y-89612857D01*
X140371904Y-89708095D01*
X140324285Y-89850952D01*
X139752857Y-90422380D01*
X140371904Y-90422380D01*
G04 #@! TO.C,C14*
X114992142Y-53517142D02*
X114944523Y-53564761D01*
X114801666Y-53612380D01*
X114706428Y-53612380D01*
X114563571Y-53564761D01*
X114468333Y-53469523D01*
X114420714Y-53374285D01*
X114373095Y-53183809D01*
X114373095Y-53040952D01*
X114420714Y-52850476D01*
X114468333Y-52755238D01*
X114563571Y-52660000D01*
X114706428Y-52612380D01*
X114801666Y-52612380D01*
X114944523Y-52660000D01*
X114992142Y-52707619D01*
X115944523Y-53612380D02*
X115373095Y-53612380D01*
X115658809Y-53612380D02*
X115658809Y-52612380D01*
X115563571Y-52755238D01*
X115468333Y-52850476D01*
X115373095Y-52898095D01*
X116801666Y-52945714D02*
X116801666Y-53612380D01*
X116563571Y-52564761D02*
X116325476Y-53279047D01*
X116944523Y-53279047D01*
G04 #@! TO.C,J6*
X140066666Y-70602380D02*
X140066666Y-71316666D01*
X140019047Y-71459523D01*
X139923809Y-71554761D01*
X139780952Y-71602380D01*
X139685714Y-71602380D01*
X140971428Y-70602380D02*
X140780952Y-70602380D01*
X140685714Y-70650000D01*
X140638095Y-70697619D01*
X140542857Y-70840476D01*
X140495238Y-71030952D01*
X140495238Y-71411904D01*
X140542857Y-71507142D01*
X140590476Y-71554761D01*
X140685714Y-71602380D01*
X140876190Y-71602380D01*
X140971428Y-71554761D01*
X141019047Y-71507142D01*
X141066666Y-71411904D01*
X141066666Y-71173809D01*
X141019047Y-71078571D01*
X140971428Y-71030952D01*
X140876190Y-70983333D01*
X140685714Y-70983333D01*
X140590476Y-71030952D01*
X140542857Y-71078571D01*
X140495238Y-71173809D01*
G04 #@! TO.C,J7*
X150226666Y-94732380D02*
X150226666Y-95446666D01*
X150179047Y-95589523D01*
X150083809Y-95684761D01*
X149940952Y-95732380D01*
X149845714Y-95732380D01*
X150607619Y-94732380D02*
X151274285Y-94732380D01*
X150845714Y-95732380D01*
G04 #@! TO.C,J8*
X129906666Y-70602380D02*
X129906666Y-71316666D01*
X129859047Y-71459523D01*
X129763809Y-71554761D01*
X129620952Y-71602380D01*
X129525714Y-71602380D01*
X130525714Y-71030952D02*
X130430476Y-70983333D01*
X130382857Y-70935714D01*
X130335238Y-70840476D01*
X130335238Y-70792857D01*
X130382857Y-70697619D01*
X130430476Y-70650000D01*
X130525714Y-70602380D01*
X130716190Y-70602380D01*
X130811428Y-70650000D01*
X130859047Y-70697619D01*
X130906666Y-70792857D01*
X130906666Y-70840476D01*
X130859047Y-70935714D01*
X130811428Y-70983333D01*
X130716190Y-71030952D01*
X130525714Y-71030952D01*
X130430476Y-71078571D01*
X130382857Y-71126190D01*
X130335238Y-71221428D01*
X130335238Y-71411904D01*
X130382857Y-71507142D01*
X130430476Y-71554761D01*
X130525714Y-71602380D01*
X130716190Y-71602380D01*
X130811428Y-71554761D01*
X130859047Y-71507142D01*
X130906666Y-71411904D01*
X130906666Y-71221428D01*
X130859047Y-71126190D01*
X130811428Y-71078571D01*
X130716190Y-71030952D01*
G04 #@! TO.C,J9*
X127366666Y-94732380D02*
X127366666Y-95446666D01*
X127319047Y-95589523D01*
X127223809Y-95684761D01*
X127080952Y-95732380D01*
X126985714Y-95732380D01*
X127890476Y-95732380D02*
X128080952Y-95732380D01*
X128176190Y-95684761D01*
X128223809Y-95637142D01*
X128319047Y-95494285D01*
X128366666Y-95303809D01*
X128366666Y-94922857D01*
X128319047Y-94827619D01*
X128271428Y-94780000D01*
X128176190Y-94732380D01*
X127985714Y-94732380D01*
X127890476Y-94780000D01*
X127842857Y-94827619D01*
X127795238Y-94922857D01*
X127795238Y-95160952D01*
X127842857Y-95256190D01*
X127890476Y-95303809D01*
X127985714Y-95351428D01*
X128176190Y-95351428D01*
X128271428Y-95303809D01*
X128319047Y-95256190D01*
X128366666Y-95160952D01*
G04 #@! TO.C,J14*
X179595476Y-94522380D02*
X179595476Y-95236666D01*
X179547857Y-95379523D01*
X179452619Y-95474761D01*
X179309761Y-95522380D01*
X179214523Y-95522380D01*
X180595476Y-95522380D02*
X180024047Y-95522380D01*
X180309761Y-95522380D02*
X180309761Y-94522380D01*
X180214523Y-94665238D01*
X180119285Y-94760476D01*
X180024047Y-94808095D01*
X181452619Y-94855714D02*
X181452619Y-95522380D01*
X181214523Y-94474761D02*
X180976428Y-95189047D01*
X181595476Y-95189047D01*
G04 #@! TO.C,J16*
X157370476Y-94732380D02*
X157370476Y-95446666D01*
X157322857Y-95589523D01*
X157227619Y-95684761D01*
X157084761Y-95732380D01*
X156989523Y-95732380D01*
X158370476Y-95732380D02*
X157799047Y-95732380D01*
X158084761Y-95732380D02*
X158084761Y-94732380D01*
X157989523Y-94875238D01*
X157894285Y-94970476D01*
X157799047Y-95018095D01*
X159227619Y-94732380D02*
X159037142Y-94732380D01*
X158941904Y-94780000D01*
X158894285Y-94827619D01*
X158799047Y-94970476D01*
X158751428Y-95160952D01*
X158751428Y-95541904D01*
X158799047Y-95637142D01*
X158846666Y-95684761D01*
X158941904Y-95732380D01*
X159132380Y-95732380D01*
X159227619Y-95684761D01*
X159275238Y-95637142D01*
X159322857Y-95541904D01*
X159322857Y-95303809D01*
X159275238Y-95208571D01*
X159227619Y-95160952D01*
X159132380Y-95113333D01*
X158941904Y-95113333D01*
X158846666Y-95160952D01*
X158799047Y-95208571D01*
X158751428Y-95303809D01*
G04 #@! TO.C,J18*
X187215476Y-94522380D02*
X187215476Y-95236666D01*
X187167857Y-95379523D01*
X187072619Y-95474761D01*
X186929761Y-95522380D01*
X186834523Y-95522380D01*
X188215476Y-95522380D02*
X187644047Y-95522380D01*
X187929761Y-95522380D02*
X187929761Y-94522380D01*
X187834523Y-94665238D01*
X187739285Y-94760476D01*
X187644047Y-94808095D01*
X188786904Y-94950952D02*
X188691666Y-94903333D01*
X188644047Y-94855714D01*
X188596428Y-94760476D01*
X188596428Y-94712857D01*
X188644047Y-94617619D01*
X188691666Y-94570000D01*
X188786904Y-94522380D01*
X188977380Y-94522380D01*
X189072619Y-94570000D01*
X189120238Y-94617619D01*
X189167857Y-94712857D01*
X189167857Y-94760476D01*
X189120238Y-94855714D01*
X189072619Y-94903333D01*
X188977380Y-94950952D01*
X188786904Y-94950952D01*
X188691666Y-94998571D01*
X188644047Y-95046190D01*
X188596428Y-95141428D01*
X188596428Y-95331904D01*
X188644047Y-95427142D01*
X188691666Y-95474761D01*
X188786904Y-95522380D01*
X188977380Y-95522380D01*
X189072619Y-95474761D01*
X189120238Y-95427142D01*
X189167857Y-95331904D01*
X189167857Y-95141428D01*
X189120238Y-95046190D01*
X189072619Y-94998571D01*
X188977380Y-94950952D01*
G04 #@! TO.C,R1*
X127533333Y-122192380D02*
X127200000Y-121716190D01*
X126961904Y-122192380D02*
X126961904Y-121192380D01*
X127342857Y-121192380D01*
X127438095Y-121240000D01*
X127485714Y-121287619D01*
X127533333Y-121382857D01*
X127533333Y-121525714D01*
X127485714Y-121620952D01*
X127438095Y-121668571D01*
X127342857Y-121716190D01*
X126961904Y-121716190D01*
X128485714Y-122192380D02*
X127914285Y-122192380D01*
X128200000Y-122192380D02*
X128200000Y-121192380D01*
X128104761Y-121335238D01*
X128009523Y-121430476D01*
X127914285Y-121478095D01*
G04 #@! TO.C,R2*
X138963333Y-122192380D02*
X138630000Y-121716190D01*
X138391904Y-122192380D02*
X138391904Y-121192380D01*
X138772857Y-121192380D01*
X138868095Y-121240000D01*
X138915714Y-121287619D01*
X138963333Y-121382857D01*
X138963333Y-121525714D01*
X138915714Y-121620952D01*
X138868095Y-121668571D01*
X138772857Y-121716190D01*
X138391904Y-121716190D01*
X139344285Y-121287619D02*
X139391904Y-121240000D01*
X139487142Y-121192380D01*
X139725238Y-121192380D01*
X139820476Y-121240000D01*
X139868095Y-121287619D01*
X139915714Y-121382857D01*
X139915714Y-121478095D01*
X139868095Y-121620952D01*
X139296666Y-122192380D01*
X139915714Y-122192380D01*
G04 #@! TO.C,R3*
X150393333Y-122192380D02*
X150060000Y-121716190D01*
X149821904Y-122192380D02*
X149821904Y-121192380D01*
X150202857Y-121192380D01*
X150298095Y-121240000D01*
X150345714Y-121287619D01*
X150393333Y-121382857D01*
X150393333Y-121525714D01*
X150345714Y-121620952D01*
X150298095Y-121668571D01*
X150202857Y-121716190D01*
X149821904Y-121716190D01*
X150726666Y-121192380D02*
X151345714Y-121192380D01*
X151012380Y-121573333D01*
X151155238Y-121573333D01*
X151250476Y-121620952D01*
X151298095Y-121668571D01*
X151345714Y-121763809D01*
X151345714Y-122001904D01*
X151298095Y-122097142D01*
X151250476Y-122144761D01*
X151155238Y-122192380D01*
X150869523Y-122192380D01*
X150774285Y-122144761D01*
X150726666Y-122097142D01*
G04 #@! TO.C,R4*
X161823333Y-122192380D02*
X161490000Y-121716190D01*
X161251904Y-122192380D02*
X161251904Y-121192380D01*
X161632857Y-121192380D01*
X161728095Y-121240000D01*
X161775714Y-121287619D01*
X161823333Y-121382857D01*
X161823333Y-121525714D01*
X161775714Y-121620952D01*
X161728095Y-121668571D01*
X161632857Y-121716190D01*
X161251904Y-121716190D01*
X162680476Y-121525714D02*
X162680476Y-122192380D01*
X162442380Y-121144761D02*
X162204285Y-121859047D01*
X162823333Y-121859047D01*
G04 #@! TO.C,R5*
X173253333Y-122192380D02*
X172920000Y-121716190D01*
X172681904Y-122192380D02*
X172681904Y-121192380D01*
X173062857Y-121192380D01*
X173158095Y-121240000D01*
X173205714Y-121287619D01*
X173253333Y-121382857D01*
X173253333Y-121525714D01*
X173205714Y-121620952D01*
X173158095Y-121668571D01*
X173062857Y-121716190D01*
X172681904Y-121716190D01*
X174158095Y-121192380D02*
X173681904Y-121192380D01*
X173634285Y-121668571D01*
X173681904Y-121620952D01*
X173777142Y-121573333D01*
X174015238Y-121573333D01*
X174110476Y-121620952D01*
X174158095Y-121668571D01*
X174205714Y-121763809D01*
X174205714Y-122001904D01*
X174158095Y-122097142D01*
X174110476Y-122144761D01*
X174015238Y-122192380D01*
X173777142Y-122192380D01*
X173681904Y-122144761D01*
X173634285Y-122097142D01*
G04 #@! TO.C,R6*
X184683333Y-122192380D02*
X184350000Y-121716190D01*
X184111904Y-122192380D02*
X184111904Y-121192380D01*
X184492857Y-121192380D01*
X184588095Y-121240000D01*
X184635714Y-121287619D01*
X184683333Y-121382857D01*
X184683333Y-121525714D01*
X184635714Y-121620952D01*
X184588095Y-121668571D01*
X184492857Y-121716190D01*
X184111904Y-121716190D01*
X185540476Y-121192380D02*
X185350000Y-121192380D01*
X185254761Y-121240000D01*
X185207142Y-121287619D01*
X185111904Y-121430476D01*
X185064285Y-121620952D01*
X185064285Y-122001904D01*
X185111904Y-122097142D01*
X185159523Y-122144761D01*
X185254761Y-122192380D01*
X185445238Y-122192380D01*
X185540476Y-122144761D01*
X185588095Y-122097142D01*
X185635714Y-122001904D01*
X185635714Y-121763809D01*
X185588095Y-121668571D01*
X185540476Y-121620952D01*
X185445238Y-121573333D01*
X185254761Y-121573333D01*
X185159523Y-121620952D01*
X185111904Y-121668571D01*
X185064285Y-121763809D01*
G04 #@! TO.C,R7*
X107213333Y-71392380D02*
X106880000Y-70916190D01*
X106641904Y-71392380D02*
X106641904Y-70392380D01*
X107022857Y-70392380D01*
X107118095Y-70440000D01*
X107165714Y-70487619D01*
X107213333Y-70582857D01*
X107213333Y-70725714D01*
X107165714Y-70820952D01*
X107118095Y-70868571D01*
X107022857Y-70916190D01*
X106641904Y-70916190D01*
X107546666Y-70392380D02*
X108213333Y-70392380D01*
X107784761Y-71392380D01*
G04 #@! TO.C,R8*
X107213333Y-108857380D02*
X106880000Y-108381190D01*
X106641904Y-108857380D02*
X106641904Y-107857380D01*
X107022857Y-107857380D01*
X107118095Y-107905000D01*
X107165714Y-107952619D01*
X107213333Y-108047857D01*
X107213333Y-108190714D01*
X107165714Y-108285952D01*
X107118095Y-108333571D01*
X107022857Y-108381190D01*
X106641904Y-108381190D01*
X107784761Y-108285952D02*
X107689523Y-108238333D01*
X107641904Y-108190714D01*
X107594285Y-108095476D01*
X107594285Y-108047857D01*
X107641904Y-107952619D01*
X107689523Y-107905000D01*
X107784761Y-107857380D01*
X107975238Y-107857380D01*
X108070476Y-107905000D01*
X108118095Y-107952619D01*
X108165714Y-108047857D01*
X108165714Y-108095476D01*
X108118095Y-108190714D01*
X108070476Y-108238333D01*
X107975238Y-108285952D01*
X107784761Y-108285952D01*
X107689523Y-108333571D01*
X107641904Y-108381190D01*
X107594285Y-108476428D01*
X107594285Y-108666904D01*
X107641904Y-108762142D01*
X107689523Y-108809761D01*
X107784761Y-108857380D01*
X107975238Y-108857380D01*
X108070476Y-108809761D01*
X108118095Y-108762142D01*
X108165714Y-108666904D01*
X108165714Y-108476428D01*
X108118095Y-108381190D01*
X108070476Y-108333571D01*
X107975238Y-108285952D01*
G04 #@! TO.C,U1*
D16*
X114803191Y-68769500D02*
X114803191Y-70100673D01*
X114881495Y-70257282D01*
X114959800Y-70335586D01*
X115116408Y-70413890D01*
X115429625Y-70413890D01*
X115586234Y-70335586D01*
X115664538Y-70257282D01*
X115742842Y-70100673D01*
X115742842Y-68769500D01*
X117387232Y-70413890D02*
X116447581Y-70413890D01*
X116917407Y-70413890D02*
X116917407Y-68769500D01*
X116760798Y-69004413D01*
X116604190Y-69161022D01*
X116447581Y-69239326D01*
G04 #@! TO.C,U2*
X114803191Y-87819500D02*
X114803191Y-89150673D01*
X114881495Y-89307282D01*
X114959800Y-89385586D01*
X115116408Y-89463890D01*
X115429625Y-89463890D01*
X115586234Y-89385586D01*
X115664538Y-89307282D01*
X115742842Y-89150673D01*
X115742842Y-87819500D01*
X116447581Y-87976109D02*
X116525885Y-87897805D01*
X116682494Y-87819500D01*
X117074015Y-87819500D01*
X117230624Y-87897805D01*
X117308928Y-87976109D01*
X117387232Y-88132717D01*
X117387232Y-88289326D01*
X117308928Y-88524239D01*
X116369277Y-89463890D01*
X117387232Y-89463890D01*
G04 #@! TO.C,U3*
D11*
X115508095Y-96002380D02*
X115508095Y-96811904D01*
X115555714Y-96907142D01*
X115603333Y-96954761D01*
X115698571Y-97002380D01*
X115889047Y-97002380D01*
X115984285Y-96954761D01*
X116031904Y-96907142D01*
X116079523Y-96811904D01*
X116079523Y-96002380D01*
X116460476Y-96002380D02*
X117079523Y-96002380D01*
X116746190Y-96383333D01*
X116889047Y-96383333D01*
X116984285Y-96430952D01*
X117031904Y-96478571D01*
X117079523Y-96573809D01*
X117079523Y-96811904D01*
X117031904Y-96907142D01*
X116984285Y-96954761D01*
X116889047Y-97002380D01*
X116603333Y-97002380D01*
X116508095Y-96954761D01*
X116460476Y-96907142D01*
G04 #@! TO.C,J21*
X176892380Y-74289523D02*
X177606666Y-74289523D01*
X177749523Y-74337142D01*
X177844761Y-74432380D01*
X177892380Y-74575238D01*
X177892380Y-74670476D01*
X176987619Y-73860952D02*
X176940000Y-73813333D01*
X176892380Y-73718095D01*
X176892380Y-73480000D01*
X176940000Y-73384761D01*
X176987619Y-73337142D01*
X177082857Y-73289523D01*
X177178095Y-73289523D01*
X177320952Y-73337142D01*
X177892380Y-73908571D01*
X177892380Y-73289523D01*
X177892380Y-72337142D02*
X177892380Y-72908571D01*
X177892380Y-72622857D02*
X176892380Y-72622857D01*
X177035238Y-72718095D01*
X177130476Y-72813333D01*
X177178095Y-72908571D01*
G04 #@! TO.C,J20*
X163085476Y-89442380D02*
X163085476Y-90156666D01*
X163037857Y-90299523D01*
X162942619Y-90394761D01*
X162799761Y-90442380D01*
X162704523Y-90442380D01*
X163514047Y-89537619D02*
X163561666Y-89490000D01*
X163656904Y-89442380D01*
X163895000Y-89442380D01*
X163990238Y-89490000D01*
X164037857Y-89537619D01*
X164085476Y-89632857D01*
X164085476Y-89728095D01*
X164037857Y-89870952D01*
X163466428Y-90442380D01*
X164085476Y-90442380D01*
X164704523Y-89442380D02*
X164799761Y-89442380D01*
X164895000Y-89490000D01*
X164942619Y-89537619D01*
X164990238Y-89632857D01*
X165037857Y-89823333D01*
X165037857Y-90061428D01*
X164990238Y-90251904D01*
X164942619Y-90347142D01*
X164895000Y-90394761D01*
X164799761Y-90442380D01*
X164704523Y-90442380D01*
X164609285Y-90394761D01*
X164561666Y-90347142D01*
X164514047Y-90251904D01*
X164466428Y-90061428D01*
X164466428Y-89823333D01*
X164514047Y-89632857D01*
X164561666Y-89537619D01*
X164609285Y-89490000D01*
X164704523Y-89442380D01*
G04 #@! TO.C,J22*
X98950476Y-55362380D02*
X98950476Y-56076666D01*
X98902857Y-56219523D01*
X98807619Y-56314761D01*
X98664761Y-56362380D01*
X98569523Y-56362380D01*
X99379047Y-55457619D02*
X99426666Y-55410000D01*
X99521904Y-55362380D01*
X99760000Y-55362380D01*
X99855238Y-55410000D01*
X99902857Y-55457619D01*
X99950476Y-55552857D01*
X99950476Y-55648095D01*
X99902857Y-55790952D01*
X99331428Y-56362380D01*
X99950476Y-56362380D01*
X100331428Y-55457619D02*
X100379047Y-55410000D01*
X100474285Y-55362380D01*
X100712380Y-55362380D01*
X100807619Y-55410000D01*
X100855238Y-55457619D01*
X100902857Y-55552857D01*
X100902857Y-55648095D01*
X100855238Y-55790952D01*
X100283809Y-56362380D01*
X100902857Y-56362380D01*
G04 #@! TO.C,R9*
X107213333Y-105047380D02*
X106880000Y-104571190D01*
X106641904Y-105047380D02*
X106641904Y-104047380D01*
X107022857Y-104047380D01*
X107118095Y-104095000D01*
X107165714Y-104142619D01*
X107213333Y-104237857D01*
X107213333Y-104380714D01*
X107165714Y-104475952D01*
X107118095Y-104523571D01*
X107022857Y-104571190D01*
X106641904Y-104571190D01*
X107689523Y-105047380D02*
X107880000Y-105047380D01*
X107975238Y-104999761D01*
X108022857Y-104952142D01*
X108118095Y-104809285D01*
X108165714Y-104618809D01*
X108165714Y-104237857D01*
X108118095Y-104142619D01*
X108070476Y-104095000D01*
X107975238Y-104047380D01*
X107784761Y-104047380D01*
X107689523Y-104095000D01*
X107641904Y-104142619D01*
X107594285Y-104237857D01*
X107594285Y-104475952D01*
X107641904Y-104571190D01*
X107689523Y-104618809D01*
X107784761Y-104666428D01*
X107975238Y-104666428D01*
X108070476Y-104618809D01*
X108118095Y-104571190D01*
X108165714Y-104475952D01*
G04 #@! TO.C,R10*
X107372142Y-112667380D02*
X107038809Y-112191190D01*
X106800714Y-112667380D02*
X106800714Y-111667380D01*
X107181666Y-111667380D01*
X107276904Y-111715000D01*
X107324523Y-111762619D01*
X107372142Y-111857857D01*
X107372142Y-112000714D01*
X107324523Y-112095952D01*
X107276904Y-112143571D01*
X107181666Y-112191190D01*
X106800714Y-112191190D01*
X108324523Y-112667380D02*
X107753095Y-112667380D01*
X108038809Y-112667380D02*
X108038809Y-111667380D01*
X107943571Y-111810238D01*
X107848333Y-111905476D01*
X107753095Y-111953095D01*
X108943571Y-111667380D02*
X109038809Y-111667380D01*
X109134047Y-111715000D01*
X109181666Y-111762619D01*
X109229285Y-111857857D01*
X109276904Y-112048333D01*
X109276904Y-112286428D01*
X109229285Y-112476904D01*
X109181666Y-112572142D01*
X109134047Y-112619761D01*
X109038809Y-112667380D01*
X108943571Y-112667380D01*
X108848333Y-112619761D01*
X108800714Y-112572142D01*
X108753095Y-112476904D01*
X108705476Y-112286428D01*
X108705476Y-112048333D01*
X108753095Y-111857857D01*
X108800714Y-111762619D01*
X108848333Y-111715000D01*
X108943571Y-111667380D01*
G04 #@! TO.C,R11*
X100387142Y-122827380D02*
X100053809Y-122351190D01*
X99815714Y-122827380D02*
X99815714Y-121827380D01*
X100196666Y-121827380D01*
X100291904Y-121875000D01*
X100339523Y-121922619D01*
X100387142Y-122017857D01*
X100387142Y-122160714D01*
X100339523Y-122255952D01*
X100291904Y-122303571D01*
X100196666Y-122351190D01*
X99815714Y-122351190D01*
X101339523Y-122827380D02*
X100768095Y-122827380D01*
X101053809Y-122827380D02*
X101053809Y-121827380D01*
X100958571Y-121970238D01*
X100863333Y-122065476D01*
X100768095Y-122113095D01*
X102291904Y-122827380D02*
X101720476Y-122827380D01*
X102006190Y-122827380D02*
X102006190Y-121827380D01*
X101910952Y-121970238D01*
X101815714Y-122065476D01*
X101720476Y-122113095D01*
G04 #@! TO.C,R12*
X111182142Y-122827380D02*
X110848809Y-122351190D01*
X110610714Y-122827380D02*
X110610714Y-121827380D01*
X110991666Y-121827380D01*
X111086904Y-121875000D01*
X111134523Y-121922619D01*
X111182142Y-122017857D01*
X111182142Y-122160714D01*
X111134523Y-122255952D01*
X111086904Y-122303571D01*
X110991666Y-122351190D01*
X110610714Y-122351190D01*
X112134523Y-122827380D02*
X111563095Y-122827380D01*
X111848809Y-122827380D02*
X111848809Y-121827380D01*
X111753571Y-121970238D01*
X111658333Y-122065476D01*
X111563095Y-122113095D01*
X112515476Y-121922619D02*
X112563095Y-121875000D01*
X112658333Y-121827380D01*
X112896428Y-121827380D01*
X112991666Y-121875000D01*
X113039285Y-121922619D01*
X113086904Y-122017857D01*
X113086904Y-122113095D01*
X113039285Y-122255952D01*
X112467857Y-122827380D01*
X113086904Y-122827380D01*
G04 #@! TD*
M02*
